courier-code_bold.sfdir
StartChar: exclam
Encoding: 33 33 4
Width: 602
Flags: W
LayerCount: 2
Back
Fore
SplineSet
205 72 m 0,0,1
 205 107 205 107 231.5 130 c 128,-1,2
 258 153 258 153 301 153 c 0,3,4
 345 153 345 153 371 130.5 c 128,-1,5
 397 108 397 108 397 72 c 0,6,7
 397 35 397 35 371 12 c 128,-1,8
 345 -11 345 -11 301 -11 c 0,9,10
 258 -11 258 -11 231.5 12.5 c 128,-1,11
 205 36 205 36 205 72 c 0,0,1
236 546 m 1,12,-1
 236 551 l 2,13,14
 236 579 236 579 253 595.5 c 128,-1,15
 270 612 270 612 300 612 c 128,-1,16
 330 612 330 612 347.5 595.5 c 128,-1,17
 365 579 365 579 365 551 c 2,18,-1
 365 546 l 1,19,-1
 346 229 l 2,20,21
 345 214 345 214 332.5 203 c 128,-1,22
 320 192 320 192 300 192 c 0,23,24
 281 192 281 192 269 202.5 c 128,-1,25
 257 213 257 213 256 229 c 2,26,-1
 236 546 l 1,12,-1
EndSplineSet
EndChar
StartChar: quotedbl
Encoding: 34 34 5
Width: 602
Flags: W
LayerCount: 2
Back
Fore
SplineSet
195 338 m 2,0,1
 181 338 181 338 176.5 344.5 c 128,-1,2
 172 351 172 351 170 368 c 2,3,-1
 155 549 l 1,4,-1
 155 555 l 2,5,6
 155 579 155 579 177 579 c 2,7,-1
 242 579 l 2,8,9
 265 579 265 579 265 555 c 2,10,11
 265 555 265 555 265 549 c 2,12,-1
 250 368 l 2,13,14
 248 351 248 351 243.5 344.5 c 128,-1,15
 239 338 239 338 225 338 c 2,16,-1
 195 338 l 2,0,1
377 338 m 2,17,18
 363 338 363 338 358.5 344.5 c 128,-1,19
 354 351 354 351 352 368 c 2,20,-1
 337 549 l 1,21,-1
 337 555 l 2,22,23
 337 579 337 579 360 579 c 2,24,-1
 425 579 l 2,25,26
 447 579 447 579 447 555 c 2,27,-1
 447 549 l 1,28,-1
 432 368 l 2,29,30
 430 351 430 351 425.5 344.5 c 128,-1,31
 421 338 421 338 407 338 c 2,32,-1
 377 338 l 2,17,18
EndSplineSet
EndChar
StartChar: numbersign
Encoding: 35 35 6
Width: 602
Flags: W
LayerCount: 2
Back
Fore
SplineSet
269 251 m 1,0,-1
 329 251 l 1,1,-1
 335 363 l 1,2,-1
 274 363 l 1,3,-1
 269 251 l 1,0,-1
207 641 m 2,4,5
 209 683 209 683 248 683 c 0,6,7
 290 683 290 683 290 642 c 2,8,9
 290 642 290 642 290 637 c 2,10,-1
 279 437 l 1,11,-1
 339 437 l 1,12,-1
 350 641 l 2,13,14
 352 683 352 683 391 683 c 0,15,16
 433 683 433 683 433 642 c 2,17,18
 433 642 433 642 433 637 c 2,19,-1
 422 437 l 1,20,-1
 470 437 l 2,21,22
 502 437 502 437 502 400 c 128,-1,23
 502 363 502 363 470 363 c 2,24,-1
 418 363 l 1,25,-1
 411 251 l 1,26,-1
 470 251 l 2,27,28
 502 251 502 251 502 214 c 128,-1,29
 502 177 502 177 470 177 c 2,30,-1
 407 177 l 1,31,-1
 397 -16 l 2,32,33
 395 -58 395 -58 356 -58 c 0,34,35
 337 -58 337 -58 325.5 -46.5 c 128,-1,36
 314 -35 314 -35 314 -15 c 2,37,-1
 314 -11 l 1,38,-1
 325 177 l 1,39,-1
 264 177 l 1,40,-1
 254 -16 l 2,41,42
 252 -58 252 -58 213 -58 c 0,43,44
 194 -58 194 -58 183 -46 c 128,-1,45
 172 -34 172 -34 172 -14 c 2,46,-1
 172 -11 l 1,47,-1
 181 178 l 1,48,-1
 131 178 l 2,49,50
 99 178 99 178 99 215 c 0,51,52
 99 251 99 251 131 251 c 2,53,-1
 185 251 l 1,54,-1
 191 363 l 1,55,-1
 131 363 l 2,56,57
 99 363 99 363 99 400 c 128,-1,58
 99 437 99 437 131 437 c 2,59,-1
 196 437 l 1,60,-1
 207 641 l 2,4,5
EndSplineSet
EndChar
StartChar: dollar
Encoding: 36 36 7
Width: 602
Flags: W
LayerCount: 2
Back
Fore
SplineSet
174 62 m 1,0,1
 160 44 160 44 131 44 c 0,2,3
 105 44 105 44 95 56.5 c 128,-1,4
 85 69 85 69 85 104 c 2,5,-1
 85 163 l 2,6,7
 85 194 85 194 96.5 208.5 c 128,-1,8
 108 223 108 223 136 223 c 0,9,10
 152 223 152 223 162.5 217 c 128,-1,11
 173 211 173 211 176.5 205.5 c 128,-1,12
 180 200 180 200 185.5 185.5 c 128,-1,13
 191 171 191 171 193 167 c 0,14,15
 204 144 204 144 234.5 130 c 128,-1,16
 265 116 265 116 305 116 c 0,17,18
 341 116 341 116 361.5 132.5 c 128,-1,19
 382 149 382 149 382 178 c 0,20,21
 382 205 382 205 364.5 218 c 128,-1,22
 347 231 347 231 294 251 c 2,23,-1
 204 286 l 2,24,25
 98 326 98 326 98 435 c 0,26,27
 98 581 98 581 268 593 c 1,28,-1
 272 632 l 2,29,30
 275 672 275 672 317 672 c 0,31,32
 360 672 360 672 360 638 c 2,33,-1
 360 631 l 1,34,-1
 356 588 l 1,35,36
 390 581 390 581 407 574 c 1,37,38
 417 596 417 596 447 596 c 0,39,40
 469 596 469 596 478 583 c 128,-1,41
 487 570 487 570 488 541 c 2,42,-1
 489 481 l 1,43,-1
 489 478 l 2,44,45
 489 428 489 428 436 428 c 0,46,47
 419 428 419 428 409.5 435.5 c 128,-1,48
 400 443 400 443 391 462 c 0,49,50
 366 513 366 513 306 513 c 0,51,52
 266 513 266 513 243.5 496 c 128,-1,53
 221 479 221 479 221 450 c 0,54,55
 221 425 221 425 237 411.5 c 128,-1,56
 253 398 253 398 295 381 c 2,57,-1
 386 346 l 2,58,59
 451 320 451 320 480 285.5 c 128,-1,60
 509 251 509 251 509 193 c 0,61,62
 509 113 509 113 463 70 c 128,-1,63
 417 27 417 27 329 27 c 2,64,-1
 326 27 l 1,65,-1
 319 -80 l 2,66,67
 318 -102 318 -102 306.5 -112 c 128,-1,68
 295 -122 295 -122 272 -122 c 0,69,70
 234 -122 234 -122 234 -82 c 2,71,-1
 234 -74 l 1,72,-1
 241 39 l 1,73,74
 207 45 207 45 174 62 c 1,0,1
EndSplineSet
EndChar
StartChar: percent
Encoding: 37 37 8
Width: 602
Flags: W
LayerCount: 2
Back
Fore
SplineSet
101 499 m 128,-1,1
 101 556 101 556 141.5 594 c 128,-1,2
 182 632 182 632 244 632 c 128,-1,3
 306 632 306 632 346.5 594 c 128,-1,4
 387 556 387 556 387 499 c 128,-1,5
 387 442 387 442 347 404 c 128,-1,6
 307 366 307 366 244 366 c 0,7,8
 182 366 182 366 141.5 404 c 128,-1,0
 101 442 101 442 101 499 c 128,-1,1
310 499 m 128,-1,10
 310 525 310 525 292 542 c 128,-1,11
 274 559 274 559 245 559 c 0,12,13
 215 559 215 559 197 542 c 128,-1,14
 179 525 179 525 179 499 c 128,-1,15
 179 473 179 473 197 456.5 c 128,-1,16
 215 440 215 440 245 440 c 128,-1,17
 275 440 275 440 292.5 456.5 c 128,-1,9
 310 473 310 473 310 499 c 128,-1,10
423 117 m 128,-1,19
 423 143 423 143 405 159.5 c 128,-1,20
 387 176 387 176 357 176 c 128,-1,21
 327 176 327 176 309 159.5 c 128,-1,22
 291 143 291 143 291 117 c 128,-1,23
 291 91 291 91 309 74.5 c 128,-1,24
 327 58 327 58 357 58 c 128,-1,25
 387 58 387 58 405 74.5 c 128,-1,18
 423 91 423 91 423 117 c 128,-1,19
213 117 m 128,-1,27
 213 174 213 174 253.5 212 c 128,-1,28
 294 250 294 250 357 250 c 0,29,30
 419 250 419 250 459.5 212 c 128,-1,31
 500 174 500 174 500 117 c 128,-1,32
 500 60 500 60 460 22 c 128,-1,33
 420 -16 420 -16 357 -16 c 128,-1,34
 294 -16 294 -16 253.5 22 c 128,-1,26
 213 60 213 60 213 117 c 128,-1,27
124 272 m 2,35,-1
 451 402 l 2,36,37
 459 405 459 405 465 405 c 0,38,39
 478 405 478 405 486.5 395.5 c 128,-1,40
 495 386 495 386 495 372 c 0,41,42
 495 353 495 353 475 345 c 2,43,-1
 147 214 l 2,44,45
 140 211 140 211 133 211 c 0,46,47
 120 211 120 211 112 221 c 128,-1,48
 104 231 104 231 104 246 c 0,49,50
 104 264 104 264 124 272 c 2,35,-1
EndSplineSet
EndChar
StartChar: ampersand
Encoding: 38 38 9
Width: 602
Flags: W
LayerCount: 2
Back
Fore
SplineSet
316 114 m 1,0,-1
 225 236 l 1,1,2
 177 206 177 206 177 161 c 0,3,4
 177 130 177 130 197.5 109 c 128,-1,5
 218 88 218 88 250 88 c 0,6,7
 281 88 281 88 316 114 c 1,0,-1
376 34 m 1,8,9
 308 -16 308 -16 223 -16 c 0,10,11
 149 -16 149 -16 103 26.5 c 128,-1,12
 57 69 57 69 57 136 c 0,13,14
 57 191 57 191 83 232.5 c 128,-1,15
 109 274 109 274 166 313 c 1,16,-1
 139 356 l 2,17,18
 116 395 116 395 116 436 c 0,19,20
 116 494 116 494 155.5 527.5 c 128,-1,21
 195 561 195 561 266 561 c 0,22,23
 321 561 321 561 366 531 c 1,24,25
 380 534 380 534 387 534 c 0,26,27
 403 534 403 534 413.5 521.5 c 128,-1,28
 424 509 424 509 424 490 c 0,29,30
 424 464 424 464 407.5 445.5 c 128,-1,31
 391 427 391 427 371 427 c 0,32,33
 357 427 357 427 326 445 c 128,-1,34
 295 463 295 463 277 463 c 0,35,36
 239 463 239 463 239 427 c 0,37,38
 239 420 239 420 240 414.5 c 128,-1,39
 241 409 241 409 245 401.5 c 128,-1,40
 249 394 249 394 250 391.5 c 128,-1,41
 251 389 251 389 258 379.5 c 128,-1,42
 265 370 265 370 266 369 c 2,43,-1
 383 205 l 1,44,45
 388 222 388 222 394 244 c 128,-1,46
 400 266 400 266 402.5 275.5 c 128,-1,47
 405 285 405 285 411 295 c 128,-1,48
 417 305 417 305 426 308 c 128,-1,49
 435 311 435 311 450 311 c 2,50,-1
 468 311 l 1,51,-1
 487 311 l 2,52,53
 501 311 501 311 512.5 298 c 128,-1,54
 524 285 524 285 524 263 c 0,55,56
 524 220 524 220 478 213 c 1,57,58
 468 157 468 157 443 119 c 1,59,-1
 468 89 l 1,60,-1
 476 89 l 2,61,62
 518 89 518 89 518 46 c 0,63,64
 518 0 518 0 468 0 c 2,65,-1
 429 0 l 2,66,67
 402 0 402 0 391 14 c 2,68,-1
 376 34 l 1,8,9
EndSplineSet
EndChar
StartChar: quotesingle
Encoding: 39 39 106
Width: 602
Flags: W
LayerCount: 2
Back
Fore
SplineSet
286 338 m 2,0,1
 272 338 272 338 267.5 344.5 c 128,-1,2
 263 351 263 351 261 368 c 2,3,-1
 246 549 l 1,4,-1
 246 555 l 2,5,6
 246 579 246 579 269 579 c 2,7,-1
 333 579 l 2,8,9
 356 579 356 579 356 555 c 2,10,11
 356 555 356 555 356 549 c 2,12,-1
 341 368 l 2,13,14
 339 351 339 351 334.5 344.5 c 128,-1,15
 330 338 330 338 316 338 c 2,16,-1
 286 338 l 2,0,1
EndSplineSet
EndChar
StartChar: parenleft
Encoding: 40 40 11
Width: 602
Flags: W
LayerCount: 2
Back
Fore
SplineSet
427 597 m 0,0,1
 437 597 437 597 444 590 c 128,-1,2
 451 583 451 583 451 573 c 0,3,4
 451 566 451 566 445.5 554.5 c 128,-1,5
 440 543 440 543 425 517.5 c 128,-1,6
 410 492 410 492 401 476 c 0,7,8
 326 338 326 338 326 200 c 0,9,10
 326 74 326 74 384 -43 c 0,11,12
 398 -71 398 -71 416 -102 c 128,-1,13
 434 -133 434 -133 442.5 -149 c 128,-1,14
 451 -165 451 -165 451 -173 c 0,15,16
 451 -183 451 -183 444 -189.5 c 128,-1,17
 437 -196 437 -196 427 -196 c 0,18,19
 382 -196 382 -196 308 -104 c 0,20,21
 197 36 197 36 197 200 c 0,22,23
 197 366 197 366 308 505 c 0,24,25
 381 597 381 597 427 597 c 0,0,1
EndSplineSet
EndChar
StartChar: parenright
Encoding: 41 41 12
Width: 602
Flags: W
LayerCount: 2
Back
Fore
SplineSet
176 -197 m 0,0,1
 166 -197 166 -197 159 -190 c 128,-1,2
 152 -183 152 -183 152 -173 c 0,3,4
 152 -166 152 -166 158 -154.5 c 128,-1,5
 164 -143 164 -143 178.5 -118 c 128,-1,6
 193 -93 193 -93 203 -76 c 0,7,8
 278 62 278 62 278 200 c 0,9,10
 278 324 278 324 219 444 c 0,11,12
 205 472 205 472 187 502.5 c 128,-1,13
 169 533 169 533 160.5 549 c 128,-1,14
 152 565 152 565 152 573 c 0,15,16
 152 583 152 583 159 590 c 128,-1,17
 166 597 166 597 176 597 c 0,18,19
 221 597 221 597 295 505 c 0,20,21
 406 366 406 366 406 200 c 0,22,23
 406 35 406 35 295 -104 c 0,24,25
 221 -197 221 -197 176 -197 c 0,0,1
EndSplineSet
EndChar
StartChar: asterisk
Encoding: 42 42 13
Width: 602
Flags: W
LayerCount: 2
Back
Fore
SplineSet
456 479 m 2,0,1
 464 482 464 482 468 482 c 0,2,3
 477 482 477 482 483 462 c 2,4,-1
 496 421 l 2,5,6
 500 409 500 409 500 403 c 0,7,8
 500 395 500 395 484 392 c 2,9,-1
 353 364 l 1,10,-1
 443 262 l 2,11,12
 450 255 450 255 450 248 c 0,13,14
 450 243 450 243 434 232 c 2,15,-1
 400 207 l 2,16,17
 388 198 388 198 382 198 c 0,18,19
 375 198 375 198 369 209 c 2,20,-1
 301 325 l 1,21,-1
 233 209 l 2,22,23
 226 198 226 198 219 198 c 0,24,25
 214 198 214 198 201 208 c 2,26,-1
 167 233 l 2,27,28
 152 244 152 244 152 249 c 0,29,30
 152 256 152 256 159 263 c 2,31,-1
 250 363 l 1,32,-1
 118 392 l 2,33,34
 102 395 102 395 102 403 c 0,35,36
 102 409 102 409 106 422 c 2,37,-1
 120 462 l 2,38,39
 127 482 127 482 134 482 c 0,40,41
 138 482 138 482 146 479 c 2,42,-1
 268 423 l 1,43,-1
 254 559 l 1,44,45
 254 559 254 559 254 564 c 0,46,47
 254 573 254 573 259.5 576 c 128,-1,48
 265 579 265 579 279 579 c 2,49,-1
 322 579 l 2,50,51
 336 579 336 579 341 576.5 c 128,-1,52
 346 574 346 574 346 565 c 2,53,-1
 346 559 l 1,54,-1
 333 425 l 1,55,-1
 456 479 l 2,0,1
EndSplineSet
EndChar
StartChar: comma
Encoding: 44 44 15
Width: 602
Flags: W
LayerCount: 2
Back
Fore
SplineSet
241 142 m 2,0,1
 246 159 246 159 252.5 164 c 128,-1,2
 259 169 259 169 276 169 c 2,3,-1
 392 169 l 2,4,5
 409 169 409 169 409 158 c 0,6,7
 409 152 409 152 405 144 c 2,8,-1
 259 -142 l 2,9,10
 251 -159 251 -159 235 -159 c 0,11,12
 233 -159 233 -159 225 -157 c 2,13,-1
 188 -144 l 2,14,15
 171 -138 171 -138 171 -125 c 0,16,17
 171 -116 171 -116 172 -112 c 2,18,-1
 241 142 l 2,0,1
EndSplineSet
EndChar
StartChar: hyphen
Encoding: 45 45 16
Width: 602
Flags: W
LayerCount: 2
Back
Fore
SplineSet
97 170 m 2,0,1
 76 170 76 170 76 197 c 2,2,-1
 76 258 l 2,3,4
 76 281 76 281 97 281 c 2,5,-1
 502 281 l 2,6,7
 525 281 525 281 525 258 c 2,8,-1
 525 197 l 2,9,10
 525 186 525 186 518 178 c 128,-1,11
 511 170 511 170 502 170 c 2,12,-1
 97 170 l 2,0,1
EndSplineSet
EndChar
StartChar: period
Encoding: 46 46 17
Width: 602
Flags: W
LayerCount: 2
Back
Fore
SplineSet
199 85 m 128,-1,1
 199 125 199 125 227.5 151 c 128,-1,2
 256 177 256 177 301 177 c 0,3,4
 347 177 347 177 375 151.5 c 128,-1,5
 403 126 403 126 403 85 c 128,-1,6
 403 44 403 44 375 18.5 c 128,-1,7
 347 -7 347 -7 301 -7 c 0,8,9
 256 -7 256 -7 227.5 19 c 128,-1,0
 199 45 199 45 199 85 c 128,-1,1
EndSplineSet
EndChar
StartChar: zero
Encoding: 48 48 19
Width: 602
Flags: W
LayerCount: 2
Back
Fore
SplineSet
250 309.5 m 128,-1,1
 250 331 250 331 265 346 c 128,-1,2
 280 361 280 361 301 361 c 128,-1,3
 322 361 322 361 337 345.5 c 128,-1,4
 352 330 352 330 352 309 c 128,-1,5
 352 288 352 288 337 273 c 128,-1,6
 322 258 322 258 301 258 c 128,-1,7
 280 258 280 258 265 273 c 128,-1,0
 250 288 250 288 250 309.5 c 128,-1,1
300 -16 m 0,8,9
 190 -16 190 -16 124 70.5 c 128,-1,10
 58 157 58 157 58 308 c 0,11,12
 58 460 58 460 124 546 c 128,-1,13
 190 632 190 632 300 632 c 0,14,15
 411 632 411 632 477.5 545.5 c 128,-1,16
 544 459 544 459 544 308 c 128,-1,17
 544 157 544 157 477.5 70.5 c 128,-1,18
 411 -16 411 -16 300 -16 c 0,8,9
301 522 m 128,-1,20
 250 522 250 522 219.5 466.5 c 128,-1,21
 189 411 189 411 189 309 c 0,22,23
 189 206 189 206 219.5 150 c 128,-1,24
 250 94 250 94 301 94 c 128,-1,25
 352 94 352 94 382.5 150 c 128,-1,26
 413 206 413 206 413 309 c 0,27,28
 413 411 413 411 382.5 466.5 c 128,-1,19
 352 522 352 522 301 522 c 128,-1,20
EndSplineSet
EndChar
StartChar: one
Encoding: 49 49 20
Width: 602
Flags: W
LayerCount: 2
Back
Fore
SplineSet
257 516 m 1,0,-1
 202 502 l 2,1,2
 178 496 178 496 169 496 c 0,3,4
 127 496 127 496 127 545 c 0,5,6
 127 579 127 579 177 592 c 2,7,-1
 298 625 l 2,8,9
 325 633 325 633 339 633 c 0,10,11
 359 633 359 633 367 622 c 128,-1,12
 375 611 375 611 375 586 c 2,13,-1
 375 104 l 1,14,-1
 454 104 l 2,15,16
 486 104 486 104 501 92 c 128,-1,17
 516 80 516 80 516 52 c 0,18,19
 516 23 516 23 501 11.5 c 128,-1,20
 486 0 486 0 454 0 c 2,21,-1
 166 0 l 2,22,23
 134 0 134 0 119 11.5 c 128,-1,24
 104 23 104 23 104 52 c 0,25,26
 104 80 104 80 119 92 c 128,-1,27
 134 104 134 104 166 104 c 2,28,-1
 257 104 l 1,29,-1
 257 516 l 1,0,-1
EndSplineSet
EndChar
StartChar: two
Encoding: 50 50 21
Width: 602
Flags: W
LayerCount: 2
Back
Fore
SplineSet
501 34 m 2,0,1
 500 21 500 21 498.5 14.5 c 128,-1,2
 497 8 497 8 491 4 c 128,-1,3
 485 0 485 0 472 0 c 2,4,-1
 121 0 l 2,5,6
 62 0 62 0 62 47 c 0,7,8
 62 82 62 82 102 121 c 2,9,-1
 301 313 l 2,10,11
 365 375 365 375 365 438 c 0,12,13
 365 525 365 525 278 525 c 0,14,15
 227 525 227 525 203 496 c 0,16,17
 199 491 199 491 187.5 471.5 c 128,-1,18
 176 452 176 452 165.5 444.5 c 128,-1,19
 155 437 155 437 137 437 c 0,20,21
 88 437 88 437 88 501 c 0,22,23
 88 533 88 533 96 549.5 c 128,-1,24
 104 566 104 566 127 582 c 0,25,26
 203 632 203 632 299 632 c 0,27,28
 392 632 392 632 445.5 581.5 c 128,-1,29
 499 531 499 531 499 448 c 0,30,31
 499 338 499 338 384 238 c 2,32,-1
 236 110 l 1,33,-1
 407 110 l 1,34,35
 407 162 407 162 460 162 c 0,36,37
 505 162 505 162 505 116 c 2,38,-1
 505 110 l 1,39,-1
 501 34 l 2,0,1
EndSplineSet
EndChar
StartChar: three
Encoding: 51 51 22
Width: 602
Flags: W
LayerCount: 2
Back
Fore
SplineSet
390 335 m 1,0,1
 501 300 501 300 501 181 c 0,2,3
 501 91 501 91 440 37 c 128,-1,4
 379 -17 379 -17 272 -17 c 0,5,6
 183 -17 183 -17 128 12 c 128,-1,7
 73 41 73 41 73 80 c 0,8,9
 73 104 73 104 88 119 c 128,-1,10
 103 134 103 134 129 134 c 0,11,12
 141 134 141 134 190.5 112 c 128,-1,13
 240 90 240 90 279 90 c 0,14,15
 325 90 325 90 349.5 115 c 128,-1,16
 374 140 374 140 374 185 c 0,17,18
 374 239 374 239 351 258 c 128,-1,19
 328 277 328 277 274 279 c 0,20,21
 244 280 244 280 233 290 c 128,-1,22
 222 300 222 300 222 330 c 0,23,24
 222 339 222 339 222.5 346 c 128,-1,25
 223 353 223 353 226.5 357.5 c 128,-1,26
 230 362 230 362 231.5 365 c 128,-1,27
 233 368 233 368 239.5 370 c 128,-1,28
 246 372 246 372 248 372.5 c 128,-1,29
 250 373 250 373 260.5 374.5 c 128,-1,30
 271 376 271 376 273 376 c 0,31,32
 318 382 318 382 337.5 396.5 c 128,-1,33
 357 411 357 411 357 454 c 0,34,35
 357 532 357 532 285 532 c 0,36,37
 249 532 249 532 204 509.5 c 128,-1,38
 159 487 159 487 142 487 c 0,39,40
 123 487 123 487 111.5 499.5 c 128,-1,41
 100 512 100 512 100 531 c 0,42,43
 100 571 100 571 156.5 601.5 c 128,-1,44
 213 632 213 632 300 632 c 0,45,46
 386 632 386 632 436 587.5 c 128,-1,47
 486 543 486 543 486 471 c 0,48,49
 486 379 486 379 390 335 c 1,0,1
EndSplineSet
EndChar
StartChar: four
Encoding: 52 52 23
Width: 602
Flags: W
LayerCount: 2
Back
Fore
SplineSet
325 244 m 1,0,-1
 325 514 l 1,1,-1
 172 244 l 1,2,-1
 325 244 l 1,0,-1
291 612 m 2,3,4
 302 631 302 631 315 631 c 0,5,6
 319 631 319 631 329 629 c 2,7,-1
 416 614 l 2,8,9
 431 611 431 611 431 589 c 2,10,-1
 431 244 l 2,11,12
 434 243 434 243 439 243 c 0,13,14
 449 243 449 243 461.5 255.5 c 128,-1,15
 474 268 474 268 483 268 c 0,16,17
 503 268 503 268 515 257.5 c 128,-1,18
 527 247 527 247 527 229 c 0,19,20
 527 219 527 219 524 210 c 2,21,-1
 513 174 l 2,22,23
 507 154 507 154 486 154 c 2,24,-1
 431 154 l 1,25,-1
 431 93 l 1,26,-1
 460 93 l 2,27,28
 492 93 492 93 507 82.5 c 128,-1,29
 522 72 522 72 522 46 c 0,30,31
 522 21 522 21 507 10.5 c 128,-1,32
 492 0 492 0 460 0 c 2,33,-1
 254 0 l 2,34,35
 222 0 222 0 207.5 10.5 c 128,-1,36
 193 21 193 21 193 46 c 0,37,38
 193 72 193 72 207.5 82.5 c 128,-1,39
 222 93 222 93 254 93 c 2,40,-1
 325 93 l 1,41,-1
 325 154 l 1,42,-1
 100 154 l 2,43,44
 74 154 74 154 74 184 c 2,45,-1
 74 214 l 2,46,47
 74 243 74 243 86 263 c 2,48,-1
 291 612 l 2,3,4
EndSplineSet
EndChar
StartChar: five
Encoding: 53 53 24
Width: 602
Flags: W
LayerCount: 2
Back
Fore
SplineSet
212 394 m 1,0,1
 273 412 273 412 318 412 c 0,2,3
 406 412 406 412 460 354 c 128,-1,4
 514 296 514 296 514 202 c 0,5,6
 514 96 514 96 447.5 40 c 128,-1,7
 381 -16 381 -16 255 -16 c 0,8,9
 70 -16 70 -16 70 63 c 0,10,11
 70 86 70 86 86.5 103 c 128,-1,12
 103 120 103 120 126 120 c 0,13,14
 140 120 140 120 187.5 106 c 128,-1,15
 235 92 235 92 268 92 c 0,16,17
 323 92 323 92 353.5 120.5 c 128,-1,18
 384 149 384 149 384 201 c 0,19,20
 384 251 384 251 355.5 281.5 c 128,-1,21
 327 312 327 312 278 312 c 0,22,23
 246 312 246 312 203.5 292 c 128,-1,24
 161 272 161 272 145 272 c 0,25,26
 117 272 117 272 105.5 287.5 c 128,-1,27
 94 303 94 303 94 340 c 2,28,-1
 94 576 l 2,29,30
 94 598 94 598 99 607 c 128,-1,31
 104 616 104 616 125 616 c 2,32,-1
 445 616 l 2,33,34
 476 616 476 616 487.5 604 c 128,-1,35
 499 592 499 592 499 561 c 0,36,37
 499 531 499 531 487.5 519 c 128,-1,38
 476 507 476 507 445 507 c 2,39,-1
 212 507 l 1,40,-1
 212 394 l 1,0,1
EndSplineSet
EndChar
StartChar: six
Encoding: 54 54 25
Width: 602
Flags: W
LayerCount: 2
Back
Fore
SplineSet
207 345 m 1,0,1
 255 401 255 401 335 401 c 0,2,3
 413 401 413 401 467 341 c 128,-1,4
 521 281 521 281 521 193 c 0,5,6
 521 100 521 100 461 42.5 c 128,-1,7
 401 -15 401 -15 301 -15 c 0,8,9
 198 -15 198 -15 138 60 c 128,-1,10
 78 135 78 135 78 268 c 0,11,12
 78 433 78 433 170 532.5 c 128,-1,13
 262 632 262 632 414 632 c 0,14,15
 509 632 509 632 509 596 c 0,16,17
 509 579 509 579 505.5 570 c 128,-1,18
 502 561 502 561 490.5 556 c 128,-1,19
 479 551 479 551 470 550 c 128,-1,20
 461 549 461 549 436 547.5 c 128,-1,21
 411 546 411 546 394 544 c 0,22,23
 317 536 317 536 272 487.5 c 128,-1,24
 227 439 227 439 207 345 c 1,0,1
209 190 m 0,25,26
 209 141 209 141 237 110.5 c 128,-1,27
 265 80 265 80 307 80 c 0,28,29
 347 80 347 80 372 109 c 128,-1,30
 397 138 397 138 397 185 c 0,31,32
 397 233 397 233 370.5 263.5 c 128,-1,33
 344 294 344 294 303 294 c 0,34,35
 263 294 263 294 236 264.5 c 128,-1,36
 209 235 209 235 209 190 c 0,25,26
EndSplineSet
EndChar
StartChar: seven
Encoding: 55 55 26
Width: 602
Flags: W
LayerCount: 2
Back
Fore
SplineSet
146 498 m 2,0,1
 144 483 144 483 132 472.5 c 128,-1,2
 120 462 120 462 101 462 c 0,3,4
 61 462 61 462 61 500 c 0,5,6
 61 502 61 502 61.5 506 c 128,-1,7
 62 510 62 510 62 512 c 2,8,-1
 71 588 l 2,9,10
 74 616 74 616 104 616 c 2,11,-1
 449 616 l 2,12,13
 475 616 475 616 475 591 c 2,14,-1
 475 564 l 1,15,-1
 317 14 l 2,16,17
 310 -8 310 -8 288 -8 c 2,18,-1
 198 -8 l 2,19,20
 191 -8 191 -8 186 -3.5 c 128,-1,21
 181 1 181 1 181 7 c 0,22,23
 181 17 181 17 183 22 c 2,24,-1
 358 507 l 1,25,-1
 148 507 l 1,26,-1
 146 498 l 2,0,1
EndSplineSet
EndChar
StartChar: eight
Encoding: 56 56 27
Width: 602
Flags: W
LayerCount: 2
Back
Fore
SplineSet
190 316 m 1,0,1
 82 364 82 364 82 464 c 0,2,3
 82 534 82 534 143 583 c 128,-1,4
 204 632 204 632 301 632 c 0,5,6
 399 632 399 632 460 582 c 128,-1,7
 521 532 521 532 521 459 c 0,8,9
 521 361 521 361 412 316 c 1,10,11
 468 296 468 296 497.5 257 c 128,-1,12
 527 218 527 218 527 166 c 0,13,14
 527 86 527 86 465 35 c 128,-1,15
 403 -16 403 -16 301 -16 c 0,16,17
 200 -16 200 -16 137.5 35.5 c 128,-1,18
 75 87 75 87 75 164 c 0,19,20
 75 216 75 216 104.5 255.5 c 128,-1,21
 134 295 134 295 190 316 c 1,0,1
206 454 m 128,-1,23
 206 417 206 417 232.5 392.5 c 128,-1,24
 259 368 259 368 300 368 c 0,25,26
 342 368 342 368 368.5 392 c 128,-1,27
 395 416 395 416 395 454 c 0,28,29
 395 491 395 491 368.5 515.5 c 128,-1,30
 342 540 342 540 300 540 c 128,-1,31
 258 540 258 540 232 515.5 c 128,-1,22
 206 491 206 491 206 454 c 128,-1,23
201 171 m 0,32,33
 201 132 201 132 228.5 106 c 128,-1,34
 256 80 256 80 301 80 c 128,-1,35
 346 80 346 80 373.5 105.5 c 128,-1,36
 401 131 401 131 401 171 c 128,-1,37
 401 211 401 211 373 236.5 c 128,-1,38
 345 262 345 262 301 262 c 0,39,40
 256 262 256 262 228.5 237.5 c 128,-1,41
 201 213 201 213 201 171 c 0,32,33
EndSplineSet
EndChar
StartChar: nine
Encoding: 57 57 28
Width: 602
Flags: W
LayerCount: 2
Back
Fore
SplineSet
388 426 m 0,0,1
 388 475 388 475 360 505.5 c 128,-1,2
 332 536 332 536 290 536 c 0,3,4
 250 536 250 536 225 507 c 128,-1,5
 200 478 200 478 200 431 c 0,6,7
 200 383 200 383 226.5 352.5 c 128,-1,8
 253 322 253 322 294 322 c 0,9,10
 334 322 334 322 361 351.5 c 128,-1,11
 388 381 388 381 388 426 c 0,0,1
390 271 m 1,12,13
 342 215 342 215 262 215 c 0,14,15
 184 215 184 215 130 275.5 c 128,-1,16
 76 336 76 336 76 424 c 0,17,18
 76 516 76 516 136 573.5 c 128,-1,19
 196 631 196 631 296 631 c 0,20,21
 399 631 399 631 459 556 c 128,-1,22
 519 481 519 481 519 348 c 0,23,24
 519 183 519 183 427 83.5 c 128,-1,25
 335 -16 335 -16 183 -16 c 0,26,27
 88 -16 88 -16 88 21 c 0,28,29
 88 38 88 38 91.5 47 c 128,-1,30
 95 56 95 56 106.5 60.5 c 128,-1,31
 118 65 118 65 127.5 66 c 128,-1,32
 137 67 137 67 161.5 68.5 c 128,-1,33
 186 70 186 70 204 72 c 0,34,35
 281 80 281 80 325.5 128 c 128,-1,36
 370 176 370 176 390 271 c 1,12,13
EndSplineSet
EndChar
StartChar: colon
Encoding: 58 58 29
Width: 602
Flags: W
LayerCount: 2
Back
Fore
SplineSet
199 86 m 128,-1,1
 199 126 199 126 227 151.5 c 128,-1,2
 255 177 255 177 300 177 c 0,3,4
 346 177 346 177 374.5 151.5 c 128,-1,5
 403 126 403 126 403 86 c 0,6,7
 403 45 403 45 374.5 19 c 128,-1,8
 346 -7 346 -7 300 -7 c 0,9,10
 255 -7 255 -7 227 19.5 c 128,-1,0
 199 46 199 46 199 86 c 128,-1,1
199 346 m 128,-1,12
 199 386 199 386 227 411.5 c 128,-1,13
 255 437 255 437 301 437 c 128,-1,14
 347 437 347 437 374.5 411.5 c 128,-1,15
 402 386 402 386 402 346 c 0,16,17
 402 305 402 305 374 279 c 128,-1,18
 346 253 346 253 301 253 c 128,-1,19
 256 253 256 253 227.5 279.5 c 128,-1,11
 199 306 199 306 199 346 c 128,-1,12
EndSplineSet
EndChar
StartChar: semicolon
Encoding: 59 59 30
Width: 602
Flags: W
LayerCount: 2
Back
Fore
SplineSet
197 346 m 128,-1,1
 197 386 197 386 225 411.5 c 128,-1,2
 253 437 253 437 298 437 c 0,3,4
 344 437 344 437 372 411.5 c 128,-1,5
 400 386 400 386 400 346 c 0,6,7
 400 305 400 305 372 279 c 128,-1,8
 344 253 344 253 298 253 c 0,9,10
 253 253 253 253 225 279.5 c 128,-1,0
 197 306 197 306 197 346 c 128,-1,1
241 142 m 2,11,12
 246 159 246 159 252.5 164 c 128,-1,13
 259 169 259 169 276 169 c 2,14,-1
 392 169 l 2,15,16
 409 169 409 169 409 158 c 0,17,18
 409 152 409 152 405 144 c 2,19,-1
 259 -142 l 2,20,21
 251 -159 251 -159 235 -159 c 0,22,23
 233 -159 233 -159 225 -157 c 2,24,-1
 188 -144 l 2,25,26
 171 -138 171 -138 171 -125 c 0,27,28
 171 -116 171 -116 172 -112 c 2,29,-1
 241 142 l 2,11,12
EndSplineSet
EndChar
StartChar: less
Encoding: 60 60 31
Width: 602
Flags: W
LayerCount: 2
Back
Fore
SplineSet
522 163 m 2,0,1
 558 146 558 146 558 116 c 0,2,3
 558 93 558 93 545.5 77.5 c 128,-1,4
 533 62 533 62 513 62 c 0,5,6
 501 62 501 62 478 72 c 2,7,-1
 89 254 l 2,8,9
 44 275 44 275 44 307 c 128,-1,10
 44 339 44 339 89 360 c 2,11,-1
 478 542 l 2,12,13
 501 552 501 552 513 552 c 0,14,15
 533 552 533 552 545.5 537 c 128,-1,16
 558 522 558 522 558 499 c 0,17,18
 558 468 558 468 522 452 c 2,19,-1
 212 307 l 1,20,-1
 522 163 l 2,0,1
EndSplineSet
EndChar
StartChar: greater
Encoding: 62 62 33
Width: 602
Flags: W
LayerCount: 2
Back
Fore
SplineSet
79 452 m 2,0,1
 44 468 44 468 44 499 c 0,2,3
 44 522 44 522 56.5 537 c 128,-1,4
 69 552 69 552 89 552 c 0,5,6
 100 552 100 552 123 542 c 2,7,-1
 513 360 l 2,8,9
 558 339 558 339 558 307 c 128,-1,10
 558 275 558 275 513 254 c 2,11,-1
 123 72 l 2,12,13
 100 62 100 62 89 62 c 0,14,15
 69 62 69 62 56.5 77.5 c 128,-1,16
 44 93 44 93 44 116 c 0,17,18
 44 147 44 147 79 163 c 2,19,-1
 389 307 l 1,20,-1
 79 452 l 2,0,1
EndSplineSet
EndChar
StartChar: question
Encoding: 63 63 34
Width: 602
Flags: W
LayerCount: 2
Back
Fore
SplineSet
168 71 m 0,0,1
 168 105 168 105 194 126.5 c 128,-1,2
 220 148 220 148 263 148 c 0,3,4
 307 148 307 148 333 126.5 c 128,-1,5
 359 105 359 105 359 71 c 128,-1,6
 359 37 359 37 332.5 15 c 128,-1,7
 306 -7 306 -7 263 -7 c 128,-1,8
 220 -7 220 -7 194 15.5 c 128,-1,9
 168 38 168 38 168 71 c 0,0,1
206 252 m 2,10,11
 206 286 206 286 217.5 304.5 c 128,-1,12
 229 323 229 323 264 342 c 0,13,14
 275 348 275 348 295.5 358 c 128,-1,15
 316 368 316 368 326 373.5 c 128,-1,16
 336 379 336 379 347.5 389 c 128,-1,17
 359 399 359 399 364 412.5 c 128,-1,18
 369 426 369 426 369 444 c 0,19,20
 369 479 369 479 345.5 500 c 128,-1,21
 322 521 322 521 281 521 c 128,-1,22
 240 521 240 521 226 513 c 128,-1,23
 212 505 212 505 207 484 c 0,24,25
 202 460 202 460 192.5 449 c 128,-1,26
 183 438 183 438 156 438 c 0,27,28
 115 438 115 438 115 486 c 2,29,-1
 115 548 l 2,30,31
 115 574 115 574 169.5 593 c 128,-1,32
 224 612 224 612 303 612 c 0,33,34
 392 612 392 612 443.5 565 c 128,-1,35
 495 518 495 518 495 439 c 0,36,37
 495 376 495 376 449 330 c 128,-1,38
 403 284 403 284 315 262 c 1,39,-1
 315 224 l 2,40,41
 315 204 315 204 300.5 192.5 c 128,-1,42
 286 181 286 181 261 181 c 0,43,44
 235 181 235 181 220.5 192.5 c 128,-1,45
 206 204 206 204 206 223 c 2,46,-1
 206 252 l 2,10,11
EndSplineSet
EndChar
StartChar: at
Encoding: 64 64 35
Width: 602
Flags: W
LayerCount: 2
Back
Fore
SplineSet
392 256 m 1,0,-1
 392 380 l 1,1,2
 387 381 387 381 378 381 c 0,3,4
 344 381 344 381 323.5 360 c 128,-1,5
 303 339 303 339 303 305 c 0,6,7
 303 246 303 246 355 246 c 0,8,9
 368 246 368 246 392 256 c 1,0,-1
410 184 m 1,10,11
 364 164 364 164 329 164 c 0,12,13
 280 164 280 164 247.5 200.5 c 128,-1,14
 215 237 215 237 215 293 c 0,15,16
 215 371 215 371 258 413 c 128,-1,17
 301 455 301 455 380 455 c 2,18,-1
 393 455 l 1,19,20
 393 515 393 515 370.5 547.5 c 128,-1,21
 348 580 348 580 308 580 c 0,22,23
 246 580 246 580 210 512.5 c 128,-1,24
 174 445 174 445 174 320 c 0,25,26
 174 38 174 38 336 38 c 0,27,28
 358 38 358 38 386.5 46.5 c 128,-1,29
 415 55 415 55 423 55 c 0,30,31
 451 55 451 55 451 15 c 0,32,33
 451 -15 451 -15 420 -32.5 c 128,-1,34
 389 -50 389 -50 335 -50 c 0,35,36
 205 -50 205 -50 136 42 c 128,-1,37
 67 134 67 134 67 313 c 0,38,39
 67 484 67 484 133 576 c 128,-1,40
 199 668 199 668 314 668 c 0,41,42
 411 668 411 668 454.5 611 c 128,-1,43
 498 554 498 554 498 433 c 2,44,-1
 498 250 l 1,45,46
 523 225 523 225 523 203 c 0,47,48
 523 185 523 185 509 172.5 c 128,-1,49
 495 160 495 160 474 160 c 0,50,51
 455 160 455 160 410 184 c 1,10,11
EndSplineSet
EndChar
StartChar: A
Encoding: 65 65 36
Width: 602
Flags: W
LayerCount: 2
Back
Fore
SplineSet
165 107 m 1,0,-1
 182 107 l 2,1,2
 214 107 214 107 229 95.5 c 128,-1,3
 244 84 244 84 244 54 c 128,-1,4
 244 24 244 24 229 12 c 128,-1,5
 214 0 214 0 182 0 c 2,6,-1
 56 0 l 2,7,8
 24 0 24 0 9 12 c 128,-1,9
 -6 24 -6 24 -6 54 c 0,10,11
 -6 107 -6 107 48 107 c 2,12,-1
 56 107 l 1,13,-1
 187 471 l 1,14,-1
 147 471 l 2,15,16
 115 471 115 471 100.5 483 c 128,-1,17
 86 495 86 495 86 525 c 0,18,19
 86 554 86 554 101 566.5 c 128,-1,20
 116 579 116 579 148 579 c 2,21,-1
 331 579 l 2,22,23
 362 579 362 579 371.5 570 c 128,-1,24
 381 561 381 561 392 531 c 2,25,-1
 547 107 l 1,26,-1
 555 107 l 2,27,28
 609 107 609 107 609 54 c 0,29,30
 609 24 609 24 594 12 c 128,-1,31
 579 0 579 0 547 0 c 2,32,-1
 400 0 l 2,33,34
 368 0 368 0 353 12 c 128,-1,35
 338 24 338 24 338 54 c 128,-1,36
 338 84 338 84 353 95.5 c 128,-1,37
 368 107 368 107 400 107 c 2,38,-1
 417 107 l 1,39,-1
 397 164 l 1,40,-1
 186 164 l 1,41,-1
 165 107 l 1,0,-1
220 265 m 1,42,-1
 362 265 l 1,43,-1
 291 471 l 1,44,-1
 220 265 l 1,42,-1
EndSplineSet
EndChar
StartChar: B
Encoding: 66 66 37
Width: 602
Flags: W
LayerCount: 2
Back
Fore
SplineSet
309 0 m 1,0,-1
 95 0 l 2,1,2
 63 0 63 0 48.5 12.5 c 128,-1,3
 34 25 34 25 34 54 c 0,4,5
 34 107 34 107 87 107 c 2,6,-1
 95 107 l 1,7,-1
 95 471 l 1,8,9
 95 471 95 471 87 471 c 0,10,11
 34 471 34 471 34 525 c 0,12,13
 34 554 34 554 48.5 566.5 c 128,-1,14
 63 579 63 579 95 579 c 2,15,-1
 320 579 l 2,16,17
 424 579 424 579 477 538.5 c 128,-1,18
 530 498 530 498 530 422 c 0,19,20
 530 345 530 345 465 307 c 1,21,22
 568 269 568 269 568 167 c 0,23,24
 568 87 568 87 505 39 c 0,25,26
 472 14 472 14 435 7 c 128,-1,27
 398 0 398 0 343 0 c 2,28,-1
 309 0 l 1,0,-1
216 351 m 1,29,-1
 281 351 l 2,30,31
 339 351 339 351 365 364.5 c 128,-1,32
 391 378 391 378 391 413 c 0,33,34
 391 446 391 446 368.5 460 c 128,-1,35
 346 474 346 474 297 474 c 2,36,-1
 216 474 l 1,37,-1
 216 351 l 1,29,-1
216 104 m 1,38,-1
 289 104 l 2,39,40
 363 104 363 104 396.5 120 c 128,-1,41
 430 136 430 136 430 178 c 0,42,43
 430 222 430 222 398 237.5 c 128,-1,44
 366 253 366 253 294 253 c 2,45,-1
 216 253 l 1,46,-1
 216 104 l 1,38,-1
EndSplineSet
EndChar
StartChar: C
Encoding: 67 67 38
Width: 602
Flags: W
LayerCount: 2
Back
Fore
SplineSet
454 563 m 1,0,1
 471 594 471 594 500 594 c 0,2,3
 524 594 524 594 534 582 c 128,-1,4
 544 570 544 570 544 539 c 2,5,-1
 545 412 l 2,6,7
 545 380 545 380 534.5 367.5 c 128,-1,8
 524 355 524 355 494 355 c 0,9,10
 472 355 472 355 461.5 365.5 c 128,-1,11
 451 376 451 376 444 401 c 0,12,13
 431 446 431 446 404.5 467 c 128,-1,14
 378 488 378 488 326 488 c 0,15,16
 251 488 251 488 211 437.5 c 128,-1,17
 171 387 171 387 171 290 c 0,18,19
 171 194 171 194 211.5 143 c 128,-1,20
 252 92 252 92 327 92 c 0,21,22
 367 92 367 92 405 109 c 128,-1,23
 443 126 443 126 472 143 c 128,-1,24
 501 160 501 160 518 160 c 0,25,26
 537 160 537 160 550 144 c 128,-1,27
 563 128 563 128 563 104 c 0,28,29
 563 63 563 63 488.5 23.5 c 128,-1,30
 414 -16 414 -16 317 -16 c 0,31,32
 189 -16 189 -16 110 69 c 128,-1,33
 31 154 31 154 31 290 c 0,34,35
 31 420 31 420 110.5 507.5 c 128,-1,36
 190 595 190 595 314 595 c 0,37,38
 381 595 381 595 454 563 c 1,0,1
EndSplineSet
EndChar
StartChar: D
Encoding: 68 68 39
Width: 602
Flags: W
LayerCount: 2
Back
Fore
SplineSet
221 108 m 1,0,1
 231 107 231 107 249 107 c 0,2,3
 341 107 341 107 384.5 152 c 128,-1,4
 428 197 428 197 428 291 c 0,5,6
 428 474 428 474 250 474 c 0,7,8
 231 474 231 474 221 473 c 1,9,-1
 221 108 l 1,0,1
95 0 m 2,10,11
 63 0 63 0 48 12 c 128,-1,12
 33 24 33 24 33 54 c 0,13,14
 33 107 33 107 87 107 c 2,15,-1
 95 107 l 1,16,-1
 95 471 l 1,17,-1
 87 471 l 2,18,19
 33 471 33 471 33 525 c 0,20,21
 33 554 33 554 48 566.5 c 128,-1,22
 63 579 63 579 95 579 c 2,23,-1
 187 579 l 1,24,-1
 216 579 l 2,25,26
 301 579 301 579 353 572 c 128,-1,27
 405 565 405 565 446 541 c 0,28,29
 504 505 504 505 536 440.5 c 128,-1,30
 568 376 568 376 568 290 c 0,31,32
 568 200 568 200 532 132.5 c 128,-1,33
 496 65 496 65 430 30 c 0,34,35
 375 0 375 0 242 0 c 2,36,-1
 187 0 l 1,37,-1
 95 0 l 2,10,11
EndSplineSet
EndChar
StartChar: E
Encoding: 69 69 40
Width: 602
Flags: W
LayerCount: 2
Back
Fore
SplineSet
495 579 m 2,0,1
 525 579 525 579 535.5 569.5 c 128,-1,2
 546 560 546 560 546 534 c 2,3,-1
 546 425 l 2,4,5
 546 393 546 393 534.5 378 c 128,-1,6
 523 363 523 363 494 363 c 128,-1,7
 465 363 465 363 453 378 c 128,-1,8
 441 393 441 393 441 425 c 2,9,-1
 441 476 l 1,10,-1
 214 476 l 1,11,-1
 214 351 l 1,12,-1
 299 351 l 1,13,-1
 299 357 l 2,14,15
 299 412 299 412 349 412 c 0,16,17
 400 412 400 412 400 351 c 2,18,-1
 400 250 l 2,19,20
 400 218 400 218 388.5 203.5 c 128,-1,21
 377 189 377 189 350 189 c 0,22,23
 300 189 300 189 300 241 c 2,24,-1
 300 250 l 1,25,-1
 214 250 l 1,26,-1
 214 104 l 1,27,-1
 441 104 l 1,28,-1
 441 162 l 2,29,30
 441 194 441 194 453 208.5 c 128,-1,31
 465 223 465 223 494 223 c 128,-1,32
 523 223 523 223 534.5 208.5 c 128,-1,33
 546 194 546 194 546 162 c 2,34,-1
 546 44 l 2,35,36
 546 18 546 18 536 9 c 128,-1,37
 526 0 526 0 495 0 c 2,38,-1
 95 0 l 2,39,40
 64 0 64 0 49.5 12.5 c 128,-1,41
 35 25 35 25 35 54 c 0,42,43
 35 107 35 107 87 107 c 2,44,-1
 95 107 l 1,45,-1
 95 471 l 1,46,-1
 88 471 l 2,47,48
 35 471 35 471 35 525 c 128,-1,49
 35 579 35 579 95 579 c 2,50,-1
 495 579 l 2,0,1
EndSplineSet
EndChar
StartChar: F
Encoding: 70 70 41
Width: 602
Flags: W
LayerCount: 2
Back
Fore
SplineSet
500 579 m 2,0,1
 530 579 530 579 540.5 569.5 c 128,-1,2
 551 560 551 560 551 534 c 2,3,-1
 551 425 l 2,4,5
 551 393 551 393 539 378 c 128,-1,6
 527 363 527 363 498 363 c 128,-1,7
 469 363 469 363 457.5 378 c 128,-1,8
 446 393 446 393 446 425 c 2,9,-1
 446 476 l 1,10,-1
 219 476 l 1,11,-1
 219 351 l 1,12,-1
 304 351 l 1,13,-1
 304 357 l 2,14,15
 304 412 304 412 354 412 c 0,16,17
 381 412 381 412 392.5 397.5 c 128,-1,18
 404 383 404 383 404 351 c 2,19,-1
 404 250 l 2,20,21
 404 218 404 218 392.5 203.5 c 128,-1,22
 381 189 381 189 354 189 c 0,23,24
 304 189 304 189 304 241 c 2,25,-1
 304 250 l 1,26,-1
 219 250 l 1,27,-1
 219 107 l 1,28,-1
 246 107 l 2,29,30
 277 107 277 107 291.5 95 c 128,-1,31
 306 83 306 83 306 54 c 128,-1,32
 306 25 306 25 291.5 12.5 c 128,-1,33
 277 0 277 0 246 0 c 2,34,-1
 100 0 l 2,35,36
 69 0 69 0 54.5 12.5 c 128,-1,37
 40 25 40 25 40 54 c 0,38,39
 40 107 40 107 92 107 c 2,40,-1
 100 107 l 1,41,-1
 100 471 l 1,42,-1
 93 471 l 2,43,44
 40 471 40 471 40 525 c 128,-1,45
 40 579 40 579 100 579 c 2,46,-1
 500 579 l 2,0,1
EndSplineSet
EndChar
StartChar: G
Encoding: 71 71 42
Width: 602
Flags: W
LayerCount: 2
Back
Fore
SplineSet
449 563 m 1,0,1
 466 594 466 594 494 594 c 0,2,3
 518 594 518 594 528.5 582 c 128,-1,4
 539 570 539 570 539 539 c 2,5,-1
 540 412 l 2,6,7
 540 380 540 380 529.5 367.5 c 128,-1,8
 519 355 519 355 489 355 c 0,9,10
 467 355 467 355 456 366 c 128,-1,11
 445 377 445 377 438 401 c 0,12,13
 425 446 425 446 399 467 c 128,-1,14
 373 488 373 488 321 488 c 0,15,16
 246 488 246 488 206 437.5 c 128,-1,17
 166 387 166 387 166 290 c 128,-1,18
 166 193 166 193 208 141 c 128,-1,19
 250 89 250 89 326 89 c 0,20,21
 362 89 362 89 419 106 c 1,22,-1
 419 182 l 1,23,-1
 364 182 l 2,24,25
 332 182 332 182 317.5 194 c 128,-1,26
 303 206 303 206 303 236 c 128,-1,27
 303 266 303 266 317.5 278 c 128,-1,28
 332 290 332 290 364 290 c 2,29,-1
 540 290 l 2,30,31
 572 290 572 290 587 278.5 c 128,-1,32
 602 267 602 267 602 237 c 0,33,34
 602 183 602 183 548 183 c 2,35,-1
 540 183 l 1,36,-1
 540 67 l 1,37,-1
 540 61 l 2,38,39
 540 47 540 47 537 40.5 c 128,-1,40
 534 34 534 34 523 27 c 0,41,42
 498 12 498 12 439 -1.5 c 128,-1,43
 380 -15 380 -15 312 -15 c 0,44,45
 183 -15 183 -15 104 70 c 128,-1,46
 25 155 25 155 25 290 c 0,47,48
 25 420 25 420 105 507.5 c 128,-1,49
 185 595 185 595 309 595 c 0,50,51
 376 595 376 595 449 563 c 1,0,1
EndSplineSet
EndChar
StartChar: H
Encoding: 72 72 43
Width: 602
Flags: W
LayerCount: 2
Back
Fore
SplineSet
381 359 m 1,0,-1
 381 471 l 1,1,2
 381 471 381 471 373 471 c 0,3,4
 319 471 319 471 319 525 c 0,5,6
 319 554 319 554 334 566.5 c 128,-1,7
 349 579 349 579 381 579 c 2,8,-1
 507 579 l 2,9,10
 539 579 539 579 553 567 c 128,-1,11
 567 555 567 555 567 525 c 0,12,13
 567 471 567 471 515 471 c 2,14,-1
 507 471 l 1,15,-1
 507 107 l 1,16,-1
 515 107 l 2,17,18
 567 107 567 107 567 54 c 0,19,20
 567 24 567 24 553 12 c 128,-1,21
 539 0 539 0 507 0 c 2,22,-1
 381 0 l 2,23,24
 349 0 349 0 334 12 c 128,-1,25
 319 24 319 24 319 54 c 0,26,27
 319 107 319 107 373 107 c 2,28,-1
 381 107 l 1,29,-1
 381 251 l 1,30,-1
 221 251 l 1,31,-1
 221 107 l 1,32,-1
 229 107 l 2,33,34
 283 107 283 107 283 54 c 0,35,36
 283 24 283 24 268 12 c 128,-1,37
 253 0 253 0 221 0 c 2,38,-1
 95 0 l 2,39,40
 63 0 63 0 48.5 12 c 128,-1,41
 34 24 34 24 34 54 c 0,42,43
 34 107 34 107 87 107 c 2,44,-1
 95 107 l 1,45,-1
 95 471 l 1,46,-1
 87 471 l 2,47,48
 34 471 34 471 34 525 c 0,49,50
 34 554 34 554 48.5 566.5 c 128,-1,51
 63 579 63 579 95 579 c 2,52,-1
 221 579 l 2,53,54
 253 579 253 579 268 566.5 c 128,-1,55
 283 554 283 554 283 525 c 0,56,57
 283 471 283 471 229 471 c 2,58,-1
 221 471 l 1,59,-1
 221 359 l 1,60,-1
 381 359 l 1,0,-1
EndSplineSet
EndChar
StartChar: I
Encoding: 73 73 44
Width: 602
Flags: W
LayerCount: 2
Back
Fore
SplineSet
446 578 m 2,0,1
 478 578 478 578 493 566.5 c 128,-1,2
 508 555 508 555 508 525 c 128,-1,3
 508 495 508 495 493 483 c 128,-1,4
 478 471 478 471 446 471 c 2,5,-1
 364 471 l 1,6,-1
 364 107 l 1,7,-1
 446 107 l 2,8,9
 478 107 478 107 492.5 95.5 c 128,-1,10
 507 84 507 84 507 54 c 0,11,12
 507 0 507 0 446 0 c 2,13,-1
 156 0 l 2,14,15
 124 0 124 0 109 12 c 128,-1,16
 94 24 94 24 94 54 c 128,-1,17
 94 84 94 84 109 95.5 c 128,-1,18
 124 107 124 107 156 107 c 2,19,-1
 238 107 l 1,20,-1
 238 471 l 1,21,-1
 156 471 l 2,22,23
 124 471 124 471 109 483 c 128,-1,24
 94 495 94 495 94 525 c 128,-1,25
 94 555 94 555 109 566.5 c 128,-1,26
 124 578 124 578 156 578 c 2,27,-1
 446 578 l 2,0,1
EndSplineSet
EndChar
StartChar: J
Encoding: 74 74 45
Width: 602
Flags: W
LayerCount: 2
Back
Fore
SplineSet
518 578 m 2,0,1
 550 578 550 578 565 566.5 c 128,-1,2
 580 555 580 555 580 525 c 128,-1,3
 580 495 580 495 565 483.5 c 128,-1,4
 550 472 550 472 518 472 c 2,5,-1
 477 472 l 1,6,-1
 477 201 l 1,7,-1
 477 192 l 2,8,9
 477 155 477 155 475.5 135 c 128,-1,10
 474 115 474 115 465.5 89.5 c 128,-1,11
 457 64 457 64 440 45 c 0,12,13
 388 -15 388 -15 257 -15 c 0,14,15
 163 -15 163 -15 89 20 c 0,16,17
 69 29 69 29 61 44.5 c 128,-1,18
 53 60 53 60 53 96 c 2,19,-1
 53 197 l 2,20,21
 53 237 53 237 65.5 254.5 c 128,-1,22
 78 272 78 272 109 272 c 0,23,24
 121 272 121 272 129.5 268.5 c 128,-1,25
 138 265 138 265 142.5 261 c 128,-1,26
 147 257 147 257 150 247 c 128,-1,27
 153 237 153 237 154 231.5 c 128,-1,28
 155 226 155 226 156 211.5 c 128,-1,29
 157 197 157 197 158 191 c 0,30,31
 164 138 164 138 182.5 115.5 c 128,-1,32
 201 93 201 93 250 93 c 0,33,34
 308 93 308 93 329 124.5 c 128,-1,35
 350 156 350 156 350 230 c 2,36,-1
 350 471 l 1,37,-1
 269 471 l 2,38,39
 237 471 237 471 222 483 c 128,-1,40
 207 495 207 495 207 525 c 128,-1,41
 207 555 207 555 222 566.5 c 128,-1,42
 237 578 237 578 269 578 c 2,43,-1
 518 578 l 2,0,1
EndSplineSet
EndChar
StartChar: K
Encoding: 75 75 46
Width: 602
Flags: W
LayerCount: 2
Back
Fore
SplineSet
372 474 m 1,0,1
 347 477 347 477 336.5 488.5 c 128,-1,2
 326 500 326 500 326 525 c 0,3,4
 326 554 326 554 340.5 566.5 c 128,-1,5
 355 579 355 579 387 579 c 2,6,-1
 507 579 l 2,7,8
 539 579 539 579 553.5 566.5 c 128,-1,9
 568 554 568 554 568 525 c 0,10,11
 568 470 568 470 513 470 c 0,12,13
 512 470 512 470 508 470.5 c 128,-1,14
 504 471 504 471 502 471 c 2,15,-1
 359 330 l 1,16,17
 404 297 404 297 437 245 c 128,-1,18
 470 193 470 193 509 107 c 1,19,20
 515 108 515 108 525 108 c 0,21,22
 581 108 581 108 581 54 c 0,23,24
 581 24 581 24 566.5 12 c 128,-1,25
 552 0 552 0 520 0 c 2,26,-1
 460 0 l 2,27,28
 450 0 450 0 443 1 c 128,-1,29
 436 2 436 2 430 5.5 c 128,-1,30
 424 9 424 9 420.5 11 c 128,-1,31
 417 13 417 13 412 21.5 c 128,-1,32
 407 30 407 30 405.5 33.5 c 128,-1,33
 404 37 404 37 397.5 50.5 c 128,-1,34
 391 64 391 64 389 69 c 0,35,36
 336 184 336 184 267 242 c 1,37,-1
 221 198 l 1,38,-1
 221 107 l 1,39,-1
 229 107 l 2,40,41
 283 107 283 107 283 54 c 0,42,43
 283 24 283 24 268 12 c 128,-1,44
 253 0 253 0 221 0 c 2,45,-1
 95 0 l 2,46,47
 63 0 63 0 48 12 c 128,-1,48
 33 24 33 24 33 54 c 0,49,50
 33 107 33 107 87 107 c 2,51,-1
 95 107 l 1,52,-1
 95 471 l 1,53,-1
 87 471 l 2,54,55
 34 471 34 471 34 525 c 0,56,57
 34 554 34 554 48.5 566.5 c 128,-1,58
 63 579 63 579 95 579 c 2,59,-1
 221 579 l 2,60,61
 253 579 253 579 268 566.5 c 128,-1,62
 283 554 283 554 283 525 c 0,63,64
 283 471 283 471 229 471 c 2,65,-1
 221 471 l 1,66,-1
 221 323 l 1,67,-1
 372 474 l 1,0,1
EndSplineSet
EndChar
StartChar: L
Encoding: 76 76 47
Width: 602
Flags: W
LayerCount: 2
Back
Fore
SplineSet
81 0 m 2,0,1
 50 0 50 0 36 12.5 c 128,-1,2
 22 25 22 25 22 54 c 128,-1,3
 22 83 22 83 36 95 c 128,-1,4
 50 107 50 107 81 107 c 2,5,-1
 124 107 l 1,6,-1
 124 471 l 1,7,-1
 81 471 l 2,8,9
 50 471 50 471 36 483.5 c 128,-1,10
 22 496 22 496 22 525 c 128,-1,11
 22 554 22 554 36 566.5 c 128,-1,12
 50 579 50 579 81 579 c 2,13,-1
 290 579 l 2,14,15
 350 579 350 579 350 525 c 0,16,17
 350 496 350 496 335.5 483.5 c 128,-1,18
 321 471 321 471 290 471 c 2,19,-1
 247 471 l 1,20,-1
 247 107 l 1,21,-1
 469 107 l 1,22,-1
 469 194 l 2,23,24
 469 226 469 226 481 241 c 128,-1,25
 493 256 493 256 522 256 c 128,-1,26
 551 256 551 256 563 241 c 128,-1,27
 575 226 575 226 575 194 c 2,28,-1
 575 44 l 2,29,30
 575 18 575 18 565 9 c 128,-1,31
 555 0 555 0 524 0 c 2,32,-1
 81 0 l 2,0,1
EndSplineSet
EndChar
StartChar: M
Encoding: 77 77 48
Width: 602
Flags: W
LayerCount: 2
Back
Fore
SplineSet
395 527 m 2,0,1
 413 579 413 579 461 579 c 2,2,-1
 537 579 l 2,3,4
 569 579 569 579 584 566.5 c 128,-1,5
 599 554 599 554 599 525 c 0,6,7
 599 471 599 471 545 471 c 2,8,-1
 537 471 l 1,9,-1
 551 107 l 1,10,11
 551 107 551 107 559 107 c 0,12,13
 612 107 612 107 612 54 c 0,14,15
 612 24 612 24 597.5 12 c 128,-1,16
 583 0 583 0 551 0 c 2,17,-1
 441 0 l 2,18,19
 409 0 409 0 394.5 12 c 128,-1,20
 380 24 380 24 380 54 c 0,21,22
 380 107 380 107 433 107 c 2,23,-1
 441 107 l 1,24,-1
 434 405 l 1,25,-1
 362 183 l 2,26,27
 347 136 347 136 300 136 c 128,-1,28
 253 136 253 136 238 183 c 2,29,-1
 167 405 l 1,30,-1
 160 107 l 1,31,32
 160 107 160 107 168 107 c 0,33,34
 221 107 221 107 221 54 c 0,35,36
 221 24 221 24 206.5 12 c 128,-1,37
 192 0 192 0 160 0 c 2,38,-1
 50 0 l 2,39,40
 18 0 18 0 3.5 12 c 128,-1,41
 -11 24 -11 24 -11 54 c 0,42,43
 -11 107 -11 107 42 107 c 2,44,-1
 50 107 l 1,45,-1
 64 471 l 1,46,-1
 56 471 l 2,47,48
 2 471 2 471 2 525 c 0,49,50
 2 554 2 554 17 566.5 c 128,-1,51
 32 579 32 579 64 579 c 2,52,-1
 140 579 l 2,53,54
 188 579 188 579 206 527 c 2,55,-1
 302 250 l 1,56,-1
 395 527 l 2,0,1
EndSplineSet
EndChar
StartChar: N
Encoding: 78 78 49
Width: 602
Flags: W
LayerCount: 2
Back
Fore
SplineSet
414 202 m 1,0,-1
 414 471 l 1,1,-1
 387 471 l 2,2,3
 356 471 356 471 341.5 483.5 c 128,-1,4
 327 496 327 496 327 525 c 128,-1,5
 327 554 327 554 341.5 566.5 c 128,-1,6
 356 579 356 579 387 579 c 2,7,-1
 526 579 l 2,8,9
 557 579 557 579 571.5 566.5 c 128,-1,10
 586 554 586 554 586 525 c 0,11,12
 586 471 586 471 533 471 c 2,13,-1
 526 471 l 1,14,-1
 526 28 l 2,15,16
 526 6 526 6 521.5 -0.5 c 128,-1,17
 517 -7 517 -7 499 -7 c 2,18,-1
 450 -7 l 2,19,20
 430 -7 430 -7 419.5 -3 c 128,-1,21
 409 1 409 1 401 15 c 2,22,-1
 198 372 l 1,23,-1
 198 107 l 1,24,-1
 225 107 l 2,25,26
 256 107 256 107 270.5 95 c 128,-1,27
 285 83 285 83 285 54 c 128,-1,28
 285 25 285 25 270.5 12.5 c 128,-1,29
 256 0 256 0 225 0 c 2,30,-1
 86 0 l 2,31,32
 55 0 55 0 40.5 12.5 c 128,-1,33
 26 25 26 25 26 54 c 0,34,35
 26 107 26 107 78 107 c 2,36,-1
 86 107 l 1,37,-1
 86 471 l 1,38,-1
 79 471 l 2,39,40
 26 471 26 471 26 525 c 128,-1,41
 26 579 26 579 86 579 c 2,42,-1
 166 579 l 1,43,-1
 170 579 l 2,44,45
 193 579 193 579 203.5 573 c 128,-1,46
 214 567 214 567 228 541 c 2,47,-1
 414 202 l 1,0,-1
EndSplineSet
EndChar
StartChar: O
Encoding: 79 79 50
Width: 602
Flags: W
LayerCount: 2
Back
Fore
SplineSet
301 97 m 0,0,1
 363 97 363 97 399.5 147.5 c 128,-1,2
 436 198 436 198 436 290 c 128,-1,3
 436 382 436 382 399.5 432 c 128,-1,4
 363 482 363 482 301 482 c 128,-1,5
 239 482 239 482 202.5 432 c 128,-1,6
 166 382 166 382 166 290 c 0,7,8
 166 199 166 199 203 148 c 128,-1,9
 240 97 240 97 301 97 c 0,0,1
576 290 m 0,10,11
 576 156 576 156 498.5 70.5 c 128,-1,12
 421 -15 421 -15 301 -15 c 0,13,14
 182 -15 182 -15 103.5 71 c 128,-1,15
 25 157 25 157 25 290 c 0,16,17
 25 424 25 424 102.5 509.5 c 128,-1,18
 180 595 180 595 301 595 c 0,19,20
 421 595 421 595 498.5 509 c 128,-1,21
 576 423 576 423 576 290 c 0,10,11
EndSplineSet
EndChar
StartChar: P
Encoding: 80 80 51
Width: 602
Flags: W
LayerCount: 2
Back
Fore
SplineSet
235 467 m 1,0,-1
 235 317 l 1,1,-1
 304 317 l 2,2,3
 420 317 420 317 420 393 c 0,4,5
 420 467 420 467 304 467 c 2,6,-1
 235 467 l 1,0,-1
318 579 m 2,7,8
 560 579 560 579 560 398 c 0,9,10
 560 207 560 207 318 207 c 2,11,-1
 235 207 l 1,12,-1
 235 107 l 1,13,-1
 284 107 l 2,14,15
 315 107 315 107 329.5 95 c 128,-1,16
 344 83 344 83 344 54 c 128,-1,17
 344 25 344 25 329.5 12.5 c 128,-1,18
 315 0 315 0 284 0 c 2,19,-1
 116 0 l 2,20,21
 85 0 85 0 70.5 12.5 c 128,-1,22
 56 25 56 25 56 54 c 0,23,24
 56 107 56 107 108 107 c 2,25,-1
 116 107 l 1,26,-1
 116 471 l 1,27,-1
 109 471 l 2,28,29
 56 471 56 471 56 525 c 128,-1,30
 56 579 56 579 116 579 c 2,31,-1
 318 579 l 2,7,8
EndSplineSet
EndChar
StartChar: Q
Encoding: 81 81 52
Width: 602
Flags: W
LayerCount: 2
Back
Fore
SplineSet
301 97 m 0,0,1
 363 97 363 97 399.5 147.5 c 128,-1,2
 436 198 436 198 436 290 c 128,-1,3
 436 382 436 382 399.5 432 c 128,-1,4
 363 482 363 482 301 482 c 128,-1,5
 239 482 239 482 202.5 432 c 128,-1,6
 166 382 166 382 166 290 c 0,7,8
 166 199 166 199 203 148 c 128,-1,9
 240 97 240 97 301 97 c 0,0,1
203 9 m 1,10,11
 122 38 122 38 73.5 115.5 c 128,-1,12
 25 193 25 193 25 294 c 0,13,14
 25 426 25 426 102 510.5 c 128,-1,15
 179 595 179 595 301 595 c 0,16,17
 422 595 422 595 499 510.5 c 128,-1,18
 576 426 576 426 576 294 c 128,-1,19
 576 162 576 162 499 76.5 c 128,-1,20
 422 -9 422 -9 305 -9 c 0,21,22
 289 -9 289 -9 272 -8 c 1,23,-1
 235 -46 l 1,24,25
 277 -32 277 -32 316 -32 c 0,26,27
 354 -32 354 -32 397 -43.5 c 128,-1,28
 440 -55 440 -55 449 -55 c 0,29,30
 465 -55 465 -55 490 -44.5 c 128,-1,31
 515 -34 515 -34 524 -34 c 0,32,33
 542 -34 542 -34 554 -48 c 128,-1,34
 566 -62 566 -62 566 -83 c 0,35,36
 566 -110 566 -110 533.5 -130 c 128,-1,37
 501 -150 501 -150 452 -150 c 0,38,39
 419 -150 419 -150 368 -134.5 c 128,-1,40
 317 -119 317 -119 294 -119 c 0,41,42
 260 -119 260 -119 216 -138 c 128,-1,43
 172 -157 172 -157 162 -157 c 0,44,45
 141 -157 141 -157 126.5 -143.5 c 128,-1,46
 112 -130 112 -130 112 -110 c 0,47,48
 112 -85 112 -85 154 -41 c 2,49,-1
 203 9 l 1,10,11
EndSplineSet
EndChar
StartChar: R
Encoding: 82 82 53
Width: 602
Flags: W
LayerCount: 2
Back
Fore
SplineSet
222 336 m 1,0,-1
 288 336 l 2,1,2
 346 336 346 336 371.5 351 c 128,-1,3
 397 366 397 366 397 405 c 0,4,5
 397 442 397 442 375 458 c 128,-1,6
 353 474 353 474 304 474 c 2,7,-1
 222 474 l 1,8,-1
 222 336 l 1,0,-1
308 214 m 2,9,10
 294 236 294 236 274 236 c 2,11,-1
 228 236 l 1,12,-1
 228 107 l 1,13,-1
 236 107 l 2,14,15
 289 107 289 107 289 54 c 0,16,17
 289 24 289 24 274.5 12 c 128,-1,18
 260 0 260 0 228 0 c 2,19,-1
 102 0 l 2,20,21
 70 0 70 0 55.5 12.5 c 128,-1,22
 41 25 41 25 41 54 c 0,23,24
 41 107 41 107 94 107 c 2,25,-1
 102 107 l 1,26,-1
 102 471 l 1,27,-1
 94 471 l 2,28,29
 41 471 41 471 41 525 c 0,30,31
 41 554 41 554 55.5 566.5 c 128,-1,32
 70 579 70 579 102 579 c 2,33,-1
 327 579 l 2,34,35
 537 579 537 579 537 420 c 0,36,37
 537 306 537 306 423 266 c 1,38,39
 433 260 433 260 451 233 c 2,40,-1
 531 107 l 1,41,42
 536 108 536 108 546 108 c 0,43,44
 603 108 603 108 603 54 c 0,45,46
 603 24 603 24 588 12 c 128,-1,47
 573 0 573 0 541 0 c 2,48,-1
 481 0 l 2,49,50
 458 0 458 0 448.5 6.5 c 128,-1,51
 439 13 439 13 428 30 c 2,52,-1
 308 214 l 2,9,10
EndSplineSet
EndChar
StartChar: S
Encoding: 83 83 54
Width: 602
Flags: W
LayerCount: 2
Back
Fore
SplineSet
161 9 m 1,0,1
 147 -15 147 -15 115 -15 c 0,2,3
 85 -15 85 -15 72.5 -3.5 c 128,-1,4
 60 8 60 8 59 38 c 2,5,-1
 56 153 l 1,6,-1
 56 158 l 2,7,8
 56 190 56 190 68 203 c 128,-1,9
 80 216 80 216 111 216 c 0,10,11
 122 216 122 216 130 213.5 c 128,-1,12
 138 211 138 211 144 203.5 c 128,-1,13
 150 196 150 196 153 191 c 128,-1,14
 156 186 156 186 162.5 172.5 c 128,-1,15
 169 159 169 159 172 153 c 0,16,17
 210 78 210 78 308 78 c 0,18,19
 353 78 353 78 378 96.5 c 128,-1,20
 403 115 403 115 403 149 c 0,21,22
 403 162 403 162 400 172 c 128,-1,23
 397 182 397 182 389 189.5 c 128,-1,24
 381 197 381 197 373 202 c 128,-1,25
 365 207 365 207 348 212.5 c 128,-1,26
 331 218 331 218 318.5 221 c 128,-1,27
 306 224 306 224 280.5 230 c 128,-1,28
 255 236 255 236 237 241 c 0,29,30
 149 264 149 264 109 299.5 c 128,-1,31
 69 335 69 335 69 406 c 0,32,33
 69 489 69 489 131.5 542 c 128,-1,34
 194 595 194 595 294 595 c 0,35,36
 359 595 359 595 422 568 c 1,37,38
 430 585 430 585 440 590 c 128,-1,39
 450 595 450 595 472 595 c 0,40,41
 496 595 496 595 504 584.5 c 128,-1,42
 512 574 512 574 513 543 c 2,43,-1
 515 449 l 1,44,-1
 515 444 l 2,45,46
 515 416 515 416 504 404 c 128,-1,47
 493 392 493 392 465 392 c 0,48,49
 455 392 455 392 447.5 394 c 128,-1,50
 440 396 440 396 435.5 398 c 128,-1,51
 431 400 431 400 426.5 406 c 128,-1,52
 422 412 422 412 420 415 c 128,-1,53
 418 418 418 418 414 426.5 c 128,-1,54
 410 435 410 435 409 438 c 0,55,56
 378 499 378 499 307 499 c 0,57,58
 262 499 262 499 235.5 478.5 c 128,-1,59
 209 458 209 458 209 427 c 128,-1,60
 209 396 209 396 236.5 383 c 128,-1,61
 264 370 264 370 335 356 c 0,62,63
 355 352 355 352 366 350 c 0,64,65
 457 331 457 331 500.5 288.5 c 128,-1,66
 544 246 544 246 544 172 c 0,67,68
 544 82 544 82 483 33.5 c 128,-1,69
 422 -15 422 -15 308 -15 c 0,70,71
 225 -15 225 -15 161 9 c 1,0,1
EndSplineSet
EndChar
StartChar: T
Encoding: 84 84 55
Width: 602
Flags: W
LayerCount: 2
Back
Fore
SplineSet
156 0 m 2,0,1
 94 0 94 0 94 54 c 0,2,3
 94 84 94 84 109 96 c 128,-1,4
 124 108 124 108 156 108 c 2,5,-1
 238 108 l 1,6,-1
 238 472 l 1,7,-1
 136 472 l 1,8,-1
 133 373 l 1,9,-1
 133 361 l 2,10,11
 133 338 133 338 120 324.5 c 128,-1,12
 107 311 107 311 84 311 c 0,13,14
 31 311 31 311 31 369 c 2,15,-1
 31 373 l 1,16,-1
 36 519 l 2,17,18
 38 558 38 558 46.5 569 c 128,-1,19
 55 580 55 580 91 580 c 2,20,-1
 511 580 l 2,21,22
 547 580 547 580 555.5 569 c 128,-1,23
 564 558 564 558 566 519 c 2,24,-1
 571 373 l 1,25,-1
 571 369 l 2,26,27
 571 339 571 339 559 325 c 128,-1,28
 547 311 547 311 519 311 c 0,29,30
 498 311 498 311 484 323.5 c 128,-1,31
 470 336 470 336 470 352 c 2,32,-1
 470 359 l 2,33,34
 469 366 469 366 469 373 c 2,35,-1
 466 472 l 1,36,-1
 364 472 l 1,37,-1
 364 108 l 1,38,-1
 446 108 l 2,39,40
 478 108 478 108 492.5 96 c 128,-1,41
 507 84 507 84 507 54 c 0,42,43
 507 0 507 0 446 0 c 2,44,-1
 156 0 l 2,0,1
EndSplineSet
EndChar
StartChar: U
Encoding: 85 85 56
Width: 602
Flags: W
LayerCount: 2
Back
Fore
SplineSet
74 471 m 1,0,1
 74 471 74 471 66 471 c 0,2,3
 12 471 12 471 12 525 c 0,4,5
 12 554 12 554 27 566.5 c 128,-1,6
 42 579 42 579 74 579 c 2,7,-1
 200 579 l 2,8,9
 232 579 232 579 247 566.5 c 128,-1,10
 262 554 262 554 262 525 c 0,11,12
 262 471 262 471 208 471 c 2,13,-1
 200 471 l 1,14,-1
 200 216 l 2,15,16
 200 150 200 150 223 120.5 c 128,-1,17
 246 91 246 91 303 91 c 0,18,19
 359 91 359 91 382.5 120.5 c 128,-1,20
 406 150 406 150 406 216 c 2,21,-1
 406 471 l 1,22,-1
 398 471 l 2,23,24
 345 471 345 471 345 525 c 0,25,26
 345 554 345 554 359.5 566.5 c 128,-1,27
 374 579 374 579 406 579 c 2,28,-1
 528 579 l 2,29,30
 560 579 560 579 574.5 566.5 c 128,-1,31
 589 554 589 554 589 525 c 0,32,33
 589 471 589 471 536 471 c 2,34,-1
 528 471 l 1,35,-1
 528 218 l 2,36,37
 528 97 528 97 476 41 c 128,-1,38
 424 -15 424 -15 304 -15 c 0,39,40
 180 -15 180 -15 127 40 c 128,-1,41
 74 95 74 95 74 218 c 2,42,-1
 74 471 l 1,0,1
EndSplineSet
EndChar
StartChar: V
Encoding: 86 86 57
Width: 602
Flags: W
LayerCount: 2
Back
Fore
SplineSet
431 471 m 1,0,-1
 418 471 l 2,1,2
 387 471 387 471 372.5 483.5 c 128,-1,3
 358 496 358 496 358 525 c 0,4,5
 358 555 358 555 373 567 c 128,-1,6
 388 579 388 579 419 579 c 2,7,-1
 542 579 l 2,8,9
 574 579 574 579 588.5 567 c 128,-1,10
 603 555 603 555 603 525 c 0,11,12
 603 471 603 471 550 471 c 2,13,-1
 542 471 l 1,14,-1
 393 48 l 2,15,16
 383 18 383 18 373 9 c 128,-1,17
 363 0 363 0 333 0 c 2,18,-1
 273 0 l 2,19,20
 242 0 242 0 233 9 c 128,-1,21
 224 18 224 18 213 48 c 2,22,-1
 61 471 l 1,23,-1
 53 471 l 2,24,25
 2 471 2 471 2 525 c 0,26,27
 2 555 2 555 16 567 c 128,-1,28
 30 579 30 579 61 579 c 2,29,-1
 206 579 l 2,30,31
 237 579 237 579 251.5 566.5 c 128,-1,32
 266 554 266 554 266 525 c 128,-1,33
 266 496 266 496 251.5 483.5 c 128,-1,34
 237 471 237 471 206 471 c 2,35,-1
 193 471 l 1,36,-1
 310 125 l 1,37,-1
 431 471 l 1,0,-1
EndSplineSet
EndChar
StartChar: W
Encoding: 87 87 58
Width: 602
Flags: W
LayerCount: 2
Back
Fore
SplineSet
299 337 m 1,0,-1
 213 47 l 2,1,2
 205 19 205 19 196 9.5 c 128,-1,3
 187 0 187 0 164 0 c 2,4,-1
 141 0 l 2,5,6
 116 0 116 0 108 7 c 128,-1,7
 100 14 100 14 97 41 c 2,8,-1
 50 471 l 1,9,-1
 42 471 l 2,10,11
 -11 471 -11 471 -11 525 c 0,12,13
 -11 555 -11 555 3.5 567 c 128,-1,14
 18 579 18 579 50 579 c 2,15,-1
 168 579 l 2,16,17
 200 579 200 579 214.5 567 c 128,-1,18
 229 555 229 555 229 525 c 0,19,20
 229 471 229 471 173 471 c 2,21,-1
 160 471 l 1,22,-1
 178 185 l 1,23,-1
 238 396 l 2,24,25
 251 443 251 443 300 443 c 0,26,27
 348 443 348 443 362 396 c 2,28,-1
 424 185 l 1,29,-1
 441 471 l 1,30,-1
 428 471 l 2,31,32
 372 471 372 471 372 525 c 0,33,34
 372 555 372 555 386.5 567 c 128,-1,35
 401 579 401 579 433 579 c 2,36,-1
 551 579 l 2,37,38
 583 579 583 579 597.5 567 c 128,-1,39
 612 555 612 555 612 525 c 0,40,41
 612 471 612 471 559 471 c 2,42,-1
 551 471 l 1,43,-1
 503 41 l 2,44,45
 500 13 500 13 492.5 6.5 c 128,-1,46
 485 0 485 0 460 0 c 2,47,-1
 437 0 l 2,48,49
 413 0 413 0 404.5 9.5 c 128,-1,50
 396 19 396 19 388 47 c 2,51,-1
 299 337 l 1,0,-1
EndSplineSet
EndChar
StartChar: X
Encoding: 88 88 59
Width: 602
Flags: W
LayerCount: 2
Back
Fore
SplineSet
505 108 m 2,0,1
 507 108 507 108 511 108.5 c 128,-1,2
 515 109 515 109 517 109 c 0,3,4
 573 109 573 109 573 54 c 0,5,6
 573 25 573 25 558 12.5 c 128,-1,7
 543 0 543 0 511 0 c 2,8,-1
 380 0 l 2,9,10
 348 0 348 0 333 12.5 c 128,-1,11
 318 25 318 25 318 54 c 0,12,13
 318 105 318 105 370 108 c 1,14,-1
 295 217 l 1,15,-1
 218 108 l 1,16,17
 273 107 273 107 273 54 c 0,18,19
 273 25 273 25 258 12.5 c 128,-1,20
 243 0 243 0 211 0 c 2,21,-1
 97 0 l 2,22,23
 65 0 65 0 50.5 12.5 c 128,-1,24
 36 25 36 25 36 54 c 0,25,26
 36 109 36 109 91 109 c 0,27,28
 93 109 93 109 97 108.5 c 128,-1,29
 101 108 101 108 103 108 c 2,30,-1
 238 291 l 1,31,-1
 108 471 l 2,32,33
 106 471 106 471 102 470.5 c 128,-1,34
 98 470 98 470 96 470 c 0,35,36
 40 470 40 470 40 525 c 0,37,38
 40 554 40 554 55 566.5 c 128,-1,39
 70 579 70 579 102 579 c 2,40,-1
 227 579 l 2,41,42
 259 579 259 579 274 566.5 c 128,-1,43
 289 554 289 554 289 525 c 0,44,45
 289 474 289 474 239 471 c 1,46,-1
 305 378 l 1,47,-1
 369 471 l 1,48,49
 321 476 321 476 321 525 c 0,50,51
 321 554 321 554 335.5 566.5 c 128,-1,52
 350 579 350 579 382 579 c 2,53,-1
 491 579 l 2,54,55
 523 579 523 579 538 566.5 c 128,-1,56
 553 554 553 554 553 525 c 0,57,58
 553 470 553 470 497 470 c 0,59,60
 488 470 488 470 483 471 c 1,61,-1
 361 302 l 1,62,-1
 505 108 l 2,0,1
EndSplineSet
EndChar
StartChar: Y
Encoding: 89 89 60
Width: 602
Flags: W
LayerCount: 2
Back
Fore
SplineSet
99 471 m 1,0,1
 99 471 99 471 91 471 c 0,2,3
 39 471 39 471 39 525 c 0,4,5
 39 555 39 555 53.5 567 c 128,-1,6
 68 579 68 579 99 579 c 2,7,-1
 227 579 l 2,8,9
 255 579 255 579 268 567 c 128,-1,10
 281 555 281 555 281 525 c 0,11,12
 281 471 281 471 234 471 c 2,13,-1
 229 471 l 1,14,-1
 305 312 l 1,15,-1
 378 471 l 1,16,-1
 376 471 l 2,17,18
 331 471 331 471 331 525 c 0,19,20
 331 555 331 555 343.5 567 c 128,-1,21
 356 579 356 579 384 579 c 2,22,-1
 495 579 l 2,23,24
 527 579 527 579 541 567 c 128,-1,25
 555 555 555 555 555 525 c 0,26,27
 555 471 555 471 503 471 c 2,28,-1
 495 471 l 1,29,-1
 364 227 l 1,30,-1
 364 107 l 1,31,-1
 428 107 l 2,32,33
 460 107 460 107 474.5 95.5 c 128,-1,34
 489 84 489 84 489 54 c 0,35,36
 489 0 489 0 427 0 c 2,37,-1
 174 0 l 2,38,39
 142 0 142 0 127.5 12 c 128,-1,40
 113 24 113 24 113 54 c 128,-1,41
 113 84 113 84 127.5 95.5 c 128,-1,42
 142 107 142 107 174 107 c 2,43,-1
 238 107 l 1,44,-1
 238 213 l 1,45,-1
 99 471 l 1,0,1
EndSplineSet
EndChar
StartChar: Z
Encoding: 90 90 61
Width: 602
Flags: W
LayerCount: 2
Back
Fore
SplineSet
194 472 m 1,0,-1
 191 403 l 2,1,2
 189 369 189 369 177 355 c 128,-1,3
 165 341 165 341 135 341 c 0,4,5
 83 341 83 341 83 397 c 2,6,-1
 83 403 l 1,7,-1
 88 519 l 2,8,9
 90 559 90 559 98.5 569 c 128,-1,10
 107 579 107 579 146 579 c 2,11,-1
 457 579 l 2,12,13
 483 579 483 579 497 566 c 128,-1,14
 511 553 511 553 511 532 c 0,15,16
 511 506 511 506 498 488 c 2,17,-1
 237 108 l 1,18,-1
 401 108 l 1,19,-1
 401 187 l 2,20,21
 401 249 401 249 457 249 c 0,22,23
 509 249 509 249 509 193 c 2,24,-1
 509 187 l 1,25,-1
 503 61 l 2,26,27
 502 39 502 39 501 30.5 c 128,-1,28
 500 22 500 22 494.5 13 c 128,-1,29
 489 4 489 4 478 2 c 128,-1,30
 467 0 467 0 446 0 c 2,31,-1
 123 0 l 2,32,33
 98 0 98 0 83.5 13 c 128,-1,34
 69 26 69 26 69 47 c 0,35,36
 69 70 69 70 82 90 c 2,37,-1
 345 472 l 1,38,-1
 194 472 l 1,0,-1
EndSplineSet
EndChar
StartChar: bracketleft
Encoding: 91 91 62
Width: 602
Flags: W
LayerCount: 2
Back
Fore
SplineSet
244 -181 m 2,0,1
 226 -181 226 -181 215.5 -172 c 128,-1,2
 205 -163 205 -163 205 -149 c 2,3,-1
 205 547 l 2,4,5
 205 561 205 561 215.5 570 c 128,-1,6
 226 579 226 579 244 579 c 2,7,-1
 394 579 l 2,8,9
 427 579 427 579 427 541 c 128,-1,10
 427 503 427 503 393 503 c 2,11,-1
 320 503 l 1,12,-1
 320 -104 l 1,13,-1
 393 -104 l 2,14,15
 427 -104 427 -104 427 -143 c 0,16,17
 427 -181 427 -181 394 -181 c 2,18,-1
 244 -181 l 2,0,1
EndSplineSet
EndChar
StartChar: backslash
Encoding: 92 92 63
Width: 602
Flags: W
LayerCount: 2
Back
Fore
SplineSet
403 -6 m 2,0,-1
 118 607 l 2,1,2
 104 637 104 637 104 653 c 0,3,4
 104 675 104 675 122 688.5 c 128,-1,5
 140 702 140 702 161 702 c 0,6,7
 177 702 177 702 188.5 689.5 c 128,-1,8
 200 677 200 677 212 650 c 2,9,-1
 497 38 l 2,10,11
 512 6 512 6 512 -8 c 0,12,13
 512 -30 512 -30 493.5 -43.5 c 128,-1,14
 475 -57 475 -57 454 -57 c 0,15,16
 438 -57 438 -57 426.5 -45 c 128,-1,17
 415 -33 415 -33 403 -6 c 2,0,-1
EndSplineSet
EndChar
StartChar: bracketright
Encoding: 93 93 64
Width: 602
Flags: W
LayerCount: 2
Back
Fore
SplineSet
331 579 m 2,0,1
 349 579 349 579 359.5 570 c 128,-1,2
 370 561 370 561 370 547 c 2,3,-1
 370 -149 l 2,4,5
 370 -163 370 -163 359.5 -172 c 128,-1,6
 349 -181 349 -181 331 -181 c 2,7,-1
 181 -181 l 2,8,9
 148 -181 148 -181 148 -143 c 0,10,11
 148 -104 148 -104 182 -104 c 2,12,-1
 255 -104 l 1,13,-1
 255 503 l 1,14,-1
 182 503 l 2,15,16
 148 503 148 503 148 541 c 128,-1,17
 148 579 148 579 181 579 c 2,18,-1
 331 579 l 2,0,1
EndSplineSet
EndChar
StartChar: asciicircum
Encoding: 94 94 65
Width: 602
Flags: W
LayerCount: 2
Back
Fore
SplineSet
301 555 m 1,0,-1
 150 431 l 2,1,2
 140 423 140 423 130 423 c 128,-1,3
 120 423 120 423 113 430 c 0,4,5
 104 439 104 439 104 451 c 0,6,7
 104 464 104 464 116 479 c 2,8,-1
 267 655 l 2,9,10
 279 670 279 670 301 670 c 128,-1,11
 323 670 323 670 335 655 c 2,12,-1
 486 479 l 2,13,14
 498 464 498 464 498 450 c 0,15,16
 498 439 498 439 489 430 c 0,17,18
 482 423 482 423 471 423 c 0,19,20
 463 423 463 423 456 428 c 2,21,-1
 301 555 l 1,0,-1
EndSplineSet
EndChar
StartChar: grave
Encoding: 96 96 126
Width: 602
Flags: W
LayerCount: 2
Back
Fore
SplineSet
406 531 m 1,0,-1
 389 493 l 1,1,-1
 134 584 l 2,2,3
 121 590 121 590 121 604 c 0,4,5
 121 606 121 606 123 612 c 2,6,-1
 143 654 l 2,7,8
 150 669 150 669 166 669 c 0,9,10
 169 669 169 669 173 667 c 2,11,-1
 406 531 l 1,0,-1
EndSplineSet
EndChar
StartChar: a
Encoding: 97 97 68
Width: 602
Flags: W
LayerCount: 2
Back
Fore
SplineSet
500 288 m 2,0,-1
 500 107 l 1,1,2
 500 107 500 107 508 107 c 0,3,4
 562 107 562 107 562 53 c 0,5,6
 562 24 562 24 547 12 c 128,-1,7
 532 0 532 0 500 0 c 2,8,-1
 454 0 l 2,9,10
 430 0 430 0 418 9 c 128,-1,11
 406 18 406 18 398 43 c 1,12,13
 316 -12 316 -12 220 -12 c 0,14,15
 141 -12 141 -12 96.5 27 c 128,-1,16
 52 66 52 66 52 134 c 0,17,18
 52 207 52 207 110 247.5 c 128,-1,19
 168 288 168 288 273 288 c 0,20,21
 326 288 326 288 382 278 c 1,22,-1
 382 287 l 2,23,24
 382 377 382 377 298 377 c 0,25,26
 265 377 265 377 215 353 c 128,-1,27
 165 329 165 329 144 329 c 0,28,29
 118 329 118 329 104.5 342.5 c 128,-1,30
 91 356 91 356 91 378 c 0,31,32
 91 417 91 417 148.5 440.5 c 128,-1,33
 206 464 206 464 306 464 c 0,34,35
 413 464 413 464 456.5 422.5 c 128,-1,36
 500 381 500 381 500 288 c 2,0,-1
382 126 m 1,37,-1
 382 201 l 1,38,39
 333 212 333 212 300 212 c 0,40,41
 184 212 184 212 184 140 c 0,42,43
 184 115 184 115 204 100.5 c 128,-1,44
 224 86 224 86 260 86 c 0,45,46
 326 86 326 86 382 126 c 1,37,-1
EndSplineSet
EndChar
StartChar: b
Encoding: 98 98 69
Width: 602
Flags: W
LayerCount: 2
Back
Fore
SplineSet
196 53 m 1,0,-1
 196 21 l 2,1,2
 196 0 196 0 167 0 c 2,3,-1
 92 0 l 2,4,5
 60 0 60 0 45.5 12 c 128,-1,6
 31 24 31 24 31 54 c 0,7,8
 31 107 31 107 84 107 c 2,9,-1
 92 107 l 1,10,-1
 92 531 l 1,11,12
 92 531 92 531 84 531 c 0,13,14
 31 531 31 531 31 585 c 0,15,16
 31 615 31 615 45.5 627 c 128,-1,17
 60 639 60 639 92 639 c 2,18,-1
 183 639 l 2,19,20
 212 639 212 639 212 607 c 2,21,-1
 212 407 l 1,22,23
 259 451 259 451 336 451 c 0,24,25
 437 451 437 451 502 384 c 128,-1,26
 567 317 567 317 567 216 c 0,27,28
 567 117 567 117 502 52.5 c 128,-1,29
 437 -12 437 -12 335 -12 c 0,30,31
 241 -12 241 -12 196 53 c 1,0,-1
321 92 m 128,-1,33
 369 92 369 92 400.5 128 c 128,-1,34
 432 164 432 164 432 220 c 128,-1,35
 432 276 432 276 400.5 311.5 c 128,-1,36
 369 347 369 347 321 347 c 128,-1,37
 273 347 273 347 241.5 311.5 c 128,-1,38
 210 276 210 276 210 220 c 128,-1,39
 210 164 210 164 241.5 128 c 128,-1,32
 273 92 273 92 321 92 c 128,-1,33
EndSplineSet
EndChar
StartChar: c
Encoding: 99 99 70
Width: 602
Flags: W
LayerCount: 2
Back
Fore
SplineSet
446 425 m 1,0,1
 460 464 460 464 496 464 c 0,2,3
 523 464 523 464 533.5 447 c 128,-1,4
 544 430 544 430 544 392 c 2,5,-1
 544 312 l 2,6,7
 544 254 544 254 495 254 c 0,8,9
 463 254 463 254 439 294 c 0,10,11
 401 359 401 359 310 359 c 0,12,13
 253 359 253 359 216.5 321 c 128,-1,14
 180 283 180 283 180 226 c 0,15,16
 180 166 180 166 217.5 128.5 c 128,-1,17
 255 91 255 91 319 91 c 0,18,19
 362 91 362 91 399.5 107 c 128,-1,20
 437 123 437 123 462.5 139 c 128,-1,21
 488 155 488 155 503 155 c 0,22,23
 521 155 521 155 533.5 141 c 128,-1,24
 546 127 546 127 546 106 c 0,25,26
 546 61 546 61 477 24.5 c 128,-1,27
 408 -12 408 -12 310 -12 c 0,28,29
 190 -12 190 -12 117 55 c 128,-1,30
 44 122 44 122 44 225 c 0,31,32
 44 326 44 326 117 394.5 c 128,-1,33
 190 463 190 463 302 463 c 0,34,35
 378 463 378 463 446 425 c 1,0,1
EndSplineSet
EndChar
StartChar: d
Encoding: 100 100 71
Width: 602
Flags: W
LayerCount: 2
Back
Fore
SplineSet
328 531 m 2,0,1
 296 531 296 531 281 543 c 128,-1,2
 266 555 266 555 266 585 c 128,-1,3
 266 615 266 615 281 627 c 128,-1,4
 296 639 296 639 328 639 c 2,5,-1
 480 639 l 2,6,7
 497 639 497 639 503 632 c 128,-1,8
 509 625 509 625 509 607 c 2,9,-1
 509 107 l 1,10,-1
 517 107 l 2,11,12
 570 107 570 107 570 54 c 0,13,14
 570 24 570 24 555.5 12 c 128,-1,15
 541 0 541 0 509 0 c 2,16,-1
 434 0 l 2,17,18
 405 0 405 0 405 21 c 2,19,-1
 405 55 l 1,20,21
 354 -12 354 -12 259 -12 c 128,-1,22
 164 -12 164 -12 99 53 c 128,-1,23
 34 118 34 118 34 216 c 0,24,25
 34 316 34 316 99 384 c 128,-1,26
 164 452 164 452 259 452 c 0,27,28
 337 452 337 452 393 407 c 1,29,-1
 393 531 l 1,30,-1
 328 531 l 2,0,1
280 92 m 128,-1,32
 328 92 328 92 359.5 128 c 128,-1,33
 391 164 391 164 391 220 c 128,-1,34
 391 276 391 276 359.5 311.5 c 128,-1,35
 328 347 328 347 280 347 c 128,-1,36
 232 347 232 347 200.5 311.5 c 128,-1,37
 169 276 169 276 169 220 c 128,-1,38
 169 164 169 164 200.5 128 c 128,-1,31
 232 92 232 92 280 92 c 128,-1,32
EndSplineSet
EndChar
StartChar: e
Encoding: 101 101 72
Width: 602
Flags: W
LayerCount: 2
Back
Fore
SplineSet
168 197 m 1,0,1
 193 89 193 89 314 89 c 0,2,3
 360 89 360 89 399 103.5 c 128,-1,4
 438 118 438 118 463.5 133 c 128,-1,5
 489 148 489 148 502 148 c 0,6,7
 522 148 522 148 534 135 c 128,-1,8
 546 122 546 122 546 100 c 0,9,10
 546 56 546 56 479.5 22 c 128,-1,11
 413 -12 413 -12 310 -12 c 0,12,13
 191 -12 191 -12 117.5 55 c 128,-1,14
 44 122 44 122 44 225 c 128,-1,15
 44 328 44 328 117 395 c 128,-1,16
 190 462 190 462 310 462 c 0,17,18
 418 462 418 462 486 398.5 c 128,-1,19
 554 335 554 335 554 247 c 0,20,21
 554 216 554 216 538.5 206.5 c 128,-1,22
 523 197 523 197 483 197 c 2,23,-1
 168 197 l 1,0,1
168 273 m 1,24,-1
 431 273 l 1,25,26
 423 319 423 319 388.5 343.5 c 128,-1,27
 354 368 354 368 299 368 c 0,28,29
 193 368 193 368 168 273 c 1,24,-1
EndSplineSet
EndChar
StartChar: f
Encoding: 102 102 73
Width: 602
Flags: W
LayerCount: 2
Back
Fore
SplineSet
212 330 m 1,0,-1
 159 330 l 2,1,2
 127 330 127 330 112.5 342 c 128,-1,3
 98 354 98 354 98 384 c 128,-1,4
 98 414 98 414 112.5 425.5 c 128,-1,5
 127 437 127 437 159 437 c 2,6,-1
 212 437 l 1,7,8
 211 447 211 447 211 465 c 0,9,10
 211 562 211 562 261.5 601.5 c 128,-1,11
 312 641 312 641 429 641 c 0,12,13
 491 641 491 641 520 627 c 128,-1,14
 549 613 549 613 549 581 c 0,15,16
 549 561 549 561 536 548.5 c 128,-1,17
 523 536 523 536 500 536 c 0,18,19
 483 536 483 536 454.5 540.5 c 128,-1,20
 426 545 426 545 414 545 c 0,21,22
 368 545 368 545 350 524 c 128,-1,23
 332 503 332 503 332 453 c 2,24,-1
 332 437 l 1,25,-1
 437 437 l 2,26,27
 469 437 469 437 484 425.5 c 128,-1,28
 499 414 499 414 499 384 c 128,-1,29
 499 354 499 354 484 342 c 128,-1,30
 469 330 469 330 437 330 c 2,31,-1
 332 330 l 1,32,-1
 332 107 l 1,33,-1
 429 107 l 2,34,35
 461 107 461 107 476 95.5 c 128,-1,36
 491 84 491 84 491 54 c 128,-1,37
 491 24 491 24 476 12 c 128,-1,38
 461 0 461 0 429 0 c 2,39,-1
 159 0 l 2,40,41
 127 0 127 0 112.5 12 c 128,-1,42
 98 24 98 24 98 54 c 128,-1,43
 98 84 98 84 112.5 95.5 c 128,-1,44
 127 107 127 107 159 107 c 2,45,-1
 212 107 l 1,46,-1
 212 330 l 1,0,-1
EndSplineSet
EndChar
StartChar: g
Encoding: 103 103 74
Width: 602
Flags: W
LayerCount: 2
Back
Fore
SplineSet
280 115 m 128,-1,1
 328 115 328 115 359.5 149.5 c 128,-1,2
 391 184 391 184 391 237 c 0,3,4
 391 291 391 291 359.5 325.5 c 128,-1,5
 328 360 328 360 280 360 c 128,-1,6
 232 360 232 360 200.5 325.5 c 128,-1,7
 169 291 169 291 169 237 c 0,8,9
 169 184 169 184 200.5 149.5 c 128,-1,0
 232 115 232 115 280 115 c 128,-1,1
509 8 m 2,10,11
 509 -99 509 -99 451 -147.5 c 128,-1,12
 393 -196 393 -196 264 -196 c 0,13,14
 110 -196 110 -196 110 -131 c 0,15,16
 110 -107 110 -107 124.5 -92.5 c 128,-1,17
 139 -78 139 -78 165 -78 c 0,18,19
 171 -78 171 -78 206.5 -82.5 c 128,-1,20
 242 -87 242 -87 273 -87 c 0,21,22
 341 -87 341 -87 368 -61 c 128,-1,23
 395 -35 395 -35 395 34 c 0,24,25
 395 37 395 37 394.5 44.5 c 128,-1,26
 394 52 394 52 394 56 c 1,27,28
 328 17 328 17 256 17 c 0,29,30
 158 17 158 17 96 78.5 c 128,-1,31
 34 140 34 140 34 236 c 0,32,33
 34 334 34 334 99.5 398.5 c 128,-1,34
 165 463 165 463 266 463 c 0,35,36
 353 463 353 463 401 406 c 1,37,-1
 401 431 l 2,38,39
 401 451 401 451 429 451 c 2,40,-1
 509 451 l 2,41,42
 541 451 541 451 555.5 439.5 c 128,-1,43
 570 428 570 428 570 398 c 0,44,45
 570 344 570 344 517 344 c 2,46,-1
 509 344 l 1,47,-1
 509 8 l 2,10,11
EndSplineSet
EndChar
StartChar: h
Encoding: 104 104 75
Width: 602
Flags: W
LayerCount: 2
Back
Fore
SplineSet
506 107 m 1,0,1
 506 107 506 107 514 107 c 0,2,3
 567 107 567 107 567 54 c 0,4,5
 567 24 567 24 552.5 12 c 128,-1,6
 538 0 538 0 506 0 c 2,7,-1
 385 0 l 2,8,9
 353 0 353 0 338.5 12 c 128,-1,10
 324 24 324 24 324 54 c 0,11,12
 324 107 324 107 377 107 c 2,13,-1
 385 107 l 1,14,-1
 385 249 l 2,15,16
 385 307 385 307 370.5 333.5 c 128,-1,17
 356 360 356 360 317 360 c 0,18,19
 280 360 280 360 251 329 c 128,-1,20
 222 298 222 298 222 249 c 2,21,-1
 222 107 l 1,22,-1
 230 107 l 2,23,24
 283 107 283 107 283 54 c 0,25,26
 283 24 283 24 268.5 12 c 128,-1,27
 254 0 254 0 222 0 c 2,28,-1
 101 0 l 2,29,30
 69 0 69 0 54.5 12 c 128,-1,31
 40 24 40 24 40 54 c 0,32,33
 40 107 40 107 93 107 c 2,34,-1
 101 107 l 1,35,-1
 101 531 l 1,36,-1
 93 531 l 2,37,38
 40 531 40 531 40 585 c 0,39,40
 40 615 40 615 54.5 627 c 128,-1,41
 69 639 69 639 101 639 c 2,42,-1
 193 639 l 2,43,44
 210 639 210 639 216 632 c 128,-1,45
 222 625 222 625 222 607 c 2,46,-1
 222 402 l 1,47,48
 259 463 259 463 344 463 c 0,49,50
 421 463 421 463 463.5 419 c 128,-1,51
 506 375 506 375 506 289 c 2,52,-1
 506 107 l 1,0,1
EndSplineSet
EndChar
StartChar: i
Encoding: 105 105 76
Width: 602
Flags: W
LayerCount: 2
Back
Fore
SplineSet
238 578 m 0,0,1
 238 637 238 637 249 654.5 c 128,-1,2
 260 672 260 672 299 672 c 128,-1,3
 338 672 338 672 348 656.5 c 128,-1,4
 358 641 358 641 358 593 c 128,-1,5
 358 545 358 545 348 532 c 128,-1,6
 338 519 338 519 298 519 c 0,7,8
 261 519 261 519 249.5 530 c 128,-1,9
 238 541 238 541 238 578 c 0,0,1
341 451 m 2,10,11
 369 451 369 451 369 430 c 2,12,-1
 369 107 l 1,13,-1
 474 107 l 2,14,15
 506 107 506 107 521 95.5 c 128,-1,16
 536 84 536 84 536 54 c 128,-1,17
 536 24 536 24 521 12 c 128,-1,18
 506 0 506 0 474 0 c 2,19,-1
 144 0 l 2,20,21
 112 0 112 0 97 12 c 128,-1,22
 82 24 82 24 82 54 c 128,-1,23
 82 84 82 84 97 95.5 c 128,-1,24
 112 107 112 107 144 107 c 2,25,-1
 249 107 l 1,26,-1
 249 344 l 1,27,-1
 194 344 l 2,28,29
 162 344 162 344 147.5 356 c 128,-1,30
 133 368 133 368 133 398 c 128,-1,31
 133 428 133 428 147.5 439.5 c 128,-1,32
 162 451 162 451 194 451 c 2,33,-1
 341 451 l 2,10,11
EndSplineSet
EndChar
StartChar: j
Encoding: 106 106 77
Width: 602
Flags: W
LayerCount: 2
Back
Fore
SplineSet
273 578 m 0,0,1
 273 637 273 637 284 654.5 c 128,-1,2
 295 672 295 672 334 672 c 128,-1,3
 373 672 373 672 383 656.5 c 128,-1,4
 393 641 393 641 393 593 c 0,5,6
 393 544 393 544 383.5 531.5 c 128,-1,7
 374 519 374 519 334 519 c 0,8,9
 297 519 297 519 285 530 c 128,-1,10
 273 541 273 541 273 578 c 0,0,1
425 8 m 2,11,12
 425 -195 425 -195 205 -195 c 0,13,14
 128 -195 128 -195 96 -179.5 c 128,-1,15
 64 -164 64 -164 64 -127 c 0,16,17
 64 -80 64 -80 112 -80 c 0,18,19
 124 -80 124 -80 159.5 -85 c 128,-1,20
 195 -90 195 -90 217 -90 c 0,21,22
 272 -90 272 -90 288.5 -57.5 c 128,-1,23
 305 -25 305 -25 305 56 c 2,24,-1
 305 344 l 1,25,-1
 142 344 l 2,26,27
 110 344 110 344 95 356 c 128,-1,28
 80 368 80 368 80 398 c 128,-1,29
 80 428 80 428 95 439.5 c 128,-1,30
 110 451 110 451 142 451 c 2,31,-1
 397 451 l 2,32,33
 425 451 425 451 425 430 c 2,34,-1
 425 8 l 2,11,12
EndSplineSet
EndChar
StartChar: k
Encoding: 107 107 78
Width: 602
Flags: W
LayerCount: 2
Back
Fore
SplineSet
325 358 m 1,0,1
 310 363 310 363 305 371.5 c 128,-1,2
 300 380 300 380 300 397 c 0,3,4
 300 429 300 429 314 440 c 128,-1,5
 328 451 328 451 360 451 c 2,6,-1
 468 451 l 2,7,8
 501 451 501 451 515 439.5 c 128,-1,9
 529 428 529 428 529 398 c 0,10,11
 529 375 529 375 520 366 c 128,-1,12
 511 357 511 357 488 352 c 0,13,14
 444 342 444 342 406 303 c 2,15,-1
 371 267 l 1,16,-1
 500 107 l 2,17,18
 502 107 502 107 506.5 107.5 c 128,-1,19
 511 108 511 108 512 108 c 0,20,21
 569 108 569 108 569 54 c 0,22,23
 569 24 569 24 554 12 c 128,-1,24
 539 0 539 0 507 0 c 2,25,-1
 387 0 l 2,26,27
 327 0 327 0 327 43 c 0,28,29
 327 78 327 78 363 91 c 1,30,-1
 283 188 l 1,31,-1
 222 133 l 1,32,-1
 222 32 l 2,33,34
 222 14 222 14 216.5 7 c 128,-1,35
 211 0 211 0 194 0 c 2,36,-1
 106 0 l 2,37,38
 74 0 74 0 60 12 c 128,-1,39
 46 24 46 24 46 54 c 0,40,41
 46 107 46 107 98 107 c 2,42,-1
 106 107 l 1,43,-1
 106 531 l 1,44,-1
 98 531 l 2,45,46
 46 531 46 531 46 585 c 0,47,48
 46 615 46 615 60 627 c 128,-1,49
 74 639 74 639 106 639 c 2,50,-1
 194 639 l 2,51,52
 211 639 211 639 216.5 632 c 128,-1,53
 222 625 222 625 222 607 c 2,54,-1
 222 265 l 1,55,-1
 325 358 l 1,0,1
EndSplineSet
EndChar
StartChar: l
Encoding: 108 108 79
Width: 602
Flags: W
LayerCount: 2
Back
Fore
SplineSet
240 0 m 1,0,-1
 466 0 l 2,1,2
 498 0 498 0 512.5 12 c 128,-1,3
 527 24 527 24 527 54 c 128,-1,4
 527 84 527 84 512.5 95.5 c 128,-1,5
 498 107 498 107 466 107 c 2,6,-1
 361 107 l 1,7,-1
 361 618 l 2,8,9
 361 639 361 639 332 639 c 2,10,-1
 186 639 l 2,11,12
 154 639 154 639 139 627 c 128,-1,13
 124 615 124 615 124 585 c 128,-1,14
 124 555 124 555 139 543 c 128,-1,15
 154 531 154 531 186 531 c 2,16,-1
 240 531 l 1,17,-1
 240 107 l 1,18,-1
 240 0 l 1,0,-1
EndSplineSet
EndChar
StartChar: m
Encoding: 109 109 80
Width: 602
Flags: W
LayerCount: 2
Back
Fore
SplineSet
562 292 m 2,0,-1
 562 107 l 1,1,2
 562 107 562 107 569 107 c 0,3,4
 615 107 615 107 615 54 c 0,5,6
 615 24 615 24 602.5 12 c 128,-1,7
 590 0 590 0 562 0 c 2,8,-1
 479 0 l 2,9,10
 450 0 450 0 450 21 c 2,11,-1
 450 297 l 2,12,13
 450 362 450 362 411 362 c 0,14,15
 387 362 387 362 373 340.5 c 128,-1,16
 359 319 359 319 359 278 c 2,17,-1
 359 107 l 1,18,-1
 366 107 l 2,19,20
 413 107 413 107 413 54 c 0,21,22
 413 24 413 24 400 12 c 128,-1,23
 387 0 387 0 359 0 c 2,24,-1
 277 0 l 2,25,26
 248 0 248 0 248 21 c 2,27,-1
 248 297 l 2,28,29
 248 362 248 362 209 362 c 0,30,31
 185 362 185 362 171 340.5 c 128,-1,32
 157 319 157 319 157 278 c 2,33,-1
 157 107 l 1,34,-1
 164 107 l 2,35,36
 211 107 211 107 211 54 c 0,37,38
 211 24 211 24 198 12 c 128,-1,39
 185 0 185 0 157 0 c 2,40,-1
 46 0 l 2,41,42
 18 0 18 0 5.5 12.5 c 128,-1,43
 -7 25 -7 25 -7 54 c 0,44,45
 -7 107 -7 107 39 107 c 2,46,-1
 46 107 l 1,47,-1
 46 344 l 1,48,-1
 39 344 l 2,49,50
 -7 344 -7 344 -7 398 c 0,51,52
 -7 427 -7 427 5.5 439 c 128,-1,53
 18 451 18 451 46 451 c 2,54,-1
 112 451 l 2,55,56
 131 451 131 451 138.5 443.5 c 128,-1,57
 146 436 146 436 146 417 c 2,58,-1
 146 412 l 1,59,60
 182 463 182 463 246 463 c 0,61,62
 302 463 302 463 332 418 c 1,63,64
 374 463 374 463 437 463 c 0,65,66
 507 463 507 463 534.5 421.5 c 128,-1,67
 562 380 562 380 562 292 c 2,0,-1
EndSplineSet
EndChar
StartChar: n
Encoding: 110 110 81
Width: 602
Flags: W
LayerCount: 2
Back
Fore
SplineSet
506 108 m 1,0,1
 506 108 506 108 512 108 c 0,2,3
 567 108 567 108 567 54 c 0,4,5
 567 25 567 25 552.5 12.5 c 128,-1,6
 538 0 538 0 506 0 c 2,7,-1
 386 0 l 2,8,9
 354 0 354 0 339 12.5 c 128,-1,10
 324 25 324 25 324 54 c 0,11,12
 324 108 324 108 380 108 c 2,13,-1
 386 108 l 1,14,-1
 386 249 l 2,15,16
 386 305 386 305 370.5 331 c 128,-1,17
 355 357 355 357 315 357 c 128,-1,18
 275 357 275 357 249 328 c 128,-1,19
 223 299 223 299 223 249 c 2,20,-1
 223 108 l 1,21,-1
 229 108 l 2,22,23
 284 108 284 108 284 54 c 0,24,25
 284 25 284 25 269.5 12.5 c 128,-1,26
 255 0 255 0 223 0 c 2,27,-1
 102 0 l 2,28,29
 70 0 70 0 55.5 12.5 c 128,-1,30
 41 25 41 25 41 54 c 0,31,32
 41 108 41 108 96 108 c 2,33,-1
 102 108 l 1,34,-1
 102 344 l 1,35,-1
 94 344 l 2,36,37
 41 344 41 344 41 397 c 0,38,39
 41 427 41 427 55.5 439 c 128,-1,40
 70 451 70 451 102 451 c 2,41,-1
 185 451 l 2,42,43
 213 451 213 451 213 430 c 2,44,-1
 213 392 l 1,45,46
 260 463 260 463 351 463 c 0,47,48
 506 463 506 463 506 271 c 2,49,-1
 506 108 l 1,0,1
EndSplineSet
EndChar
StartChar: o
Encoding: 111 111 82
Width: 602
Flags: W
LayerCount: 2
Back
Fore
SplineSet
567 225 m 128,-1,1
 567 122 567 122 494 55 c 128,-1,2
 421 -12 421 -12 301 -12 c 128,-1,3
 181 -12 181 -12 107.5 55 c 128,-1,4
 34 122 34 122 34 225 c 128,-1,5
 34 328 34 328 107.5 395 c 128,-1,6
 181 462 181 462 301 462 c 128,-1,7
 421 462 421 462 494 395 c 128,-1,0
 567 328 567 328 567 225 c 128,-1,1
301 91 m 128,-1,9
 358 91 358 91 394.5 129.5 c 128,-1,10
 431 168 431 168 431 226 c 128,-1,11
 431 284 431 284 395 321.5 c 128,-1,12
 359 359 359 359 301 359 c 128,-1,13
 243 359 243 359 206.5 321.5 c 128,-1,14
 170 284 170 284 170 226 c 0,15,16
 170 167 170 167 207 129 c 128,-1,8
 244 91 244 91 301 91 c 128,-1,9
EndSplineSet
EndChar
StartChar: p
Encoding: 112 112 83
Width: 602
Flags: W
LayerCount: 2
Back
Fore
SplineSet
270 -87 m 2,0,1
 302 -87 302 -87 316.5 -99 c 128,-1,2
 331 -111 331 -111 331 -141 c 128,-1,3
 331 -171 331 -171 316.5 -182.5 c 128,-1,4
 302 -194 302 -194 270 -194 c 2,5,-1
 63 -194 l 2,6,7
 31 -194 31 -194 16.5 -182.5 c 128,-1,8
 2 -171 2 -171 2 -141 c 128,-1,9
 2 -111 2 -111 16.5 -99 c 128,-1,10
 31 -87 31 -87 63 -87 c 2,11,-1
 92 -87 l 1,12,-1
 92 344 l 1,13,-1
 84 344 l 2,14,15
 31 344 31 344 31 398 c 0,16,17
 31 428 31 428 45.5 439.5 c 128,-1,18
 60 451 60 451 92 451 c 2,19,-1
 167 451 l 2,20,21
 195 451 195 451 195 431 c 2,22,-1
 195 396 l 1,23,24
 245 463 245 463 335 463 c 0,25,26
 436 463 436 463 501 399 c 128,-1,27
 566 335 566 335 566 238 c 0,28,29
 566 136 566 136 502 69.5 c 128,-1,30
 438 3 438 3 341 3 c 0,31,32
 260 3 260 3 208 46 c 1,33,-1
 208 -87 l 1,34,-1
 270 -87 l 2,0,1
210 232 m 128,-1,36
 210 176 210 176 241.5 140.5 c 128,-1,37
 273 105 273 105 321 105 c 128,-1,38
 369 105 369 105 400.5 140.5 c 128,-1,39
 432 176 432 176 432 232 c 128,-1,40
 432 288 432 288 400.5 323.5 c 128,-1,41
 369 359 369 359 321 359 c 128,-1,42
 273 359 273 359 241.5 323.5 c 128,-1,35
 210 288 210 288 210 232 c 128,-1,36
EndSplineSet
EndChar
StartChar: q
Encoding: 113 113 84
Width: 602
Flags: W
LayerCount: 2
Back
Fore
SplineSet
331 -87 m 2,0,-1
 393 -87 l 1,1,-1
 393 46 l 1,2,3
 341 3 341 3 259 3 c 0,4,5
 162 3 162 3 98 69.5 c 128,-1,6
 34 136 34 136 34 238 c 0,7,8
 34 335 34 335 99.5 399 c 128,-1,9
 165 463 165 463 266 463 c 0,10,11
 356 463 356 463 406 396 c 1,12,-1
 406 431 l 2,13,14
 406 451 406 451 434 451 c 2,15,-1
 509 451 l 2,16,17
 541 451 541 451 555.5 439.5 c 128,-1,18
 570 428 570 428 570 398 c 0,19,20
 570 344 570 344 517 344 c 2,21,-1
 509 344 l 1,22,-1
 509 -87 l 1,23,-1
 537 -87 l 2,24,25
 569 -87 569 -87 584 -99 c 128,-1,26
 599 -111 599 -111 599 -141 c 128,-1,27
 599 -171 599 -171 584 -182.5 c 128,-1,28
 569 -194 569 -194 537 -194 c 2,29,-1
 331 -194 l 2,30,31
 299 -194 299 -194 284 -182.5 c 128,-1,32
 269 -171 269 -171 269 -141 c 128,-1,33
 269 -111 269 -111 284 -99 c 128,-1,34
 299 -87 299 -87 331 -87 c 2,0,-1
280 105 m 128,-1,36
 328 105 328 105 359.5 140.5 c 128,-1,37
 391 176 391 176 391 232 c 128,-1,38
 391 288 391 288 359.5 323.5 c 128,-1,39
 328 359 328 359 280 359 c 128,-1,40
 232 359 232 359 200.5 323.5 c 128,-1,41
 169 288 169 288 169 232 c 128,-1,42
 169 176 169 176 200.5 140.5 c 128,-1,35
 232 105 232 105 280 105 c 128,-1,36
EndSplineSet
EndChar
StartChar: r
Encoding: 114 114 85
Width: 602
Flags: W
LayerCount: 2
Back
Fore
SplineSet
279 107 m 1,0,-1
 394 107 l 2,1,2
 426 107 426 107 440.5 95.5 c 128,-1,3
 455 84 455 84 455 54 c 128,-1,4
 455 24 455 24 440.5 12 c 128,-1,5
 426 0 426 0 394 0 c 2,6,-1
 121 0 l 2,7,8
 89 0 89 0 74 12 c 128,-1,9
 59 24 59 24 59 54 c 128,-1,10
 59 84 59 84 74 95.5 c 128,-1,11
 89 107 89 107 121 107 c 2,12,-1
 158 107 l 1,13,-1
 158 344 l 1,14,-1
 137 344 l 2,15,16
 105 344 105 344 90.5 356 c 128,-1,17
 76 368 76 368 76 398 c 128,-1,18
 76 428 76 428 90.5 439.5 c 128,-1,19
 105 451 105 451 137 451 c 2,20,-1
 241 451 l 2,21,22
 269 451 269 451 269 430 c 2,23,-1
 269 358 l 1,24,25
 320 413 320 413 366 438.5 c 128,-1,26
 412 464 412 464 468 464 c 0,27,28
 517 464 517 464 544.5 442 c 128,-1,29
 572 420 572 420 572 384 c 0,30,31
 572 356 572 356 552.5 337.5 c 128,-1,32
 533 319 533 319 503 319 c 0,33,34
 481 319 481 319 451 335 c 128,-1,35
 421 351 421 351 409 351 c 0,36,37
 363 351 363 351 279 265 c 1,38,-1
 279 107 l 1,0,-1
EndSplineSet
EndChar
StartChar: s
Encoding: 115 115 86
Width: 602
Flags: W
LayerCount: 2
Back
Fore
SplineSet
172 6 m 1,0,1
 144 -14 144 -14 119 -14 c 0,2,3
 96 -14 96 -14 88 -1.5 c 128,-1,4
 80 11 80 11 80 39 c 2,5,-1
 80 105 l 2,6,7
 80 137 80 137 91 150.5 c 128,-1,8
 102 164 102 164 128 164 c 0,9,10
 147 164 147 164 157 157 c 128,-1,11
 167 150 167 150 176 135.5 c 128,-1,12
 185 121 185 121 193 114 c 0,13,14
 242 71 242 71 321 71 c 0,15,16
 358 71 358 71 378 85 c 128,-1,17
 398 99 398 99 398 120 c 0,18,19
 398 148 398 148 375 157.5 c 128,-1,20
 352 167 352 167 281 176 c 0,21,22
 259 179 259 179 246 181 c 0,23,24
 78 205 78 205 78 319 c 0,25,26
 78 388 78 388 127.5 425.5 c 128,-1,27
 177 463 177 463 270 463 c 0,28,29
 335 463 335 463 404 442 c 1,30,31
 424 466 424 466 452 466 c 0,32,33
 492 466 492 466 492 416 c 2,34,-1
 492 356 l 2,35,36
 492 312 492 312 450 312 c 0,37,38
 431 312 431 312 407.5 329.5 c 128,-1,39
 384 347 384 347 353.5 364.5 c 128,-1,40
 323 382 323 382 285 382 c 0,41,42
 246 382 246 382 225.5 369.5 c 128,-1,43
 205 357 205 357 205 335 c 0,44,45
 205 326 205 326 207 319.5 c 128,-1,46
 209 313 209 313 215 308.5 c 128,-1,47
 221 304 221 304 227 301.5 c 128,-1,48
 233 299 233 299 246 296.5 c 128,-1,49
 259 294 259 294 269 292.5 c 128,-1,50
 279 291 279 291 298.5 288.5 c 128,-1,51
 318 286 318 286 333 284 c 0,52,53
 435 269 435 269 481 239 c 128,-1,54
 527 209 527 209 527 141 c 0,55,56
 527 69 527 69 473 28.5 c 128,-1,57
 419 -12 419 -12 317 -12 c 0,58,59
 237 -12 237 -12 172 6 c 1,0,1
EndSplineSet
EndChar
StartChar: t
Encoding: 116 116 87
Width: 602
Flags: W
LayerCount: 2
Back
Fore
SplineSet
101 317 m 2,0,1
 69 317 69 317 54.5 329 c 128,-1,2
 40 341 40 341 40 371 c 128,-1,3
 40 401 40 401 54.5 412.5 c 128,-1,4
 69 424 69 424 101 424 c 2,5,-1
 147 424 l 1,6,-1
 147 538 l 1,7,-1
 147 558 l 2,8,9
 147 574 147 574 163 586.5 c 128,-1,10
 179 599 179 599 206 599 c 0,11,12
 240 599 240 599 253.5 584.5 c 128,-1,13
 267 570 267 570 267 538 c 2,14,-1
 267 424 l 1,15,-1
 416 424 l 2,16,17
 448 424 448 424 463 412.5 c 128,-1,18
 478 401 478 401 478 371 c 128,-1,19
 478 341 478 341 463 329 c 128,-1,20
 448 317 448 317 416 317 c 2,21,-1
 267 317 l 1,22,-1
 267 192 l 2,23,24
 267 142 267 142 282.5 121 c 128,-1,25
 298 100 298 100 340 100 c 0,26,27
 378 100 378 100 429.5 122 c 128,-1,28
 481 144 481 144 499 144 c 0,29,30
 519 144 519 144 533.5 128.5 c 128,-1,31
 548 113 548 113 548 88 c 0,32,33
 548 53 548 53 480 21.5 c 128,-1,34
 412 -10 412 -10 325 -10 c 0,35,36
 222 -10 222 -10 177 43 c 0,37,38
 157 66 157 66 152 96.5 c 128,-1,39
 147 127 147 127 147 181 c 2,40,-1
 147 192 l 1,41,-1
 147 317 l 1,42,-1
 101 317 l 2,0,1
EndSplineSet
EndChar
StartChar: u
Encoding: 117 117 88
Width: 602
Flags: W
LayerCount: 2
Back
Fore
SplineSet
498 107 m 1,0,1
 498 107 498 107 506 107 c 0,2,3
 559 107 559 107 559 54 c 0,4,5
 559 24 559 24 544.5 12 c 128,-1,6
 530 0 530 0 498 0 c 2,7,-1
 416 0 l 2,8,9
 387 0 387 0 387 22 c 2,10,-1
 387 59 l 1,11,12
 341 -11 341 -11 250 -11 c 0,13,14
 94 -11 94 -11 94 181 c 2,15,-1
 94 344 l 1,16,-1
 86 344 l 2,17,18
 33 344 33 344 33 398 c 0,19,20
 33 428 33 428 48 439.5 c 128,-1,21
 63 451 63 451 95 451 c 2,22,-1
 187 451 l 2,23,24
 214 451 214 451 214 430 c 2,25,-1
 214 203 l 2,26,27
 214 147 214 147 230 120.5 c 128,-1,28
 246 94 246 94 286 94 c 128,-1,29
 326 94 326 94 352 123.5 c 128,-1,30
 378 153 378 153 378 203 c 2,31,-1
 378 344 l 1,32,-1
 370 344 l 2,33,34
 316 344 316 344 316 398 c 0,35,36
 316 428 316 428 331 439.5 c 128,-1,37
 346 451 346 451 378 451 c 2,38,-1
 470 451 l 2,39,40
 498 451 498 451 498 430 c 2,41,-1
 498 107 l 1,0,1
EndSplineSet
EndChar
StartChar: v
Encoding: 118 118 89
Width: 602
Flags: W
LayerCount: 2
Back
Fore
SplineSet
365 36 m 2,0,1
 351 6 351 6 339.5 -3 c 128,-1,2
 328 -12 328 -12 296 -12 c 0,3,4
 287 -12 287 -12 280 -11.5 c 128,-1,5
 273 -11 273 -11 267 -9 c 128,-1,6
 261 -7 261 -7 257.5 -6.5 c 128,-1,7
 254 -6 254 -6 249.5 -1.5 c 128,-1,8
 245 3 245 3 243.5 3.5 c 128,-1,9
 242 4 242 4 238.5 10.5 c 128,-1,10
 235 17 235 17 234.5 17.5 c 128,-1,11
 234 18 234 18 230.5 26.5 c 128,-1,12
 227 35 227 35 227 36 c 2,13,-1
 91 344 l 1,14,-1
 83 344 l 2,15,16
 29 344 29 344 29 398 c 0,17,18
 29 428 29 428 44 439.5 c 128,-1,19
 59 451 59 451 91 451 c 2,20,-1
 215 451 l 2,21,22
 247 451 247 451 262 439.5 c 128,-1,23
 277 428 277 428 277 398 c 0,24,25
 277 344 277 344 223 344 c 2,26,-1
 215 344 l 1,27,-1
 303 136 l 1,28,-1
 395 344 l 1,29,-1
 387 344 l 2,30,31
 333 344 333 344 333 398 c 0,32,33
 333 428 333 428 348 439.5 c 128,-1,34
 363 451 363 451 395 451 c 2,35,-1
 510 451 l 2,36,37
 542 451 542 451 557 439.5 c 128,-1,38
 572 428 572 428 572 398 c 0,39,40
 572 344 572 344 518 344 c 2,41,-1
 510 344 l 1,42,-1
 365 36 l 2,0,1
EndSplineSet
EndChar
StartChar: w
Encoding: 119 119 90
Width: 602
Flags: W
LayerCount: 2
Back
Fore
SplineSet
298 226 m 1,0,-1
 247 36 l 2,1,2
 234 -12 234 -12 170 -12 c 0,3,4
 107 -12 107 -12 97 36 c 2,5,-1
 35 344 l 1,6,7
 35 344 35 344 27 344 c 0,8,9
 -26 344 -26 344 -26 398 c 0,10,11
 -26 428 -26 428 -11.5 439.5 c 128,-1,12
 3 451 3 451 35 451 c 2,13,-1
 151 451 l 2,14,15
 183 451 183 451 197.5 439.5 c 128,-1,16
 212 428 212 428 212 398 c 0,17,18
 212 344 212 344 159 344 c 2,19,-1
 151 344 l 1,20,-1
 190 104 l 1,21,-1
 241 290 l 2,22,23
 249 316 249 316 260.5 327 c 128,-1,24
 272 338 272 338 301 338 c 128,-1,25
 330 338 330 338 341 327 c 128,-1,26
 352 316 352 316 360 290 c 2,27,-1
 414 104 l 1,28,-1
 451 344 l 1,29,-1
 443 344 l 2,30,31
 389 344 389 344 389 398 c 0,32,33
 389 428 389 428 404 439.5 c 128,-1,34
 419 451 419 451 451 451 c 2,35,-1
 566 451 l 2,36,37
 598 451 598 451 613 439.5 c 128,-1,38
 628 428 628 428 628 398 c 0,39,40
 628 344 628 344 574 344 c 2,41,-1
 566 344 l 1,42,-1
 505 36 l 2,43,44
 495 -12 495 -12 431 -12 c 0,45,46
 370 -12 370 -12 355 36 c 2,47,-1
 298 226 l 1,0,-1
EndSplineSet
EndChar
StartChar: x
Encoding: 120 120 91
Width: 602
Flags: W
LayerCount: 2
Back
Fore
SplineSet
486 108 m 2,0,1
 488 108 488 108 492 108.5 c 128,-1,2
 496 109 496 109 497 109 c 0,3,4
 553 109 553 109 553 54 c 0,5,6
 553 25 553 25 538 12.5 c 128,-1,7
 523 0 523 0 491 0 c 2,8,-1
 373 0 l 2,9,10
 324 0 324 0 324 53 c 0,11,12
 324 98 324 98 356 98 c 2,13,-1
 360 98 l 1,14,-1
 298 167 l 1,15,-1
 238 98 l 1,16,-1
 242 98 l 2,17,18
 273 98 273 98 273 53 c 0,19,20
 273 0 273 0 224 0 c 2,21,-1
 120 0 l 2,22,23
 88 0 88 0 73.5 12.5 c 128,-1,24
 59 25 59 25 59 54 c 0,25,26
 59 109 59 109 111 109 c 0,27,28
 113 109 113 109 116.5 108.5 c 128,-1,29
 120 108 120 108 122 108 c 2,30,-1
 237 225 l 1,31,-1
 125 344 l 1,32,33
 119 343 119 343 109 343 c 0,34,35
 53 343 53 343 53 397 c 0,36,37
 53 426 53 426 68 438.5 c 128,-1,38
 83 451 83 451 115 451 c 2,39,-1
 233 451 l 2,40,41
 282 451 282 451 282 398 c 0,42,43
 282 353 282 353 251 353 c 1,44,-1
 303 292 l 1,45,-1
 359 353 l 1,46,47
 328 353 328 353 328 398 c 0,48,49
 328 451 328 451 377 451 c 2,50,-1
 481 451 l 2,51,52
 513 451 513 451 527.5 438.5 c 128,-1,53
 542 426 542 426 542 397 c 0,54,55
 542 343 542 343 485 343 c 0,56,57
 473 343 473 343 466 344 c 1,58,-1
 364 233 l 1,59,-1
 486 108 l 2,0,1
EndSplineSet
EndChar
StartChar: y
Encoding: 121 121 92
Width: 602
Flags: W
LayerCount: 2
Back
Fore
SplineSet
510 451 m 2,0,1
 542 451 542 451 557 439.5 c 128,-1,2
 572 428 572 428 572 398 c 0,3,4
 572 344 572 344 518 344 c 2,5,-1
 510 344 l 1,6,-1
 309 -87 l 1,7,-1
 331 -87 l 2,8,9
 363 -87 363 -87 378 -99 c 128,-1,10
 393 -111 393 -111 393 -141 c 128,-1,11
 393 -171 393 -171 378 -183 c 128,-1,12
 363 -195 363 -195 331 -195 c 2,13,-1
 117 -195 l 2,14,15
 85 -195 85 -195 70 -183 c 128,-1,16
 55 -171 55 -171 55 -141 c 128,-1,17
 55 -111 55 -111 70 -99 c 128,-1,18
 85 -87 85 -87 117 -87 c 2,19,-1
 193 -87 l 1,20,-1
 239 11 l 1,21,-1
 91 344 l 1,22,-1
 83 344 l 2,23,24
 29 344 29 344 29 398 c 0,25,26
 29 428 29 428 44 439.5 c 128,-1,27
 59 451 59 451 91 451 c 2,28,-1
 215 451 l 2,29,30
 247 451 247 451 262 439.5 c 128,-1,31
 277 428 277 428 277 398 c 0,32,33
 277 344 277 344 223 344 c 2,34,-1
 215 344 l 1,35,-1
 303 136 l 1,36,-1
 395 344 l 1,37,-1
 387 344 l 2,38,39
 333 344 333 344 333 398 c 0,40,41
 333 428 333 428 348 439.5 c 128,-1,42
 363 451 363 451 395 451 c 2,43,-1
 510 451 l 2,0,1
EndSplineSet
EndChar
StartChar: z
Encoding: 122 122 93
Width: 602
Flags: W
LayerCount: 2
Back
Fore
SplineSet
240 98 m 1,0,-1
 399 98 l 1,1,-1
 402 132 l 2,2,3
 404 165 404 165 414 179 c 128,-1,4
 424 193 424 193 450 193 c 0,5,6
 479 193 479 193 490 178.5 c 128,-1,7
 501 164 501 164 501 132 c 2,8,-1
 501 60 l 2,9,10
 501 20 501 20 490.5 10 c 128,-1,11
 480 0 480 0 444 0 c 2,12,-1
 141 0 l 2,13,14
 82 0 82 0 82 49 c 0,15,16
 82 77 82 77 106 103 c 2,17,-1
 343 353 l 1,18,-1
 193 353 l 1,19,-1
 193 330 l 2,20,21
 193 268 193 268 144 268 c 0,22,23
 115 268 115 268 104.5 282.5 c 128,-1,24
 94 297 94 297 94 330 c 2,25,-1
 94 392 l 2,26,27
 94 432 94 432 104 441.5 c 128,-1,28
 114 451 114 451 150 451 c 2,29,-1
 438 451 l 2,30,31
 497 451 497 451 497 402 c 0,32,33
 497 373 497 373 472 347 c 2,34,-1
 240 98 l 1,0,-1
EndSplineSet
EndChar
StartChar: bar
Encoding: 124 124 95
Width: 602
Flags: W
LayerCount: 2
Back
Fore
SplineSet
359 -208 m 2,0,1
 359 -228 359 -228 343 -244.5 c 128,-1,2
 327 -261 327 -261 301 -261 c 0,3,4
 276 -261 276 -261 259.5 -245 c 128,-1,5
 243 -229 243 -229 243 -208 c 2,6,-1
 243 735 l 2,7,8
 243 755 243 755 259 771.5 c 128,-1,9
 275 788 275 788 301 788 c 0,10,11
 326 788 326 788 342.5 772 c 128,-1,12
 359 756 359 756 359 735 c 2,13,-1
 359 -208 l 2,0,1
EndSplineSet
EndChar
StartChar: braceright
Encoding: 125 125 96
Width: 602
Flags: W
LayerCount: 2
Back
Fore
SplineSet
355 353 m 2,0,1
 355 301 355 301 367 279 c 128,-1,2
 379 257 379 257 419 251 c 0,3,4
 472 244 472 244 472 198 c 128,-1,5
 472 152 472 152 419 145 c 0,6,7
 379 139 379 139 367 117.5 c 128,-1,8
 355 96 355 96 355 44 c 2,9,-1
 355 -23 l 2,10,11
 355 -106 355 -106 319.5 -145 c 128,-1,12
 284 -184 284 -184 195 -184 c 0,13,14
 143 -184 143 -184 143 -141 c 0,15,16
 143 -126 143 -126 151.5 -117 c 128,-1,17
 160 -108 160 -108 170.5 -105 c 128,-1,18
 181 -102 181 -102 202 -98 c 0,19,20
 206 -97 206 -97 208 -97 c 0,21,22
 234 -92 234 -92 241.5 -74 c 128,-1,23
 249 -56 249 -56 249 -12 c 2,24,-1
 249 36 l 2,25,26
 249 116 249 116 269.5 152 c 128,-1,27
 290 188 290 188 350 198 c 1,28,29
 290 208 290 208 269.5 244.5 c 128,-1,30
 249 281 249 281 249 361 c 2,31,-1
 249 409 l 2,32,33
 249 453 249 453 242 469.5 c 128,-1,34
 235 486 235 486 209 493 c 0,35,36
 203 494 203 494 191 496.5 c 128,-1,37
 179 499 179 499 172.5 501 c 128,-1,38
 166 503 166 503 158 507.5 c 128,-1,39
 150 512 150 512 146.5 519.5 c 128,-1,40
 143 527 143 527 143 538 c 0,41,42
 143 581 143 581 195 581 c 0,43,44
 283 581 283 581 319 542 c 128,-1,45
 355 503 355 503 355 419 c 2,46,-1
 355 353 l 2,0,1
EndSplineSet
EndChar
StartChar: exclamdown
Encoding: 161 161 98
Width: 602
Flags: W
LayerCount: 2
Back
Fore
SplineSet
366 55 m 1,0,1
 366 55 366 55 366 50 c 0,2,3
 366 22 366 22 349 5.5 c 128,-1,4
 332 -11 332 -11 302 -11 c 128,-1,5
 272 -11 272 -11 254.5 5.5 c 128,-1,6
 237 22 237 22 237 50 c 2,7,-1
 237 55 l 1,8,-1
 256 372 l 2,9,10
 257 387 257 387 269.5 398 c 128,-1,11
 282 409 282 409 302 409 c 0,12,13
 321 409 321 409 333.5 398 c 128,-1,14
 346 387 346 387 347 372 c 2,15,-1
 366 55 l 1,0,1
397 530 m 0,16,17
 397 495 397 495 371 472 c 128,-1,18
 345 449 345 449 302 449 c 0,19,20
 258 449 258 449 231.5 471.5 c 128,-1,21
 205 494 205 494 205 530 c 128,-1,22
 205 566 205 566 231.5 589 c 128,-1,23
 258 612 258 612 302 612 c 0,24,25
 345 612 345 612 371 589 c 128,-1,26
 397 566 397 566 397 530 c 0,16,17
EndSplineSet
EndChar
StartChar: cent
Encoding: 162 162 99
Width: 602
Flags: W
LayerCount: 2
Back
Fore
SplineSet
428 489 m 1,0,1
 438 523 438 523 472 523 c 0,2,3
 497 523 497 523 506.5 507.5 c 128,-1,4
 516 492 516 492 516 459 c 2,5,-1
 516 388 l 2,6,7
 516 336 516 336 472 336 c 0,8,9
 443 336 443 336 422 372 c 0,10,11
 388 430 388 430 307 430 c 0,12,13
 256 430 256 430 223.5 396 c 128,-1,14
 191 362 191 362 191 311 c 0,15,16
 191 258 191 258 224 225 c 128,-1,17
 257 192 257 192 315 192 c 0,18,19
 354 192 354 192 387 206 c 128,-1,20
 420 220 420 220 443 234 c 128,-1,21
 466 248 466 248 479 248 c 0,22,23
 496 248 496 248 506.5 235.5 c 128,-1,24
 517 223 517 223 517 204 c 0,25,26
 517 169 517 169 469.5 140.5 c 128,-1,27
 422 112 422 112 338 103 c 1,28,-1
 329 -5 l 2,29,30
 326 -33 326 -33 288 -33 c 0,31,32
 248 -33 248 -33 248 -6 c 2,33,-1
 248 -4 l 1,34,-1
 256 104 l 1,35,36
 171 118 171 118 121 175 c 128,-1,37
 71 232 71 232 71 311 c 0,38,39
 71 393 71 393 126.5 451.5 c 128,-1,40
 182 510 182 510 272 520 c 1,41,-1
 280 618 l 2,42,43
 283 646 283 646 319 646 c 0,44,45
 361 646 361 646 361 619 c 2,46,-1
 361 617 l 1,47,-1
 353 516 l 1,48,49
 392 508 392 508 428 489 c 1,0,1
EndSplineSet
EndChar
StartChar: sterling
Encoding: 163 163 100
Width: 602
Flags: W
LayerCount: 2
Back
Fore
SplineSet
266 344 m 1,0,-1
 422 344 l 2,1,2
 441 344 441 344 441 316 c 2,3,-1
 441 281 l 2,4,5
 441 259 441 259 425 259 c 2,6,-1
 285 259 l 1,7,8
 297 211 297 211 297 191 c 0,9,10
 297 161 297 161 281 116 c 1,11,12
 313 115 313 115 345 109.5 c 128,-1,13
 377 104 377 104 379 104 c 0,14,15
 399 104 399 104 426.5 118.5 c 128,-1,16
 454 133 454 133 464 133 c 0,17,18
 480 133 480 133 496 113 c 128,-1,19
 512 93 512 93 512 73 c 0,20,21
 512 43 512 43 475.5 17.5 c 128,-1,22
 439 -8 439 -8 387 -8 c 0,23,24
 359 -8 359 -8 310 3 c 128,-1,25
 261 14 261 14 239 14 c 0,26,27
 211 14 211 14 179 0 c 128,-1,28
 147 -14 147 -14 145 -14 c 0,29,30
 131 -14 131 -14 118 7.5 c 128,-1,31
 105 29 105 29 105 47 c 0,32,33
 105 52 105 52 108.5 57 c 128,-1,34
 112 62 112 62 116.5 65 c 128,-1,35
 121 68 121 68 131 74.5 c 128,-1,36
 141 81 141 81 147 85 c 0,37,38
 167 99 167 99 174.5 114 c 128,-1,39
 182 129 182 129 182 157 c 0,40,41
 182 194 182 194 162 259 c 1,42,-1
 99 259 l 2,43,44
 80 259 80 259 80 287 c 2,45,-1
 80 322 l 2,46,47
 80 344 80 344 97 344 c 2,48,-1
 139 344 l 1,49,50
 111 422 111 422 111 470 c 0,51,52
 111 548 111 548 161.5 590 c 128,-1,53
 212 632 212 632 305 632 c 0,54,55
 380 632 380 632 424.5 609 c 128,-1,56
 469 586 469 586 472 543 c 2,57,-1
 475 502 l 1,58,-1
 475 497 l 2,59,60
 475 454 475 454 421 454 c 0,61,62
 413 454 413 454 407.5 456 c 128,-1,63
 402 458 402 458 397.5 464 c 128,-1,64
 393 470 393 470 391.5 473 c 128,-1,65
 390 476 390 476 386 486 c 128,-1,66
 382 496 382 496 381 498 c 0,67,68
 361 542 361 542 313 542 c 0,69,70
 278 542 278 542 257 522.5 c 128,-1,71
 236 503 236 503 236 471 c 0,72,73
 236 451 236 451 266 344 c 1,0,-1
EndSplineSet
EndChar
StartChar: yen
Encoding: 165 165 102
Width: 602
Flags: W
LayerCount: 2
Back
Fore
SplineSet
103 508 m 1,0,1
 103 508 103 508 95 508 c 0,2,3
 43 508 43 508 43 562 c 0,4,5
 43 591 43 591 57.5 603 c 128,-1,6
 72 615 72 615 103 615 c 2,7,-1
 215 615 l 2,8,9
 243 615 243 615 255.5 603.5 c 128,-1,10
 268 592 268 592 268 562 c 0,11,12
 268 508 268 508 222 508 c 2,13,-1
 220 508 l 1,14,-1
 309 315 l 1,15,-1
 397 509 l 1,16,-1
 395 509 l 2,17,18
 350 509 350 509 350 562 c 0,19,20
 350 591 350 591 363 603 c 128,-1,21
 376 615 376 615 404 615 c 2,22,-1
 498 615 l 2,23,24
 529 615 529 615 544 603 c 128,-1,25
 559 591 559 591 559 562 c 0,26,27
 559 509 559 509 508 509 c 2,28,-1
 500 509 l 1,29,-1
 471 446 l 1,30,-1
 522 446 l 2,31,32
 559 446 559 446 559 409 c 128,-1,33
 559 372 559 372 522 372 c 2,34,-1
 434 372 l 1,35,-1
 399 304 l 1,36,-1
 522 304 l 2,37,38
 559 304 559 304 559 267 c 128,-1,39
 559 230 559 230 522 230 c 2,40,-1
 363 230 l 1,41,-1
 363 109 l 1,42,-1
 431 109 l 2,43,44
 463 109 463 109 478 96.5 c 128,-1,45
 493 84 493 84 493 55 c 0,46,47
 493 0 493 0 431 0 c 2,48,-1
 178 0 l 2,49,50
 146 0 146 0 131 12.5 c 128,-1,51
 116 25 116 25 116 54 c 128,-1,52
 116 83 116 83 131 96 c 128,-1,53
 146 109 146 109 178 109 c 2,54,-1
 246 109 l 1,55,-1
 246 230 l 1,56,-1
 79 230 l 2,57,58
 43 230 43 230 43 267 c 128,-1,59
 43 304 43 304 79 304 c 2,60,-1
 201 304 l 1,61,-1
 168 372 l 1,62,-1
 79 372 l 2,63,64
 43 372 43 372 43 409 c 128,-1,65
 43 446 43 446 79 446 c 2,66,-1
 130 446 l 1,67,-1
 103 508 l 1,0,1
EndSplineSet
EndChar
StartChar: brokenbar
Encoding: 166 166 216
Width: 602
Flags: W
LayerCount: 2
Back
Fore
SplineSet
253 329 m 1,0,-1
 253 699 l 1,1,-1
 348 699 l 1,2,-1
 348 329 l 1,3,-1
 253 329 l 1,0,-1
253 -172 m 1,4,-1
 253 199 l 1,5,-1
 348 199 l 1,6,-1
 348 -172 l 1,7,-1
 253 -172 l 1,4,-1
EndSplineSet
EndChar
StartChar: section
Encoding: 167 167 104
Width: 602
Flags: W
LayerCount: 2
Back
Fore
SplineSet
456 37 m 1,0,1
 459 16 459 16 459 4 c 0,2,3
 459 -49 459 -49 414 -80 c 0,4,5
 378 -105 378 -105 300 -105 c 2,6,7
 300 -105 300 -105 281 -105 c 2,8,-1
 130 -105 l 2,9,10
 97 -105 97 -105 97 -78 c 2,11,-1
 97 24 l 2,12,13
 97 61 97 61 139 61 c 0,14,15
 157 61 157 61 168.5 50.5 c 128,-1,16
 180 40 180 40 180 24 c 2,17,-1
 180 -26 l 1,18,-1
 290 -26 l 2,19,20
 329 -26 329 -26 345.5 -18 c 128,-1,21
 362 -10 362 -10 362 14 c 0,22,23
 362 46 362 46 310 80 c 2,24,-1
 159 182 l 2,25,26
 64 246 64 246 64 328 c 0,27,28
 64 417 64 417 147 439 c 1,29,30
 145 453 145 453 145 471 c 0,31,32
 145 523 145 523 190 554 c 0,33,34
 225 579 225 579 303 579 c 2,35,-1
 322 579 l 1,36,-1
 461 579 l 2,37,38
 494 579 494 579 494 552 c 2,39,-1
 494 450 l 2,40,41
 494 413 494 413 453 413 c 0,42,43
 434 413 434 413 422.5 423.5 c 128,-1,44
 411 434 411 434 411 450 c 2,45,-1
 411 500 l 1,46,-1
 313 500 l 2,47,48
 274 500 274 500 257.5 492 c 128,-1,49
 241 484 241 484 241 460 c 0,50,51
 241 428 241 428 293 394 c 2,52,-1
 444 292 l 2,53,54
 539 228 539 228 539 146 c 0,55,56
 539 102 539 102 517 73 c 128,-1,57
 495 44 495 44 456 37 c 1,0,1
422 96 m 1,58,59
 450 108 450 108 450 131 c 0,60,61
 450 167 450 167 382 212 c 2,62,-1
 233 312 l 2,63,64
 192 339 192 339 170 375 c 1,65,66
 147 364 147 364 147 342 c 0,67,68
 147 306 147 306 214 261 c 2,69,-1
 364 160 l 2,70,71
 408 130 408 130 422 96 c 1,58,59
EndSplineSet
EndChar
StartChar: dieresis
Encoding: 168 168 133
Width: 602
Flags: W
LayerCount: 2
Back
Fore
SplineSet
118 582 m 0,0,1
 118 606 118 606 137 625 c 128,-1,2
 156 644 156 644 181 644 c 128,-1,3
 206 644 206 644 223.5 625.5 c 128,-1,4
 241 607 241 607 241 582 c 0,5,6
 241 554 241 554 224 537 c 128,-1,7
 207 520 207 520 181 520 c 128,-1,8
 155 520 155 520 136.5 538 c 128,-1,9
 118 556 118 556 118 582 c 0,0,1
360 582 m 0,10,11
 360 606 360 606 379 625 c 128,-1,12
 398 644 398 644 423 644 c 128,-1,13
 448 644 448 644 466 625.5 c 128,-1,14
 484 607 484 607 484 582 c 0,15,16
 484 554 484 554 467 537 c 128,-1,17
 450 520 450 520 423 520 c 0,18,19
 397 520 397 520 378.5 538 c 128,-1,20
 360 556 360 556 360 582 c 0,10,11
EndSplineSet
EndChar
StartChar: ordfeminine
Encoding: 170 170 141
Width: 602
Flags: W
LayerCount: 2
Back
Fore
SplineSet
462 492 m 2,0,-1
 462 348 l 1,1,2
 462 348 462 348 469 348 c 0,3,4
 511 348 511 348 511 305 c 128,-1,5
 511 262 511 262 461 262 c 2,6,-1
 424 262 l 2,7,8
 405 262 405 262 396 268.5 c 128,-1,9
 387 275 387 275 380 296 c 1,10,11
 312 252 312 252 238 252 c 0,12,13
 176 252 176 252 139.5 283.5 c 128,-1,14
 103 315 103 315 103 370 c 0,15,16
 103 428 103 428 149.5 460.5 c 128,-1,17
 196 493 196 493 281 493 c 0,18,19
 311 493 311 493 367 484 c 1,20,-1
 367 492 l 2,21,22
 367 563 367 563 300 563 c 0,23,24
 274 563 274 563 234 544 c 128,-1,25
 194 525 194 525 175 525 c 128,-1,26
 156 525 156 525 145 536.5 c 128,-1,27
 134 548 134 548 134 565 c 0,28,29
 134 595 134 595 180 614 c 128,-1,30
 226 633 226 633 306 633 c 0,31,32
 392 633 392 633 427 599.5 c 128,-1,33
 462 566 462 566 462 492 c 2,0,-1
367 363 m 1,34,-1
 367 423 l 1,35,36
 322 432 322 432 302 432 c 0,37,38
 258 432 258 432 233.5 417 c 128,-1,39
 209 402 209 402 209 376 c 0,40,41
 209 331 209 331 270 331 c 0,42,43
 320 331 320 331 367 363 c 1,34,-1
130 206 m 2,44,-1
 470 206 l 2,45,46
 489 206 489 206 489 191 c 2,47,-1
 489 162 l 2,48,49
 489 155 489 155 483.5 149.5 c 128,-1,50
 478 144 478 144 470 144 c 2,51,-1
 130 144 l 2,52,53
 113 144 113 144 113 162 c 2,54,-1
 113 191 l 2,55,56
 113 206 113 206 130 206 c 2,44,-1
EndSplineSet
EndChar
StartChar: guillemotleft
Encoding: 171 171 108
Width: 602
Flags: W
LayerCount: 2
Back
Fore
SplineSet
393 223 m 1,0,-1
 455 91 l 2,1,2
 458 83 458 83 458 73 c 0,3,4
 458 58 458 58 446 47 c 128,-1,5
 434 36 434 36 418 36 c 0,6,7
 396 36 396 36 387 53 c 2,8,-1
 310 203 l 2,9,10
 303 216 303 216 303 225 c 0,11,12
 303 236 303 236 310 249 c 2,13,-1
 387 394 l 2,14,15
 396 410 396 410 418 410 c 0,16,17
 434 410 434 410 446 399 c 128,-1,18
 458 388 458 388 458 373 c 0,19,20
 458 364 458 364 455 356 c 2,21,-1
 393 223 l 1,0,-1
233 223 m 1,22,-1
 294 91 l 2,23,24
 298 81 298 81 298 73 c 0,25,26
 298 58 298 58 286 47 c 128,-1,27
 274 36 274 36 258 36 c 0,28,29
 236 36 236 36 227 53 c 2,30,-1
 150 203 l 2,31,32
 143 216 143 216 143 225 c 0,33,34
 143 236 143 236 150 249 c 2,35,-1
 227 394 l 2,36,37
 236 410 236 410 258 410 c 0,38,39
 274 410 274 410 286 399 c 128,-1,40
 298 388 298 388 298 373 c 0,41,42
 298 366 298 366 294 356 c 2,43,-1
 233 223 l 1,22,-1
EndSplineSet
EndChar
StartChar: logicalnot
Encoding: 172 172 210
Width: 602
Flags: W
LayerCount: 2
Back
Fore
SplineSet
465 359 m 1,0,-1
 87 359 l 2,1,2
 63 359 63 359 48.5 372.5 c 128,-1,3
 34 386 34 386 34 408 c 128,-1,4
 34 430 34 430 49 444 c 128,-1,5
 64 458 64 458 87 458 c 2,6,-1
 524 458 l 2,7,8
 543 458 543 458 554.5 448.5 c 128,-1,9
 566 439 566 439 566 424 c 2,10,-1
 566 210 l 2,11,12
 566 186 566 186 552 171.5 c 128,-1,13
 538 157 538 157 514 157 c 0,14,15
 465 157 465 157 465 210 c 2,16,-1
 465 359 l 1,0,-1
EndSplineSet
EndChar
StartChar: registered
Encoding: 174 174 211
Width: 602
Flags: W
LayerCount: 2
Back
Fore
SplineSet
1 332 m 0,0,1
 1 452 1 452 89 542 c 0,2,3
 176 631 176 631 301 631 c 0,4,5
 423 631 423 631 512 544 c 0,6,7
 553 503 553 503 576.5 446.5 c 128,-1,8
 600 390 600 390 600 332 c 0,9,10
 600 211 600 211 511 120 c 0,11,12
 424 33 424 33 300 33 c 0,13,14
 179 33 179 33 90 120 c 128,-1,15
 1 207 1 207 1 332 c 0,0,1
52 332 m 0,16,17
 52 229 52 229 126 155 c 0,18,19
 202 81 202 81 300 81 c 0,20,21
 403 81 403 81 475 155 c 0,22,23
 549 231 549 231 549 332 c 0,24,25
 549 436 549 436 475 510 c 0,26,27
 402 583 402 583 301 583 c 0,28,29
 197 583 197 583 125 509 c 0,30,31
 52 434 52 434 52 332 c 0,16,17
367 326 m 1,32,33
 371 324 371 324 382 308 c 2,34,-1
 426 239 l 1,35,36
 426 239 426 239 433 239 c 0,37,38
 465 239 465 239 465 210 c 0,39,40
 465 194 465 194 457.5 187 c 128,-1,41
 450 180 450 180 432 180 c 2,42,-1
 399 180 l 2,43,44
 386 180 386 180 380.5 183 c 128,-1,45
 375 186 375 186 369 196 c 2,46,-1
 305 298 l 2,47,48
 298 309 298 309 286 309 c 2,49,-1
 261 309 l 1,50,-1
 261 239 l 1,51,-1
 264 239 l 2,52,53
 295 239 295 239 295 210 c 0,54,55
 295 180 295 180 260 180 c 2,56,-1
 192 180 l 2,57,58
 158 180 158 180 158 210 c 0,59,60
 158 239 158 239 187 239 c 2,61,-1
 192 239 l 1,62,-1
 192 437 l 1,63,64
 192 437 192 437 187 437 c 0,65,66
 158 437 158 437 158 467 c 0,67,68
 158 496 158 496 192 496 c 2,69,-1
 314 496 l 2,70,71
 429 496 429 496 429 409 c 0,72,73
 429 350 429 350 367 326 c 1,32,33
258 439 m 1,74,-1
 258 363 l 1,75,-1
 294 363 l 2,76,77
 325 363 325 363 339 371.5 c 128,-1,78
 353 380 353 380 353 401 c 0,79,80
 353 439 353 439 303 439 c 2,81,-1
 258 439 l 1,74,-1
EndSplineSet
EndChar
StartChar: macron
Encoding: 175 175 130
Width: 602
Flags: W
LayerCount: 2
Back
Fore
SplineSet
471 566 m 2,0,1
 471 558 471 558 466.5 552.5 c 128,-1,2
 462 547 462 547 456 547 c 2,3,-1
 146 547 l 2,4,5
 140 547 140 547 135.5 552.5 c 128,-1,6
 131 558 131 558 131 566 c 2,7,-1
 131 596 l 2,8,9
 131 615 131 615 146 615 c 2,10,-1
 456 615 l 2,11,12
 471 615 471 615 471 596 c 2,13,-1
 471 566 l 2,0,1
EndSplineSet
EndChar
StartChar: plusminus
Encoding: 177 177 225
Width: 602
Flags: W
LayerCount: 2
Back
Fore
SplineSet
115 30 m 2,0,1
 91 30 91 30 76 44 c 128,-1,2
 61 58 61 58 61 80 c 0,3,4
 61 103 61 103 76 117 c 128,-1,5
 91 131 91 131 115 131 c 2,6,-1
 487 131 l 2,7,8
 511 131 511 131 526 117 c 128,-1,9
 541 103 541 103 541 81 c 0,10,11
 541 58 541 58 526 44 c 128,-1,12
 511 30 511 30 487 30 c 2,13,-1
 115 30 l 2,0,1
351 218 m 2,14,15
 351 194 351 194 337 179 c 128,-1,16
 323 164 323 164 300 164 c 0,17,18
 278 164 278 164 264 179 c 128,-1,19
 250 194 250 194 250 218 c 2,20,-1
 250 340 l 1,21,-1
 115 340 l 2,22,23
 91 340 91 340 76 354 c 128,-1,24
 61 368 61 368 61 391 c 128,-1,25
 61 414 61 414 76 428 c 128,-1,26
 91 442 91 442 115 442 c 2,27,-1
 250 442 l 1,28,-1
 250 565 l 2,29,30
 250 589 250 589 264 604 c 128,-1,31
 278 619 278 619 300 619 c 0,32,33
 323 619 323 619 337 604 c 128,-1,34
 351 589 351 589 351 565 c 2,35,-1
 351 442 l 1,36,-1
 487 442 l 2,37,38
 511 442 511 442 526 428 c 128,-1,39
 541 414 541 414 541 391 c 128,-1,40
 541 368 541 368 526 354 c 128,-1,41
 511 340 511 340 487 340 c 2,42,-1
 351 340 l 1,43,-1
 351 218 l 2,14,15
EndSplineSet
EndChar
StartChar: threesuperior
Encoding: 179 179 228
Width: 602
Flags: W
LayerCount: 2
Back
Fore
SplineSet
375 445 m 1,0,1
 452 409 452 409 452 345 c 0,2,3
 452 293 452 293 404.5 258 c 128,-1,4
 357 223 357 223 278 223 c 0,5,6
 211 223 211 223 169 244.5 c 128,-1,7
 127 266 127 266 127 296 c 0,8,9
 127 310 127 310 137.5 319.5 c 128,-1,10
 148 329 148 329 164 329 c 0,11,12
 174 329 174 329 210.5 313.5 c 128,-1,13
 247 298 247 298 280 298 c 0,14,15
 314 298 314 298 336 313.5 c 128,-1,16
 358 329 358 329 358 350 c 0,17,18
 358 394 358 394 295 400 c 0,19,20
 249 405 249 405 241 412 c 0,21,22
 232 419 232 419 232 437 c 0,23,24
 232 453 232 453 242 463 c 128,-1,25
 252 473 252 473 262 473 c 0,26,27
 297 473 297 473 318 485 c 128,-1,28
 339 497 339 497 339 517 c 0,29,30
 339 536 339 536 324 547.5 c 128,-1,31
 309 559 309 559 284 559 c 0,32,33
 261 559 261 559 229 541.5 c 128,-1,34
 197 524 197 524 184 524 c 0,35,36
 170 524 170 524 161.5 532 c 128,-1,37
 153 540 153 540 153 551 c 0,38,39
 153 581 153 581 194.5 606.5 c 128,-1,40
 236 632 236 632 293 632 c 0,41,42
 353 632 353 632 391.5 602.5 c 128,-1,43
 430 573 430 573 430 531 c 0,44,45
 430 484 430 484 375 445 c 1,0,1
EndSplineSet
EndChar
StartChar: acute
Encoding: 180 180 127
Width: 602
Flags: W
LayerCount: 2
Back
Fore
SplineSet
196 531 m 1,0,-1
 428 667 l 2,1,2
 432 669 432 669 436 669 c 0,3,4
 452 669 452 669 459 654 c 2,5,-1
 479 612 l 2,6,7
 481 606 481 606 481 604 c 0,8,9
 481 590 481 590 468 584 c 2,10,-1
 212 493 l 1,11,-1
 196 531 l 1,0,-1
EndSplineSet
EndChar
StartChar: paragraph
Encoding: 182 182 117
Width: 602
Flags: W
LayerCount: 2
Back
Fore
SplineSet
504 616 m 2,0,1
 536 616 536 616 550.5 604 c 128,-1,2
 565 592 565 592 565 562 c 0,3,4
 565 508 565 508 512 508 c 2,5,-1
 504 508 l 1,6,-1
 504 31 l 1,7,8
 504 31 504 31 512 31 c 0,9,10
 565 31 565 31 565 -23 c 0,11,12
 565 -53 565 -53 550.5 -64.5 c 128,-1,13
 536 -76 536 -76 504 -76 c 2,14,-1
 408 -76 l 2,15,16
 371 -76 371 -76 371 -36 c 0,17,18
 371 -14 371 -14 389 5 c 1,19,-1
 389 508 l 1,20,-1
 333 508 l 1,21,-1
 333 5 l 1,22,23
 354 -8 354 -8 354 -36 c 0,24,25
 354 -59 354 -59 346 -67.5 c 128,-1,26
 338 -76 338 -76 316 -76 c 2,27,-1
 215 -76 l 2,28,29
 183 -76 183 -76 168.5 -64.5 c 128,-1,30
 154 -53 154 -53 154 -23 c 0,31,32
 154 31 154 31 207 31 c 2,33,-1
 215 31 l 1,34,-1
 215 257 l 1,35,36
 135 269 135 269 90.5 316 c 128,-1,37
 46 363 46 363 46 433 c 0,38,39
 46 521 46 521 121 568.5 c 128,-1,40
 196 616 196 616 342 616 c 2,41,-1
 504 616 l 2,0,1
EndSplineSet
EndChar
StartChar: periodcentered
Encoding: 183 183 116
Width: 602
Flags: W
LayerCount: 2
Back
Fore
SplineSet
202 308 m 128,-1,1
 202 349 202 349 231 378 c 128,-1,2
 260 407 260 407 301 407 c 128,-1,3
 342 407 342 407 371 378 c 128,-1,4
 400 349 400 349 400 308 c 0,5,6
 400 266 400 266 371 237.5 c 128,-1,7
 342 209 342 209 301 209 c 0,8,9
 259 209 259 209 230.5 238 c 128,-1,0
 202 267 202 267 202 308 c 128,-1,1
EndSplineSet
EndChar
StartChar: cedilla
Encoding: 184 184 135
Width: 602
Flags: W
LayerCount: 2
Back
Fore
SplineSet
312 0 m 1,0,-1
 312 -65 l 1,1,2
 346 -61 346 -61 347 -61 c 0,3,4
 387 -61 387 -61 412 -84.5 c 128,-1,5
 437 -108 437 -108 437 -145 c 0,6,7
 437 -187 437 -187 405.5 -210 c 128,-1,8
 374 -233 374 -233 317 -233 c 0,9,10
 267 -233 267 -233 223.5 -216 c 128,-1,11
 180 -199 180 -199 180 -178 c 0,12,13
 180 -160 180 -160 202 -160 c 0,14,15
 208 -160 208 -160 240 -172.5 c 128,-1,16
 272 -185 272 -185 299 -185 c 0,17,18
 344 -185 344 -185 344 -144 c 0,19,20
 344 -107 344 -107 295 -107 c 0,21,22
 290 -107 290 -107 270 -110 c 1,23,-1
 270 0 l 1,24,-1
 312 0 l 1,0,-1
EndSplineSet
EndChar
StartChar: ordmasculine
Encoding: 186 186 145
Width: 602
Flags: W
LayerCount: 2
Back
Fore
SplineSet
514 442 m 128,-1,1
 514 360 514 360 455 306.5 c 128,-1,2
 396 253 396 253 300 253 c 0,3,4
 205 253 205 253 146 306.5 c 128,-1,5
 87 360 87 360 87 442 c 128,-1,6
 87 524 87 524 146 578 c 128,-1,7
 205 632 205 632 300 632 c 128,-1,8
 395 632 395 632 454.5 578 c 128,-1,0
 514 524 514 524 514 442 c 128,-1,1
300 335 m 128,-1,10
 346 335 346 335 375.5 365 c 128,-1,11
 405 395 405 395 405 442 c 0,12,13
 405 488 405 488 375.5 518.5 c 128,-1,14
 346 549 346 549 300 549 c 128,-1,15
 254 549 254 549 225 518.5 c 128,-1,16
 196 488 196 488 196 442 c 0,17,18
 196 395 196 395 225 365 c 128,-1,9
 254 335 254 335 300 335 c 128,-1,10
130 206 m 2,19,-1
 470 206 l 2,20,21
 489 206 489 206 489 191 c 2,22,-1
 489 162 l 2,23,24
 489 155 489 155 483.5 149.5 c 128,-1,25
 478 144 478 144 470 144 c 2,26,-1
 130 144 l 2,27,28
 113 144 113 144 113 162 c 2,29,-1
 113 191 l 2,30,31
 113 206 113 206 130 206 c 2,19,-1
EndSplineSet
EndChar
StartChar: guillemotright
Encoding: 187 187 122
Width: 602
Flags: W
LayerCount: 2
Back
Fore
SplineSet
367 223 m 1,0,-1
 305 356 l 2,1,2
 301 366 301 366 301 373 c 0,3,4
 301 388 301 388 313.5 399 c 128,-1,5
 326 410 326 410 342 410 c 0,6,7
 363 410 363 410 372 394 c 2,8,-1
 450 244 l 2,9,10
 457 231 457 231 457 221 c 0,11,12
 457 210 457 210 450 197 c 2,13,-1
 372 53 l 2,14,15
 363 36 363 36 342 36 c 0,16,17
 326 36 326 36 313.5 47 c 128,-1,18
 301 58 301 58 301 73 c 0,19,20
 301 81 301 81 305 91 c 2,21,-1
 367 223 l 1,0,-1
206 223 m 1,22,-1
 145 356 l 2,23,24
 141 366 141 366 141 373 c 0,25,26
 141 388 141 388 153.5 399 c 128,-1,27
 166 410 166 410 182 410 c 0,28,29
 203 410 203 410 212 394 c 2,30,-1
 290 244 l 2,31,32
 297 231 297 231 297 221 c 0,33,34
 297 210 297 210 290 197 c 2,35,-1
 212 53 l 2,36,37
 203 36 203 36 182 36 c 0,38,39
 166 36 166 36 153.5 47 c 128,-1,40
 141 58 141 58 141 73 c 0,41,42
 141 81 141 81 145 91 c 2,43,-1
 206 223 l 1,22,-1
EndSplineSet
EndChar
StartChar: questiondown
Encoding: 191 191 125
Width: 602
Flags: W
LayerCount: 2
Back
Fore
SplineSet
251 534 m 0,0,1
 251 568 251 568 277.5 590 c 128,-1,2
 304 612 304 612 347 612 c 0,3,4
 391 612 391 612 416.5 590 c 128,-1,5
 442 568 442 568 442 534 c 128,-1,6
 442 500 442 500 416 478.5 c 128,-1,7
 390 457 390 457 347 457 c 128,-1,8
 304 457 304 457 277.5 479 c 128,-1,9
 251 501 251 501 251 534 c 0,0,1
402 353 m 2,10,11
 402 319 402 319 390.5 300 c 128,-1,12
 379 281 379 281 344 262 c 0,13,14
 332 256 332 256 312 246 c 128,-1,15
 292 236 292 236 282 230.5 c 128,-1,16
 272 225 272 225 260.5 215 c 128,-1,17
 249 205 249 205 244 192 c 128,-1,18
 239 179 239 179 239 161 c 0,19,20
 239 126 239 126 262.5 105 c 128,-1,21
 286 84 286 84 327 84 c 128,-1,22
 368 84 368 84 382 92 c 128,-1,23
 396 100 396 100 401 121 c 0,24,25
 406 145 406 145 415.5 155.5 c 128,-1,26
 425 166 425 166 452 166 c 0,27,28
 493 166 493 166 493 119 c 2,29,-1
 493 57 l 2,30,31
 493 31 493 31 438.5 12 c 128,-1,32
 384 -7 384 -7 305 -7 c 0,33,34
 216 -7 216 -7 165 40 c 128,-1,35
 114 87 114 87 114 166 c 0,36,37
 114 229 114 229 160 275 c 128,-1,38
 206 321 206 321 294 343 c 1,39,-1
 294 381 l 2,40,41
 294 401 294 401 308 412.5 c 128,-1,42
 322 424 322 424 347 424 c 0,43,44
 373 424 373 424 387.5 412.5 c 128,-1,45
 402 401 402 401 402 382 c 2,46,-1
 402 353 l 2,10,11
EndSplineSet
EndChar
StartChar: Aring
Encoding: 197 197 156
Width: 602
Flags: W
LayerCount: 2
Back
Fore
SplineSet
220 265 m 1,0,-1
 362 265 l 1,1,-1
 291 471 l 1,2,-1
 220 265 l 1,0,-1
165 107 m 1,3,-1
 182 107 l 2,4,5
 214 107 214 107 229 95.5 c 128,-1,6
 244 84 244 84 244 54 c 128,-1,7
 244 24 244 24 229 12 c 128,-1,8
 214 0 214 0 182 0 c 2,9,-1
 56 0 l 2,10,11
 24 0 24 0 9 12 c 128,-1,12
 -6 24 -6 24 -6 54 c 0,13,14
 -6 107 -6 107 48 107 c 2,15,-1
 56 107 l 1,16,-1
 187 471 l 1,17,-1
 147 471 l 2,18,19
 115 471 115 471 100.5 483 c 128,-1,20
 86 495 86 495 86 525 c 0,21,22
 86 554 86 554 101 566.5 c 128,-1,23
 116 579 116 579 148 579 c 2,24,-1
 331 579 l 2,25,26
 362 579 362 579 371.5 570 c 128,-1,27
 381 561 381 561 392 531 c 2,28,-1
 547 107 l 1,29,-1
 555 107 l 2,30,31
 609 107 609 107 609 54 c 0,32,33
 609 24 609 24 594 12 c 128,-1,34
 579 0 579 0 547 0 c 2,35,-1
 400 0 l 2,36,37
 368 0 368 0 353 12 c 128,-1,38
 338 24 338 24 338 54 c 128,-1,39
 338 84 338 84 353 95.5 c 128,-1,40
 368 107 368 107 400 107 c 2,41,-1
 417 107 l 1,42,-1
 397 164 l 1,43,-1
 186 164 l 1,44,-1
 165 107 l 1,3,-1
150 743 m 128,-1,46
 150 798 150 798 188.5 836.5 c 128,-1,47
 227 875 227 875 282 875 c 128,-1,48
 337 875 337 875 375.5 836.5 c 128,-1,49
 414 798 414 798 414 743 c 128,-1,50
 414 688 414 688 375.5 649.5 c 128,-1,51
 337 611 337 611 282 611 c 128,-1,52
 227 611 227 611 188.5 649.5 c 128,-1,45
 150 688 150 688 150 743 c 128,-1,46
219 744 m 128,-1,54
 219 718 219 718 237.5 699.5 c 128,-1,55
 256 681 256 681 282 681 c 128,-1,56
 308 681 308 681 326 699.5 c 128,-1,57
 344 718 344 718 344 744 c 128,-1,58
 344 770 344 770 326 788 c 128,-1,59
 308 806 308 806 282 806 c 128,-1,60
 256 806 256 806 237.5 788 c 128,-1,53
 219 770 219 770 219 744 c 128,-1,54
EndSplineSet
EndChar
StartChar: AE
Encoding: 198 198 140
Width: 602
Flags: W
LayerCount: 2
Back
Fore
SplineSet
521 104 m 1,0,-1
 521 162 l 2,1,2
 521 194 521 194 531 208.5 c 128,-1,3
 541 223 541 223 566 223 c 128,-1,4
 591 223 591 223 600.5 208.5 c 128,-1,5
 610 194 610 194 610 162 c 2,6,-1
 610 44 l 2,7,8
 610 18 610 18 602 9 c 128,-1,9
 594 0 594 0 567 0 c 2,10,-1
 273 0 l 1,11,-1
 269 0 l 2,12,13
 244 0 244 0 232.5 2 c 128,-1,14
 221 4 221 4 211.5 16.5 c 128,-1,15
 202 29 202 29 202 54 c 0,16,17
 202 109 202 109 254 109 c 0,18,19
 259 109 259 109 273 107 c 1,20,-1
 273 185 l 1,21,-1
 159 185 l 1,22,-1
 111 18 l 2,23,24
 106 0 106 0 88 0 c 2,25,-1
 35 0 l 1,26,-1
 31 0 l 2,27,28
 13 0 13 0 3.5 1 c 128,-1,29
 -6 2 -6 2 -16.5 7 c 128,-1,30
 -27 12 -27 12 -31 23.5 c 128,-1,31
 -35 35 -35 35 -35 54 c 0,32,33
 -35 109 -35 109 16 109 c 0,34,35
 21 109 21 109 35 107 c 1,36,-1
 146 471 l 1,37,38
 139 470 139 470 127 470 c 0,39,40
 76 470 76 470 76 525 c 0,41,42
 76 545 76 545 80.5 556.5 c 128,-1,43
 85 568 85 568 96 572.5 c 128,-1,44
 107 577 107 577 116.5 578 c 128,-1,45
 126 579 126 579 146 579 c 2,46,-1
 567 579 l 2,47,48
 594 579 594 579 602 569.5 c 128,-1,49
 610 560 610 560 610 534 c 2,50,-1
 610 425 l 2,51,52
 610 393 610 393 600.5 378 c 128,-1,53
 591 363 591 363 566 363 c 128,-1,54
 541 363 541 363 531 378 c 128,-1,55
 521 393 521 393 521 425 c 2,56,-1
 521 476 l 1,57,-1
 375 476 l 1,58,-1
 375 343 l 1,59,-1
 415 343 l 1,60,-1
 415 350 l 2,61,62
 415 394 415 394 452 394 c 0,63,64
 491 394 491 394 491 343 c 2,65,-1
 491 259 l 2,66,67
 491 233 491 233 482.5 220.5 c 128,-1,68
 474 208 474 208 453 208 c 0,69,70
 415 208 415 208 415 253 c 2,71,-1
 415 260 l 1,72,-1
 375 260 l 1,73,-1
 375 104 l 1,74,-1
 521 104 l 1,0,-1
183 269 m 1,75,-1
 273 269 l 1,76,-1
 273 476 l 1,77,-1
 243 476 l 1,78,-1
 183 269 l 1,75,-1
EndSplineSet
EndChar
StartChar: Eth
Encoding: 208 208 213
Width: 602
Flags: W
LayerCount: 2
Back
Fore
SplineSet
221 108 m 1,0,1
 231 107 231 107 249 107 c 0,2,3
 341 107 341 107 384.5 152 c 128,-1,4
 428 197 428 197 428 291 c 0,5,6
 428 474 428 474 250 474 c 0,7,8
 231 474 231 474 221 473 c 1,9,-1
 221 328 l 1,10,-1
 289 328 l 2,11,12
 329 328 329 328 329 290 c 0,13,14
 329 254 329 254 289 254 c 2,15,-1
 221 254 l 1,16,-1
 221 108 l 1,0,1
95 0 m 2,17,18
 63 0 63 0 48 12 c 128,-1,19
 33 24 33 24 33 54 c 0,20,21
 33 107 33 107 87 107 c 2,22,-1
 95 107 l 1,23,-1
 95 254 l 1,24,-1
 80 254 l 2,25,26
 40 254 40 254 40 292 c 0,27,28
 40 307 40 307 48.5 317.5 c 128,-1,29
 57 328 57 328 65 328 c 2,30,-1
 80 328 l 1,31,-1
 95 328 l 1,32,-1
 95 471 l 1,33,-1
 87 471 l 2,34,35
 33 471 33 471 33 525 c 0,36,37
 33 554 33 554 48 566.5 c 128,-1,38
 63 579 63 579 95 579 c 2,39,-1
 187 579 l 1,40,-1
 216 579 l 2,41,42
 301 579 301 579 353 572 c 128,-1,43
 405 565 405 565 446 541 c 0,44,45
 504 505 504 505 536 440.5 c 128,-1,46
 568 376 568 376 568 290 c 0,47,48
 568 200 568 200 532 132.5 c 128,-1,49
 496 65 496 65 430 30 c 0,50,51
 375 0 375 0 242 0 c 2,52,-1
 187 0 l 1,53,-1
 95 0 l 2,17,18
EndSplineSet
EndChar
StartChar: Oslash
Encoding: 216 216 143
Width: 602
Flags: W
LayerCount: 2
Back
Fore
SplineSet
186 175 m 1,0,-1
 361 466 l 1,1,2
 329 482 329 482 298 482 c 0,3,4
 238 482 238 482 202 431.5 c 128,-1,5
 166 381 166 381 166 290 c 0,6,7
 166 226 166 226 186 175 c 1,0,-1
413 409 m 1,8,-1
 237 116 l 1,9,10
 270 97 270 97 299 97 c 0,11,12
 362 97 362 97 399 147.5 c 128,-1,13
 436 198 436 198 436 290 c 0,14,15
 436 362 436 362 413 409 c 1,8,-1
423 567 m 1,16,-1
 451 613 l 2,17,18
 465 635 465 635 482 635 c 0,19,20
 496 635 496 635 509.5 623.5 c 128,-1,21
 523 612 523 612 523 599 c 0,22,23
 523 590 523 590 519 583 c 2,24,-1
 483 525 l 1,25,26
 576 435 576 435 576 290 c 0,27,28
 576 156 576 156 498.5 70.5 c 128,-1,29
 421 -15 421 -15 301 -15 c 0,30,31
 235 -15 235 -15 177 14 c 1,32,-1
 140 -44 l 2,33,34
 125 -67 125 -67 109 -67 c 0,35,36
 95 -67 95 -67 81 -55.5 c 128,-1,37
 67 -44 67 -44 67 -31 c 0,38,39
 67 -23 67 -23 72 -15 c 2,40,-1
 117 57 l 1,41,42
 25 152 25 152 25 290 c 0,43,44
 25 424 25 424 102.5 509.5 c 128,-1,45
 180 595 180 595 301 595 c 0,46,47
 363 595 363 595 423 567 c 1,16,-1
EndSplineSet
EndChar
StartChar: Thorn
Encoding: 222 222 214
Width: 602
Flags: W
LayerCount: 2
Back
Fore
SplineSet
248 351 m 1,0,-1
 248 227 l 1,1,-1
 309 227 l 2,2,3
 359 227 359 227 382.5 241.5 c 128,-1,4
 406 256 406 256 406 289 c 128,-1,5
 406 322 406 322 382.5 336.5 c 128,-1,6
 359 351 359 351 309 351 c 2,7,-1
 248 351 l 1,0,-1
128 488 m 1,8,-1
 119 488 l 2,9,10
 69 488 69 488 69 534 c 0,11,12
 69 554 69 554 81 566.5 c 128,-1,13
 93 579 93 579 109 579 c 2,14,-1
 128 579 l 1,15,-1
 281 579 l 1,16,17
 281 579 281 579 302 579 c 0,18,19
 318 579 318 579 329.5 566.5 c 128,-1,20
 341 554 341 554 341 534 c 0,21,22
 341 488 341 488 281 488 c 2,23,-1
 248 488 l 1,24,-1
 248 443 l 1,25,-1
 321 443 l 2,26,27
 422 443 422 443 473.5 404.5 c 128,-1,28
 525 366 525 366 525 293 c 0,29,30
 525 217 525 217 473.5 176.5 c 128,-1,31
 422 136 422 136 321 136 c 2,32,-1
 248 136 l 1,33,-1
 248 91 l 1,34,-1
 297 91 l 1,35,-1
 316 91 l 2,36,37
 332 91 332 91 344.5 78 c 128,-1,38
 357 65 357 65 357 45 c 0,39,40
 357 19 357 19 342.5 9.5 c 128,-1,41
 328 0 328 0 297 0 c 2,42,-1
 128 0 l 1,43,-1
 109 0 l 2,44,45
 93 0 93 0 81 12.5 c 128,-1,46
 69 25 69 25 69 45 c 0,47,48
 69 91 69 91 119 91 c 2,49,-1
 128 91 l 1,50,-1
 128 488 l 1,8,-1
EndSplineSet
EndChar
StartChar: germandbls
Encoding: 223 223 151
Width: 602
Flags: W
LayerCount: 2
Back
Fore
SplineSet
222 409 m 2,0,-1
 222 21 l 2,1,2
 222 0 222 0 194 0 c 2,3,-1
 74 0 l 2,4,5
 42 0 42 0 27 12 c 128,-1,6
 12 24 12 24 12 54 c 128,-1,7
 12 84 12 84 27 95.5 c 128,-1,8
 42 107 42 107 74 107 c 2,9,-1
 102 107 l 1,10,-1
 102 439 l 2,11,12
 102 544 102 544 149 591.5 c 128,-1,13
 196 639 196 639 306 639 c 0,14,15
 398 639 398 639 447.5 600.5 c 128,-1,16
 497 562 497 562 497 493 c 0,17,18
 497 406 497 406 412 377 c 1,19,20
 480 364 480 364 516.5 316 c 128,-1,21
 553 268 553 268 553 192 c 0,22,23
 553 95 553 95 500.5 41.5 c 128,-1,24
 448 -12 448 -12 355 -12 c 0,25,26
 266 -12 266 -12 266 46 c 0,27,28
 266 92 266 92 321 92 c 0,29,30
 324 92 324 92 330.5 91.5 c 128,-1,31
 337 91 337 91 341 91 c 0,32,33
 426 91 426 91 426 203 c 0,34,35
 426 307 426 307 343 324 c 0,36,37
 334 326 334 326 319 328 c 128,-1,38
 304 330 304 330 297.5 331.5 c 128,-1,39
 291 333 291 333 283 337.5 c 128,-1,40
 275 342 275 342 272 349.5 c 128,-1,41
 269 357 269 357 269 369 c 0,42,43
 269 389 269 389 279 397 c 128,-1,44
 289 405 289 405 316 410 c 0,45,46
 344 415 344 415 357 428 c 128,-1,47
 370 441 370 441 370 467 c 0,48,49
 370 541 370 541 302 541 c 0,50,51
 252 541 252 541 237 510.5 c 128,-1,52
 222 480 222 480 222 409 c 2,0,-1
EndSplineSet
EndChar
StartChar: aring
Encoding: 229 229 184
Width: 602
Flags: W
LayerCount: 2
Back
Fore
SplineSet
500 288 m 2,0,-1
 500 107 l 1,1,2
 500 107 500 107 508 107 c 0,3,4
 562 107 562 107 562 53 c 0,5,6
 562 24 562 24 547 12 c 128,-1,7
 532 0 532 0 500 0 c 2,8,-1
 454 0 l 2,9,10
 430 0 430 0 418 9 c 128,-1,11
 406 18 406 18 398 43 c 1,12,13
 316 -12 316 -12 220 -12 c 0,14,15
 141 -12 141 -12 96.5 27 c 128,-1,16
 52 66 52 66 52 134 c 0,17,18
 52 207 52 207 110 247.5 c 128,-1,19
 168 288 168 288 273 288 c 0,20,21
 326 288 326 288 382 278 c 1,22,-1
 382 287 l 2,23,24
 382 377 382 377 298 377 c 0,25,26
 265 377 265 377 215 353 c 128,-1,27
 165 329 165 329 144 329 c 0,28,29
 118 329 118 329 104.5 342.5 c 128,-1,30
 91 356 91 356 91 378 c 0,31,32
 91 417 91 417 148.5 440.5 c 128,-1,33
 206 464 206 464 306 464 c 0,34,35
 413 464 413 464 456.5 422.5 c 128,-1,36
 500 381 500 381 500 288 c 2,0,-1
382 126 m 1,37,-1
 382 201 l 1,38,39
 333 212 333 212 300 212 c 0,40,41
 184 212 184 212 184 140 c 0,42,43
 184 115 184 115 204 100.5 c 128,-1,44
 224 86 224 86 260 86 c 0,45,46
 326 86 326 86 382 126 c 1,37,-1
167 632 m 128,-1,48
 167 687 167 687 205.5 725.5 c 128,-1,49
 244 764 244 764 299 764 c 128,-1,50
 354 764 354 764 392.5 725.5 c 128,-1,51
 431 687 431 687 431 632 c 128,-1,52
 431 577 431 577 392.5 538.5 c 128,-1,53
 354 500 354 500 299 500 c 128,-1,54
 244 500 244 500 205.5 538.5 c 128,-1,47
 167 577 167 577 167 632 c 128,-1,48
237 633 m 128,-1,56
 237 607 237 607 255 588.5 c 128,-1,57
 273 570 273 570 299 570 c 128,-1,58
 325 570 325 570 343 588.5 c 128,-1,59
 361 607 361 607 361 633 c 0,60,61
 361 658 361 658 342.5 676.5 c 128,-1,62
 324 695 324 695 299 695 c 0,63,64
 273 695 273 695 255 677 c 128,-1,55
 237 659 237 659 237 633 c 128,-1,56
EndSplineSet
EndChar
StartChar: ae
Encoding: 230 230 146
Width: 602
Flags: W
LayerCount: 2
Back
Fore
SplineSet
376 273 m 1,0,-1
 487 273 l 1,1,2
 479 368 479 368 431 368 c 0,3,4
 384 368 384 368 376 273 c 1,0,-1
263 125 m 1,5,-1
 263 197 l 1,6,-1
 187 197 l 2,7,8
 119 197 119 197 119 143 c 0,9,10
 119 116 119 116 133.5 100.5 c 128,-1,11
 148 85 148 85 175 85 c 0,12,13
 221 85 221 85 263 125 c 1,5,-1
317 403 m 1,14,15
 362 463 362 463 438 463 c 0,16,17
 510 463 510 463 555 402 c 128,-1,18
 600 341 600 341 600 245 c 0,19,20
 600 216 600 216 590 206.5 c 128,-1,21
 580 197 580 197 553 197 c 2,22,-1
 376 197 l 1,23,24
 377 92 377 92 452 92 c 0,25,26
 477 92 477 92 498.5 104.5 c 128,-1,27
 520 117 520 117 535.5 130 c 128,-1,28
 551 143 551 143 561 143 c 0,29,30
 575 143 575 143 587.5 128.5 c 128,-1,31
 600 114 600 114 600 98 c 0,32,33
 600 60 600 60 553 24 c 128,-1,34
 506 -12 506 -12 443 -12 c 0,35,36
 353 -12 353 -12 308 62 c 1,37,38
 278 27 278 27 232.5 7.5 c 128,-1,39
 187 -12 187 -12 139 -12 c 0,40,41
 77 -12 77 -12 40.5 26 c 128,-1,42
 4 64 4 64 4 131 c 0,43,44
 4 273 4 273 179 273 c 2,45,-1
 263 273 l 1,46,-1
 263 279 l 2,47,48
 263 320 263 320 243.5 344 c 128,-1,49
 224 368 224 368 191 368 c 0,50,51
 170 368 170 368 132 350.5 c 128,-1,52
 94 333 94 333 75 333 c 128,-1,53
 56 333 56 333 45 345 c 128,-1,54
 34 357 34 357 34 376 c 0,55,56
 34 413 34 413 77 438 c 128,-1,57
 120 463 120 463 187 463 c 0,58,59
 268 463 268 463 317 403 c 1,14,15
EndSplineSet
EndChar
StartChar: eth
Encoding: 240 240 219
Width: 602
Flags: W
LayerCount: 2
Back
Fore
SplineSet
301 91 m 128,-1,1
 358 91 358 91 394.5 129.5 c 128,-1,2
 431 168 431 168 431 226 c 128,-1,3
 431 284 431 284 395 321.5 c 128,-1,4
 359 359 359 359 301 359 c 128,-1,5
 243 359 243 359 206.5 321.5 c 128,-1,6
 170 284 170 284 170 226 c 128,-1,7
 170 168 170 168 207 129.5 c 128,-1,0
 244 91 244 91 301 91 c 128,-1,1
354 448 m 1,8,9
 330 485 330 485 289 521 c 1,10,-1
 193 479 l 2,11,12
 177 472 177 472 167 472 c 0,13,14
 158 472 158 472 151 482 c 128,-1,15
 144 492 144 492 144 503 c 0,16,17
 144 520 144 520 169 530 c 2,18,-1
 241 560 l 1,19,20
 219 576 219 576 196 589.5 c 128,-1,21
 173 603 173 603 164.5 609 c 128,-1,22
 156 615 156 615 156 620 c 0,23,24
 156 639 156 639 206 639 c 0,25,26
 217 639 217 639 231.5 634.5 c 128,-1,27
 246 630 246 630 254.5 625.5 c 128,-1,28
 263 621 263 621 286 608.5 c 128,-1,29
 309 596 309 596 318 591 c 1,30,-1
 401 628 l 2,31,32
 417 635 417 635 427 635 c 0,33,34
 436 635 436 635 443 625 c 128,-1,35
 450 615 450 615 450 604 c 0,36,37
 450 589 450 589 425 578 c 2,38,-1
 372 554 l 1,39,40
 562 401 562 401 562 225 c 0,41,42
 562 122 562 122 491 55 c 128,-1,43
 420 -12 420 -12 301 -12 c 0,44,45
 181 -12 181 -12 107.5 55 c 128,-1,46
 34 122 34 122 34 225 c 0,47,48
 34 324 34 324 105 390 c 128,-1,49
 176 456 176 456 290 456 c 0,50,51
 320 456 320 456 354 448 c 1,8,9
EndSplineSet
EndChar
StartChar: oslash
Encoding: 248 248 149
Width: 602
Flags: W
LayerCount: 2
Back
Fore
SplineSet
195 145 m 1,0,-1
 340 354 l 1,1,2
 320 360 320 360 306 360 c 0,3,4
 245 360 245 360 207.5 322.5 c 128,-1,5
 170 285 170 285 170 226 c 0,6,7
 170 182 170 182 195 145 c 1,0,-1
400 316 m 1,8,-1
 251 101 l 1,9,10
 272 92 272 92 300 92 c 0,11,12
 359 92 359 92 395 130 c 128,-1,13
 431 168 431 168 431 226 c 0,14,15
 431 278 431 278 400 316 c 1,8,-1
184 10 m 1,16,-1
 135 -62 l 2,17,18
 126 -74 126 -74 111 -74 c 0,19,20
 97 -74 97 -74 85.5 -62.5 c 128,-1,21
 74 -51 74 -51 74 -33 c 0,22,23
 74 -30 74 -30 77 -25 c 2,24,-1
 123 43 l 1,25,26
 34 119 34 119 34 225 c 0,27,28
 34 328 34 328 107.5 395 c 128,-1,29
 181 462 181 462 301 462 c 0,30,31
 361 462 361 462 405 445 c 1,32,-1
 444 504 l 2,33,34
 453 516 453 516 467 516 c 128,-1,35
 481 516 481 516 492.5 504.5 c 128,-1,36
 504 493 504 493 504 475 c 0,37,38
 504 470 504 470 501 466 c 2,39,-1
 468 415 l 1,40,41
 515 384 515 384 541 333.5 c 128,-1,42
 567 283 567 283 567 225 c 0,43,44
 567 122 567 122 494 55 c 128,-1,45
 421 -12 421 -12 301 -12 c 0,46,47
 234 -12 234 -12 184 10 c 1,16,-1
EndSplineSet
EndChar
StartChar: thorn
Encoding: 254 254 226
Width: 602
Flags: W
LayerCount: 2
Back
Fore
SplineSet
210 232 m 128,-1,1
 210 176 210 176 241.5 140.5 c 128,-1,2
 273 105 273 105 321 105 c 128,-1,3
 369 105 369 105 400.5 141 c 128,-1,4
 432 177 432 177 432 232 c 0,5,6
 432 288 432 288 400.5 323.5 c 128,-1,7
 369 359 369 359 321 359 c 128,-1,8
 273 359 273 359 241.5 323.5 c 128,-1,0
 210 288 210 288 210 232 c 128,-1,1
270 -87 m 2,9,10
 302 -87 302 -87 316.5 -99 c 128,-1,11
 331 -111 331 -111 331 -141 c 128,-1,12
 331 -171 331 -171 316.5 -182.5 c 128,-1,13
 302 -194 302 -194 270 -194 c 2,14,-1
 63 -194 l 2,15,16
 30 -194 30 -194 16 -182.5 c 128,-1,17
 2 -171 2 -171 2 -141 c 128,-1,18
 2 -111 2 -111 16.5 -99 c 128,-1,19
 31 -87 31 -87 63 -87 c 2,20,-1
 92 -87 l 1,21,-1
 92 531 l 1,22,-1
 84 531 l 2,23,24
 31 531 31 531 31 585 c 0,25,26
 31 615 31 615 45.5 627 c 128,-1,27
 60 639 60 639 92 639 c 2,28,-1
 171 639 l 2,29,30
 200 639 200 639 200 618 c 2,31,-1
 200 396 l 1,32,33
 250 463 250 463 340 463 c 0,34,35
 437 463 437 463 501.5 398.5 c 128,-1,36
 566 334 566 334 566 238 c 0,37,38
 566 136 566 136 502 69.5 c 128,-1,39
 438 3 438 3 341 3 c 0,40,41
 260 3 260 3 208 46 c 1,42,-1
 208 -87 l 1,43,-1
 270 -87 l 2,9,10
EndSplineSet
EndChar
StartChar: dotlessi
Encoding: 305 305 147
Width: 602
Flags: W
LayerCount: 2
Back
Fore
SplineSet
341 451 m 2,0,1
 369 451 369 451 369 430 c 2,2,-1
 369 107 l 1,3,-1
 474 107 l 2,4,5
 506 107 506 107 521 95.5 c 128,-1,6
 536 84 536 84 536 54 c 128,-1,7
 536 24 536 24 521 12 c 128,-1,8
 506 0 506 0 474 0 c 2,9,-1
 144 0 l 2,10,11
 112 0 112 0 97 12 c 128,-1,12
 82 24 82 24 82 54 c 128,-1,13
 82 84 82 84 97 95.5 c 128,-1,14
 112 107 112 107 144 107 c 2,15,-1
 249 107 l 1,16,-1
 249 344 l 1,17,-1
 194 344 l 2,18,19
 162 344 162 344 147.5 356 c 128,-1,20
 133 368 133 368 133 398 c 128,-1,21
 133 428 133 428 147.5 439.5 c 128,-1,22
 162 451 162 451 194 451 c 2,23,-1
 341 451 l 2,0,1
EndSplineSet
EndChar
StartChar: Lslash
Encoding: 321 321 142
Width: 602
Flags: W
LayerCount: 2
Back
Fore
SplineSet
81 0 m 2,0,1
 50 0 50 0 36 12.5 c 128,-1,2
 22 25 22 25 22 54 c 128,-1,3
 22 83 22 83 36 95 c 128,-1,4
 50 107 50 107 81 107 c 2,5,-1
 124 107 l 1,6,-1
 124 204 l 1,7,-1
 94 185 l 2,8,9
 81 177 81 177 71 177 c 0,10,11
 56 177 56 177 44.5 190 c 128,-1,12
 33 203 33 203 33 217 c 0,13,14
 33 233 33 233 55 247 c 2,15,-1
 124 292 l 1,16,-1
 124 471 l 1,17,-1
 81 471 l 2,18,19
 50 471 50 471 36 483.5 c 128,-1,20
 22 496 22 496 22 525 c 128,-1,21
 22 554 22 554 36 566.5 c 128,-1,22
 50 579 50 579 81 579 c 2,23,-1
 290 579 l 2,24,25
 350 579 350 579 350 525 c 0,26,27
 350 496 350 496 335.5 483.5 c 128,-1,28
 321 471 321 471 290 471 c 2,29,-1
 247 471 l 1,30,-1
 247 355 l 1,31,-1
 350 420 l 2,32,33
 363 428 363 428 374 428 c 0,34,35
 389 428 389 428 400 415 c 128,-1,36
 411 402 411 402 411 387 c 0,37,38
 411 382 411 382 410 378.5 c 128,-1,39
 409 375 409 375 408 372.5 c 128,-1,40
 407 370 407 370 404 367.5 c 128,-1,41
 401 365 401 365 400 364 c 128,-1,42
 399 363 399 363 394.5 360 c 128,-1,43
 390 357 390 357 389 357 c 2,44,-1
 247 267 l 1,45,-1
 247 107 l 1,46,-1
 469 107 l 1,47,-1
 469 194 l 2,48,49
 469 226 469 226 481 241 c 128,-1,50
 493 256 493 256 522 256 c 128,-1,51
 551 256 551 256 563 241 c 128,-1,52
 575 226 575 226 575 194 c 2,53,-1
 575 44 l 2,54,55
 575 18 575 18 565 9 c 128,-1,56
 555 0 555 0 524 0 c 2,57,-1
 81 0 l 2,0,1
EndSplineSet
EndChar
StartChar: lslash
Encoding: 322 322 148
Width: 602
Flags: W
LayerCount: 2
Back
Fore
SplineSet
240 258 m 1,0,-1
 145 195 l 2,1,2
 132 186 132 186 122 186 c 0,3,4
 110 186 110 186 99.5 198 c 128,-1,5
 89 210 89 210 89 222 c 0,6,7
 89 235 89 235 110 249 c 2,8,-1
 240 336 l 1,9,-1
 240 531 l 1,10,-1
 186 531 l 2,11,12
 154 531 154 531 139 543 c 128,-1,13
 124 555 124 555 124 585 c 128,-1,14
 124 615 124 615 139 627 c 128,-1,15
 154 639 154 639 186 639 c 2,16,-1
 332 639 l 2,17,18
 361 639 361 639 361 618 c 2,19,-1
 361 402 l 1,20,-1
 456 464 l 2,21,22
 470 474 470 474 479 474 c 0,23,24
 491 474 491 474 501 462 c 128,-1,25
 511 450 511 450 511 438 c 0,26,27
 511 424 511 424 491 411 c 2,28,-1
 361 324 l 1,29,-1
 361 107 l 1,30,-1
 466 107 l 2,31,32
 498 107 498 107 512.5 95.5 c 128,-1,33
 527 84 527 84 527 54 c 128,-1,34
 527 24 527 24 512.5 12 c 128,-1,35
 498 0 498 0 466 0 c 2,36,-1
 135 0 l 2,37,38
 103 0 103 0 88.5 12 c 128,-1,39
 74 24 74 24 74 54 c 128,-1,40
 74 84 74 84 88.5 95.5 c 128,-1,41
 103 107 103 107 135 107 c 2,42,-1
 240 107 l 1,43,-1
 240 258 l 1,0,-1
EndSplineSet
EndChar
StartChar: OE
Encoding: 338 338 144
Width: 602
Flags: W
LayerCount: 2
Back
Fore
SplineSet
273 476 m 1,0,1
 267 477 267 477 255 477 c 0,2,3
 195 477 195 477 163 429 c 128,-1,4
 131 381 131 381 131 290 c 0,5,6
 131 201 131 201 163 152.5 c 128,-1,7
 195 104 195 104 252 104 c 0,8,9
 259 104 259 104 273 106 c 1,10,-1
 273 476 l 1,0,1
334 0 m 1,11,-1
 309 0 l 2,12,13
 192 0 192 0 139 29 c 0,14,15
 77 65 77 65 42 133 c 128,-1,16
 7 201 7 201 7 290 c 128,-1,17
 7 379 7 379 42.5 449 c 128,-1,18
 78 519 78 519 139 552 c 0,19,20
 162 565 162 565 195 571 c 128,-1,21
 228 577 228 577 254 578 c 128,-1,22
 280 579 280 579 333 579 c 2,23,-1
 563 579 l 2,24,25
 589 579 589 579 597 569.5 c 128,-1,26
 605 560 605 560 605 534 c 2,27,-1
 605 425 l 2,28,29
 605 393 605 393 595 378 c 128,-1,30
 585 363 585 363 561 363 c 128,-1,31
 537 363 537 363 527 378 c 128,-1,32
 517 393 517 393 517 425 c 2,33,-1
 517 476 l 1,34,-1
 374 476 l 1,35,-1
 374 343 l 1,36,-1
 413 343 l 1,37,-1
 413 351 l 2,38,39
 413 394 413 394 450 394 c 0,40,41
 488 394 488 394 488 343 c 2,42,-1
 488 259 l 2,43,44
 488 208 488 208 450 208 c 128,-1,45
 412 208 412 208 412 250 c 0,46,47
 412 251 412 251 412.5 254.5 c 128,-1,48
 413 258 413 258 413 260 c 2,49,-1
 374 260 l 1,50,-1
 374 104 l 1,51,-1
 517 104 l 1,52,-1
 517 162 l 2,53,54
 517 194 517 194 527 208.5 c 128,-1,55
 537 223 537 223 561 223 c 0,56,57
 586 223 586 223 595.5 208.5 c 128,-1,58
 605 194 605 194 605 162 c 2,59,-1
 605 44 l 2,60,61
 605 18 605 18 597 9 c 128,-1,62
 589 0 589 0 563 0 c 2,63,-1
 334 0 l 1,11,-1
EndSplineSet
EndChar
StartChar: oe
Encoding: 339 339 150
Width: 602
Flags: W
LayerCount: 2
Back
Fore
SplineSet
190 91 m 128,-1,1
 221 91 221 91 242 128 c 128,-1,2
 263 165 263 165 263 226 c 128,-1,3
 263 287 263 287 242.5 323 c 128,-1,4
 222 359 222 359 190 359 c 128,-1,5
 158 359 158 359 137.5 323 c 128,-1,6
 117 287 117 287 117 226 c 128,-1,7
 117 165 117 165 138 128 c 128,-1,0
 159 91 159 91 190 91 c 128,-1,1
376 273 m 1,8,-1
 487 273 l 1,9,10
 479 368 479 368 431 368 c 0,11,12
 384 368 384 368 376 273 c 1,8,-1
308 62 m 1,13,14
 260 -12 260 -12 176 -12 c 0,15,16
 99 -12 99 -12 50.5 53.5 c 128,-1,17
 2 119 2 119 2 225 c 128,-1,18
 2 331 2 331 50.5 396.5 c 128,-1,19
 99 462 99 462 176 462 c 0,20,21
 257 462 257 462 308 389 c 1,22,23
 354 462 354 462 438 462 c 0,24,25
 510 462 510 462 555 401.5 c 128,-1,26
 600 341 600 341 600 245 c 0,27,28
 600 216 600 216 590 206.5 c 128,-1,29
 580 197 580 197 553 197 c 2,30,-1
 376 197 l 1,31,32
 377 91 377 91 452 91 c 0,33,34
 477 91 477 91 498.5 104 c 128,-1,35
 520 117 520 117 535.5 130 c 128,-1,36
 551 143 551 143 561 143 c 0,37,38
 575 143 575 143 587.5 128.5 c 128,-1,39
 600 114 600 114 600 98 c 0,40,41
 600 60 600 60 553 24 c 128,-1,42
 506 -12 506 -12 443 -12 c 0,43,44
 353 -12 353 -12 308 62 c 1,13,14
EndSplineSet
EndChar
StartChar: florin
Encoding: 402 402 103
Width: 602
Flags: W
LayerCount: 2
Back
Fore
SplineSet
336 33 m 2,0,1
 325 -57 325 -57 278.5 -98 c 128,-1,2
 232 -139 232 -139 141 -139 c 0,3,4
 88 -139 88 -139 64 -124.5 c 128,-1,5
 40 -110 40 -110 40 -77 c 0,6,7
 40 -31 40 -31 91 -31 c 0,8,9
 98 -31 98 -31 113 -32 c 128,-1,10
 128 -33 128 -33 137 -33 c 0,11,12
 175 -33 175 -33 191 -17.5 c 128,-1,13
 207 -2 207 -2 212 37 c 2,14,-1
 246 317 l 1,15,-1
 173 317 l 2,16,17
 163 317 163 317 155 326.5 c 128,-1,18
 147 336 147 336 147 351 c 0,19,20
 147 398 147 398 188 398 c 2,21,-1
 255 398 l 1,22,-1
 265 460 l 2,23,24
 279 552 279 552 323 592 c 128,-1,25
 367 632 367 632 459 632 c 0,26,27
 512 632 512 632 536.5 617.5 c 128,-1,28
 561 603 561 603 561 570 c 0,29,30
 561 524 561 524 510 524 c 0,31,32
 503 524 503 524 488 525 c 128,-1,33
 473 526 473 526 464 526 c 0,34,35
 425 526 425 526 409.5 510.5 c 128,-1,36
 394 495 394 495 389 456 c 2,37,-1
 382 398 l 1,38,-1
 463 398 l 2,39,40
 474 398 474 398 482 389 c 128,-1,41
 490 380 490 380 490 364 c 0,42,43
 490 317 490 317 449 317 c 2,44,-1
 372 317 l 1,45,-1
 336 33 l 2,0,1
EndSplineSet
EndChar
StartChar: circumflex
Encoding: 710 710 128
Width: 602
Flags: W
LayerCount: 2
Back
Fore
SplineSet
331 652 m 2,0,-1
 466 545 l 2,1,2
 472 541 472 541 472 532 c 128,-1,3
 472 523 472 523 465 515.5 c 128,-1,4
 458 508 458 508 449 508 c 0,5,6
 447 508 447 508 441 510 c 2,7,-1
 301 575 l 1,8,-1
 161 510 l 2,9,10
 155 508 155 508 153 508 c 0,11,12
 144 508 144 508 137 515.5 c 128,-1,13
 130 523 130 523 130 532 c 0,14,15
 130 540 130 540 136 545 c 2,16,-1
 271 652 l 2,17,18
 283 661 283 661 301 661 c 128,-1,19
 319 661 319 661 331 652 c 2,0,-1
EndSplineSet
EndChar
StartChar: caron
Encoding: 711 711 138
Width: 602
Flags: W
LayerCount: 2
Back
Fore
SplineSet
271 520 m 2,0,-1
 136 626 l 2,1,2
 130 630 130 630 130 639 c 128,-1,3
 130 648 130 648 137 655.5 c 128,-1,4
 144 663 144 663 153 663 c 0,5,6
 155 663 155 663 161 661 c 2,7,-1
 301 597 l 1,8,-1
 441 661 l 2,9,10
 447 663 447 663 449 663 c 0,11,12
 458 663 458 663 465 655.5 c 128,-1,13
 472 648 472 648 472 639 c 128,-1,14
 472 630 472 630 466 626 c 2,15,-1
 331 520 l 2,16,17
 318 510 318 510 301 510 c 128,-1,18
 284 510 284 510 271 520 c 2,0,-1
EndSplineSet
EndChar
StartChar: breve
Encoding: 728 728 131
Width: 602
Flags: W
LayerCount: 2
Back
Fore
SplineSet
301 603 m 0,0,1
 388 603 388 603 422 622 c 0,2,3
 429 626 429 626 445 643 c 128,-1,4
 461 660 461 660 474 660 c 0,5,6
 488 660 488 660 488 641 c 0,7,8
 488 598 488 598 436.5 563.5 c 128,-1,9
 385 529 385 529 301 529 c 128,-1,10
 217 529 217 529 165.5 563.5 c 128,-1,11
 114 598 114 598 114 641 c 0,12,13
 114 660 114 660 128 660 c 0,14,15
 140 660 140 660 155.5 643.5 c 128,-1,16
 171 627 171 627 180 622 c 0,17,18
 213 603 213 603 301 603 c 0,0,1
EndSplineSet
EndChar
StartChar: dotaccent
Encoding: 729 729 132
Width: 602
Flags: W
LayerCount: 2
Back
Fore
SplineSet
235 590 m 0,0,1
 235 616 235 616 255 635.5 c 128,-1,2
 275 655 275 655 301 655 c 0,3,4
 328 655 328 655 347.5 636 c 128,-1,5
 367 617 367 617 367 590 c 0,6,7
 367 562 367 562 348 542.5 c 128,-1,8
 329 523 329 523 301 523 c 128,-1,9
 273 523 273 523 254 542.5 c 128,-1,10
 235 562 235 562 235 590 c 0,0,1
EndSplineSet
EndChar
StartChar: ring
Encoding: 730 730 134
Width: 602
Flags: W
LayerCount: 2
Back
Fore
SplineSet
169 632 m 128,-1,1
 169 687 169 687 207.5 725.5 c 128,-1,2
 246 764 246 764 301 764 c 128,-1,3
 356 764 356 764 394.5 725.5 c 128,-1,4
 433 687 433 687 433 632 c 128,-1,5
 433 577 433 577 394.5 538.5 c 128,-1,6
 356 500 356 500 301 500 c 128,-1,7
 246 500 246 500 207.5 538.5 c 128,-1,0
 169 577 169 577 169 632 c 128,-1,1
238 633 m 128,-1,9
 238 607 238 607 256.5 588.5 c 128,-1,10
 275 570 275 570 301 570 c 128,-1,11
 327 570 327 570 345 588.5 c 128,-1,12
 363 607 363 607 363 633 c 0,13,14
 363 658 363 658 344.5 676.5 c 128,-1,15
 326 695 326 695 301 695 c 0,16,17
 275 695 275 695 256.5 677 c 128,-1,8
 238 659 238 659 238 633 c 128,-1,9
EndSplineSet
EndChar
StartChar: ogonek
Encoding: 731 731 137
Width: 602
Flags: W
LayerCount: 2
Back
Fore
SplineSet
408 15 m 1,0,1
 328 -51 328 -51 328 -115 c 0,2,3
 328 -165 328 -165 369 -165 c 0,4,5
 399 -165 399 -165 423 -131 c 1,6,-1
 440 -141 l 1,7,8
 399 -228 399 -228 325 -228 c 0,9,10
 286 -228 286 -228 263.5 -208 c 128,-1,11
 241 -188 241 -188 241 -154 c 0,12,13
 241 -69 241 -69 380 15 c 1,14,-1
 408 15 l 1,0,1
EndSplineSet
EndChar
StartChar: tilde
Encoding: 732 732 129
Width: 602
Flags: W
LayerCount: 2
Back
Fore
SplineSet
350 613 m 2,0,1
 380 606 380 606 391 606 c 0,2,3
 413 606 413 606 432 623 c 128,-1,4
 451 640 451 640 459 640 c 0,5,6
 479 640 479 640 479 619 c 0,7,8
 479 592 479 592 446 564.5 c 128,-1,9
 413 537 413 537 366 537 c 0,10,11
 341 537 341 537 307 545 c 2,12,-1
 252 560 l 2,13,14
 230 566 230 566 210 566 c 0,15,16
 188 566 188 566 169.5 549.5 c 128,-1,17
 151 533 151 533 142 533 c 0,18,19
 123 533 123 533 123 553 c 0,20,21
 123 580 123 580 155.5 607.5 c 128,-1,22
 188 635 188 635 236 635 c 0,23,24
 266 635 266 635 294 628 c 2,25,-1
 350 613 l 2,0,1
EndSplineSet
EndChar
StartChar: hungarumlaut
Encoding: 733 733 136
Width: 602
Flags: W
LayerCount: 2
Back
Fore
SplineSet
166 530 m 1,0,-1
 303 655 l 2,1,2
 316 666 316 666 322 666 c 0,3,4
 332 666 332 666 339 657 c 2,5,-1
 366 625 l 2,6,7
 371 618 371 618 371 612 c 0,8,9
 371 602 371 602 359 595 c 2,10,-1
 193 503 l 1,11,-1
 166 530 l 1,0,-1
329 530 m 1,12,-1
 466 655 l 2,13,14
 479 666 479 666 485 666 c 0,15,16
 495 666 495 666 502 657 c 2,17,-1
 529 625 l 2,18,19
 534 618 534 618 534 612 c 0,20,21
 534 602 534 602 522 595 c 2,22,-1
 357 503 l 1,23,-1
 329 530 l 1,12,-1
EndSplineSet
EndChar
StartChar: mu
Encoding: 956 956 220
Width: 602
Flags: W
LayerCount: 2
Back
Fore
SplineSet
477 99 m 1,0,-1
 497 99 l 2,1,2
 515 99 515 99 527 86.5 c 128,-1,3
 539 74 539 74 539 54 c 0,4,5
 539 28 539 28 522.5 14 c 128,-1,6
 506 0 506 0 476 0 c 2,7,-1
 410 0 l 2,8,9
 358 0 358 0 358 45 c 0,10,11
 358 55 358 55 359 67 c 1,12,13
 308 -10 308 -10 237 -10 c 0,14,15
 195 -10 195 -10 169 20 c 1,16,-1
 137 -138 l 2,17,18
 125 -195 125 -195 78 -195 c 0,19,20
 25 -195 25 -195 25 -146 c 0,21,22
 25 -136 25 -136 28 -124 c 2,23,-1
 133 353 l 1,24,-1
 116 353 l 2,25,26
 98 353 98 353 85.5 365.5 c 128,-1,27
 73 378 73 378 73 398 c 0,28,29
 73 424 73 424 90 438.5 c 128,-1,30
 107 453 107 453 137 453 c 2,31,-1
 202 453 l 2,32,33
 255 453 255 453 255 406 c 0,34,35
 255 402 255 402 253 384 c 2,36,-1
 203 165 l 2,37,38
 198 145 198 145 198 128 c 0,39,40
 198 85 198 85 250 85 c 0,41,42
 358 85 358 85 394 240 c 2,43,-1
 429 394 l 2,44,45
 436 425 436 425 448.5 439 c 128,-1,46
 461 453 461 453 490 453 c 0,47,48
 541 453 541 453 541 403 c 0,49,50
 541 394 541 394 538 380 c 2,51,-1
 477 99 l 1,0,-1
EndSplineSet
EndChar
StartChar: endash
Encoding: 8211 8211 113
Width: 602
Flags: W
LayerCount: 2
Back
Fore
SplineSet
602 272 m 2,0,1
 625 272 625 272 625 248 c 2,2,-1
 625 206 l 2,3,4
 625 195 625 195 618 187 c 128,-1,5
 611 179 611 179 602 179 c 2,6,-1
 0 179 l 2,7,8
 -9 179 -9 179 -15.5 186.5 c 128,-1,9
 -22 194 -22 194 -22 206 c 2,10,-1
 -22 248 l 2,11,12
 -22 258 -22 258 -15.5 265 c 128,-1,13
 -9 272 -9 272 0 272 c 2,14,-1
 602 272 l 2,0,1
EndSplineSet
EndChar
StartChar: emdash
Encoding: 8212 8212 139
Width: 602
Flags: W
LayerCount: 2
Back
Fore
SplineSet
0 272 m 2,0,-1
 602 272 l 2,1,2
 625 272 625 272 625 248 c 2,3,-1
 625 206 l 2,4,5
 625 195 625 195 618 187 c 128,-1,6
 611 179 611 179 602 179 c 2,7,-1
 0 179 l 2,8,9
 -22 179 -22 179 -22 206 c 2,10,-1
 -22 248 l 2,11,12
 -22 258 -22 258 -15.5 265 c 128,-1,13
 -9 272 -9 272 0 272 c 2,0,-1
EndSplineSet
EndChar
StartChar: quoteleft
Encoding: 8216 8216 67
Width: 602
Flags: W
LayerCount: 2
Back
Fore
SplineSet
340 350 m 2,0,1
 336 337 336 337 330.5 332.5 c 128,-1,2
 325 328 325 328 312 328 c 2,3,-1
 216 328 l 2,4,5
 202 328 202 328 202 337 c 0,6,7
 202 341 202 341 206 348 c 2,8,-1
 325 582 l 2,9,10
 333 596 333 596 344 596 c 0,11,12
 347 596 347 596 353 594 c 2,13,-1
 384 583 l 2,14,15
 398 578 398 578 398 567 c 0,16,17
 398 563 398 563 396 557 c 2,18,-1
 340 350 l 2,0,1
EndSplineSet
EndChar
StartChar: quoteright
Encoding: 8217 8217 10
Width: 602
Flags: W
LayerCount: 2
Back
Fore
SplineSet
265 556 m 2,0,1
 269 570 269 570 274 574.5 c 128,-1,2
 279 579 279 579 292 579 c 2,3,-1
 388 579 l 2,4,5
 402 579 402 579 402 570 c 0,6,7
 402 563 402 563 399 558 c 2,8,-1
 279 325 l 2,9,10
 271 311 271 311 260 311 c 0,11,12
 255 311 255 311 252 312 c 2,13,-1
 221 323 l 2,14,15
 207 328 207 328 207 339 c 0,16,17
 207 346 207 346 208 349 c 2,18,-1
 265 556 l 2,0,1
EndSplineSet
EndChar
StartChar: quotesinglbase
Encoding: 8218 8218 119
Width: 602
Flags: W
LayerCount: 2
Back
Fore
SplineSet
378 109 m 2,0,1
 392 109 392 109 392 100 c 0,2,3
 392 96 392 96 388 89 c 2,4,-1
 269 -145 l 2,5,6
 263 -158 263 -158 250 -158 c 0,7,8
 244 -158 244 -158 241 -157 c 2,9,-1
 211 -146 l 2,10,11
 197 -141 197 -141 197 -130 c 0,12,13
 197 -123 197 -123 198 -120 c 2,14,-1
 255 87 l 2,15,16
 259 100 259 100 264 104.5 c 128,-1,17
 269 109 269 109 282 109 c 2,18,-1
 378 109 l 2,0,1
EndSplineSet
EndChar
StartChar: quotedblleft
Encoding: 8220 8220 107
Width: 602
Flags: W
LayerCount: 2
Back
Fore
SplineSet
235 350 m 2,0,1
 231 337 231 337 226 332.5 c 128,-1,2
 221 328 221 328 208 328 c 2,3,-1
 112 328 l 2,4,5
 98 328 98 328 98 337 c 0,6,7
 98 341 98 341 102 348 c 2,8,-1
 221 582 l 2,9,10
 229 596 229 596 240 596 c 0,11,12
 243 596 243 596 249 594 c 2,13,-1
 279 583 l 2,14,15
 294 578 294 578 294 567 c 0,16,17
 294 563 294 563 292 557 c 2,18,-1
 235 350 l 2,0,1
427 350 m 2,19,20
 423 337 423 337 418 332.5 c 128,-1,21
 413 328 413 328 400 328 c 2,22,-1
 304 328 l 2,23,24
 290 328 290 328 290 337 c 0,25,26
 290 343 290 343 293 348 c 2,27,-1
 412 582 l 2,28,29
 420 596 420 596 431 596 c 0,30,31
 434 596 434 596 440 594 c 2,32,-1
 471 583 l 2,33,34
 485 578 485 578 485 567 c 0,35,36
 485 560 485 560 484 557 c 2,37,-1
 427 350 l 2,19,20
EndSplineSet
EndChar
StartChar: quotedblright
Encoding: 8221 8221 121
Width: 602
Flags: W
LayerCount: 2
Back
Fore
SplineSet
169 556 m 2,0,1
 173 569 173 569 178.5 574 c 128,-1,2
 184 579 184 579 197 579 c 2,3,-1
 292 579 l 2,4,5
 306 579 306 579 306 570 c 0,6,7
 306 563 306 563 303 558 c 2,8,-1
 184 325 l 2,9,10
 176 311 176 311 164 311 c 0,11,12
 159 311 159 311 156 312 c 2,13,-1
 125 323 l 2,14,15
 111 328 111 328 111 339 c 0,16,17
 111 346 111 346 112 349 c 2,18,-1
 169 556 l 2,0,1
361 556 m 2,19,20
 365 570 365 570 370 574.5 c 128,-1,21
 375 579 375 579 388 579 c 2,22,-1
 484 579 l 2,23,24
 498 579 498 579 498 570 c 0,25,26
 498 565 498 565 494 558 c 2,27,-1
 375 325 l 2,28,29
 367 311 367 311 355 311 c 0,30,31
 350 311 350 311 347 312 c 2,32,-1
 317 323 l 2,33,34
 303 328 303 328 303 339 c 0,35,36
 303 346 303 346 304 349 c 2,37,-1
 361 556 l 2,19,20
EndSplineSet
EndChar
StartChar: quotedblbase
Encoding: 8222 8222 120
Width: 602
Flags: W
LayerCount: 2
Back
Fore
SplineSet
161 87 m 2,0,1
 165 100 165 100 170.5 104.5 c 128,-1,2
 176 109 176 109 189 109 c 2,3,-1
 285 109 l 2,4,5
 299 109 299 109 299 100 c 0,6,7
 299 96 299 96 295 89 c 2,8,-1
 176 -145 l 2,9,10
 170 -158 170 -158 157 -158 c 0,11,12
 151 -158 151 -158 148 -157 c 2,13,-1
 117 -146 l 2,14,15
 103 -141 103 -141 103 -130 c 0,16,17
 103 -126 103 -126 105 -120 c 2,18,-1
 161 87 l 2,0,1
353 87 m 2,19,20
 357 100 357 100 362.5 104.5 c 128,-1,21
 368 109 368 109 381 109 c 2,22,-1
 476 109 l 2,23,24
 490 109 490 109 490 100 c 0,25,26
 490 94 490 94 487 89 c 2,27,-1
 368 -145 l 2,28,29
 362 -158 362 -158 349 -158 c 0,30,31
 343 -158 343 -158 340 -157 c 2,32,-1
 309 -146 l 2,33,34
 295 -141 295 -141 295 -130 c 0,35,36
 295 -123 295 -123 296 -120 c 2,37,-1
 353 87 l 2,19,20
EndSplineSet
EndChar
StartChar: dagger
Encoding: 8224 8224 114
Width: 602
Flags: W
LayerCount: 2
Back
Fore
SplineSet
360 31 m 2,0,1
 360 -14 360 -14 304 -14 c 0,2,3
 276 -14 276 -14 260.5 -1 c 128,-1,4
 245 12 245 12 245 31 c 2,5,-1
 245 350 l 1,6,-1
 151 350 l 2,7,8
 140 350 140 350 130.5 364 c 128,-1,9
 121 378 121 378 121 400 c 0,10,11
 121 423 121 423 131 437 c 128,-1,12
 141 451 141 451 151 451 c 2,13,-1
 245 451 l 1,14,-1
 245 551 l 2,15,16
 245 595 245 595 301 595 c 0,17,18
 329 595 329 595 344.5 582.5 c 128,-1,19
 360 570 360 570 360 551 c 2,20,-1
 360 451 l 1,21,-1
 451 451 l 2,22,23
 462 451 462 451 471.5 437 c 128,-1,24
 481 423 481 423 481 401 c 0,25,26
 481 378 481 378 471 364 c 128,-1,27
 461 350 461 350 451 350 c 2,28,-1
 360 350 l 1,29,-1
 360 31 l 2,0,1
EndSplineSet
EndChar
StartChar: daggerdbl
Encoding: 8225 8225 115
Width: 602
Flags: W
LayerCount: 2
Back
Fore
SplineSet
360 231 m 1,0,-1
 454 231 l 2,1,2
 465 231 465 231 474.5 217 c 128,-1,3
 484 203 484 203 484 181 c 0,4,5
 484 158 484 158 474 143.5 c 128,-1,6
 464 129 464 129 454 129 c 2,7,-1
 360 129 l 1,8,-1
 360 30 l 2,9,10
 360 -15 360 -15 304 -15 c 0,11,12
 276 -15 276 -15 260.5 -2 c 128,-1,13
 245 11 245 11 245 30 c 2,14,-1
 245 130 l 1,15,-1
 154 130 l 2,16,17
 143 130 143 130 134 143.5 c 128,-1,18
 125 157 125 157 125 179 c 0,19,20
 125 202 125 202 134.5 216.5 c 128,-1,21
 144 231 144 231 154 231 c 2,22,-1
 245 231 l 1,23,-1
 245 350 l 1,24,-1
 151 350 l 2,25,26
 140 350 140 350 130.5 364 c 128,-1,27
 121 378 121 378 121 400 c 0,28,29
 121 423 121 423 131 437 c 128,-1,30
 141 451 141 451 151 451 c 2,31,-1
 245 451 l 1,32,-1
 245 551 l 2,33,34
 245 595 245 595 301 595 c 0,35,36
 329 595 329 595 344.5 582.5 c 128,-1,37
 360 570 360 570 360 551 c 2,38,-1
 360 451 l 1,39,-1
 451 451 l 2,40,41
 462 451 462 451 471.5 437 c 128,-1,42
 481 423 481 423 481 401 c 0,43,44
 481 378 481 378 471 364 c 128,-1,45
 461 350 461 350 451 350 c 2,46,-1
 360 350 l 1,47,-1
 360 231 l 1,0,-1
EndSplineSet
EndChar
StartChar: guilsinglleft
Encoding: 8249 8249 109
Width: 602
Flags: W
LayerCount: 2
Back
Fore
SplineSet
314 223 m 1,0,-1
 375 91 l 2,1,2
 379 81 379 81 379 73 c 0,3,4
 379 58 379 58 367 47 c 128,-1,5
 355 36 355 36 339 36 c 0,6,7
 317 36 317 36 308 53 c 2,8,-1
 231 203 l 2,9,10
 224 216 224 216 224 225 c 0,11,12
 224 236 224 236 231 249 c 2,13,-1
 308 394 l 2,14,15
 317 410 317 410 339 410 c 0,16,17
 355 410 355 410 367 399 c 128,-1,18
 379 388 379 388 379 373 c 0,19,20
 379 366 379 366 375 356 c 2,21,-1
 314 223 l 1,0,-1
EndSplineSet
EndChar
StartChar: guilsinglright
Encoding: 8250 8250 110
Width: 602
Flags: W
LayerCount: 2
Back
Fore
SplineSet
287 223 m 1,0,-1
 226 356 l 2,1,2
 222 366 222 366 222 373 c 0,3,4
 222 388 222 388 234.5 399 c 128,-1,5
 247 410 247 410 263 410 c 0,6,7
 284 410 284 410 293 394 c 2,8,-1
 371 244 l 2,9,10
 378 231 378 231 378 221 c 0,11,12
 378 210 378 210 371 197 c 2,13,-1
 293 53 l 2,14,15
 284 36 284 36 263 36 c 0,16,17
 247 36 247 36 234.5 47 c 128,-1,18
 222 58 222 58 222 73 c 0,19,20
 222 81 222 81 226 91 c 2,21,-1
 287 223 l 1,0,-1
EndSplineSet
EndChar
StartChar: fraction
Encoding: 8260 8260 101
Width: 602
Flags: W
LayerCount: 2
Back
Fore
SplineSet
212 -6 m 2,0,1
 188 -58 188 -58 161 -58 c 0,2,3
 140 -58 140 -58 122 -44.5 c 128,-1,4
 104 -31 104 -31 104 -9 c 0,5,6
 104 7 104 7 118 38 c 2,7,-1
 404 650 l 2,8,9
 428 702 428 702 455 702 c 0,10,11
 476 702 476 702 494 688.5 c 128,-1,12
 512 675 512 675 512 653 c 0,13,14
 512 638 512 638 498 607 c 2,15,-1
 212 -6 l 2,0,1
EndSplineSet
EndChar
StartChar: trademark
Encoding: 8482 8482 208
Width: 602
Flags: W
LayerCount: 2
Back
Fore
SplineSet
275 489 m 1,0,1
 275 489 275 489 275 486 c 0,2,3
 275 460 275 460 250 460 c 0,4,5
 235 460 235 460 229.5 466 c 128,-1,6
 224 472 224 472 223 489 c 2,7,-1
 221 534 l 1,8,-1
 187 534 l 1,9,-1
 187 385 l 1,10,-1
 219 385 l 2,11,12
 248 385 248 385 248 357 c 128,-1,13
 248 329 248 329 219 329 c 2,14,-1
 89 329 l 2,15,16
 60 329 60 329 60 357 c 128,-1,17
 60 385 60 385 89 385 c 2,18,-1
 121 385 l 1,19,-1
 121 534 l 1,20,-1
 87 534 l 1,21,-1
 86 489 l 2,22,23
 85 460 85 460 59 460 c 128,-1,24
 33 460 33 460 33 486 c 2,25,-1
 33 489 l 1,26,-1
 35 562 l 2,27,28
 36 574 36 574 37 579 c 128,-1,29
 38 584 38 584 43 586.5 c 128,-1,30
 48 589 48 589 60 589 c 2,31,-1
 249 589 l 2,32,33
 261 589 261 589 265.5 586.5 c 128,-1,34
 270 584 270 584 271 579.5 c 128,-1,35
 272 575 272 575 273 562 c 2,36,-1
 275 489 l 1,0,1
311 329 m 2,37,38
 282 329 282 329 282 357 c 128,-1,39
 282 385 282 385 307 385 c 1,40,-1
 313 534 l 1,41,42
 289 534 289 534 289 562 c 0,43,44
 289 574 289 574 295 581.5 c 128,-1,45
 301 589 301 589 308 589 c 2,46,-1
 359 589 l 2,47,48
 379 589 379 589 388 566 c 2,49,-1
 424 461 l 1,50,-1
 459 566 l 2,51,52
 467 589 467 589 489 589 c 2,53,-1
 530 589 l 2,54,55
 559 589 559 589 559 562 c 0,56,57
 559 549 559 549 552 541.5 c 128,-1,58
 545 534 545 534 534 534 c 1,59,-1
 541 385 l 1,60,-1
 543 385 l 2,61,62
 565 385 565 385 565 357 c 128,-1,63
 565 329 565 329 536 329 c 2,64,-1
 487 329 l 2,65,66
 454 329 454 329 454 357 c 128,-1,67
 454 385 454 385 484 385 c 2,68,-1
 487 385 l 1,69,-1
 484 511 l 1,70,-1
 452 412 l 2,71,72
 445 391 445 391 424 391 c 128,-1,73
 403 391 403 391 396 412 c 2,74,-1
 364 511 l 1,75,-1
 361 385 l 1,76,-1
 365 385 l 2,77,78
 390 385 390 385 390 357 c 128,-1,79
 390 329 390 329 361 329 c 2,80,-1
 311 329 l 2,37,38
EndSplineSet
EndChar
StartChar: fi
Encoding: 64257 64257 111
Width: 602
Flags: W
LayerCount: 2
Back
Fore
SplineSet
84 344 m 1,0,1
 84 344 84 344 76 344 c 0,2,3
 22 344 22 344 22 398 c 0,4,5
 22 451 22 451 76 451 c 2,6,7
 76 451 76 451 84 451 c 1,8,9
 84 451 84 451 84 466 c 0,10,11
 84 639 84 639 276 639 c 0,12,13
 368 639 368 639 368 585 c 0,14,15
 368 539 368 539 324 539 c 0,16,17
 312 539 312 539 297.5 539.5 c 128,-1,18
 283 540 283 540 281 540 c 0,19,20
 240 540 240 540 222.5 519 c 128,-1,21
 205 498 205 498 205 451 c 1,22,-1
 223 451 l 2,23,24
 255 451 255 451 270.5 439.5 c 128,-1,25
 286 428 286 428 286 398 c 128,-1,26
 286 368 286 368 270.5 356 c 128,-1,27
 255 344 255 344 223 344 c 2,28,-1
 205 344 l 1,29,-1
 205 107 l 1,30,-1
 223 107 l 2,31,32
 255 107 255 107 270 95.5 c 128,-1,33
 285 84 285 84 285 54 c 128,-1,34
 285 24 285 24 270 12 c 128,-1,35
 255 0 255 0 223 0 c 2,36,-1
 84 0 l 2,37,38
 52 0 52 0 37 12 c 128,-1,39
 22 24 22 24 22 54 c 0,40,41
 22 107 22 107 76 107 c 2,42,-1
 84 107 l 1,43,-1
 84 344 l 1,0,1
391 577 m 0,44,45
 391 637 391 637 401 654.5 c 128,-1,46
 411 672 411 672 448 672 c 128,-1,47
 485 672 485 672 495 656.5 c 128,-1,48
 505 641 505 641 505 593 c 128,-1,49
 505 545 505 545 495.5 532 c 128,-1,50
 486 519 486 519 448 519 c 0,51,52
 413 519 413 519 402 529.5 c 128,-1,53
 391 540 391 540 391 577 c 0,44,45
395 344 m 1,54,-1
 387 344 l 2,55,56
 334 344 334 344 334 398 c 0,57,58
 334 428 334 428 348.5 439.5 c 128,-1,59
 363 451 363 451 395 451 c 2,60,-1
 487 451 l 2,61,62
 516 451 516 451 516 430 c 2,63,-1
 516 107 l 1,64,-1
 524 107 l 2,65,66
 577 107 577 107 577 54 c 0,67,68
 577 24 577 24 562.5 12 c 128,-1,69
 548 0 548 0 516 0 c 2,70,-1
 395 0 l 2,71,72
 363 0 363 0 348.5 12 c 128,-1,73
 334 24 334 24 334 54 c 0,74,75
 334 107 334 107 387 107 c 2,76,-1
 395 107 l 1,77,-1
 395 344 l 1,54,-1
EndSplineSet
EndChar
StartChar: fl
Encoding: 64258 64258 112
Width: 602
Flags: W
LayerCount: 2
Back
Fore
SplineSet
84 344 m 1,0,1
 84 344 84 344 76 344 c 0,2,3
 22 344 22 344 22 398 c 0,4,5
 22 451 22 451 76 451 c 2,6,7
 76 451 76 451 84 451 c 1,8,9
 84 451 84 451 84 467 c 0,10,11
 84 639 84 639 276 639 c 2,12,-1
 487 639 l 2,13,14
 516 639 516 639 516 618 c 2,15,-1
 516 107 l 1,16,17
 516 107 516 107 524 107 c 0,18,19
 577 107 577 107 577 54 c 0,20,21
 577 24 577 24 562.5 12 c 128,-1,22
 548 0 548 0 516 0 c 2,23,-1
 395 0 l 2,24,25
 363 0 363 0 348.5 12 c 128,-1,26
 334 24 334 24 334 54 c 0,27,28
 334 107 334 107 387 107 c 2,29,-1
 395 107 l 1,30,-1
 395 541 l 1,31,-1
 341 541 l 1,32,-1
 333 541 l 2,33,34
 255 541 255 541 230.5 526.5 c 128,-1,35
 206 512 206 512 205 451 c 1,36,-1
 223 451 l 2,37,38
 255 451 255 451 270.5 439.5 c 128,-1,39
 286 428 286 428 286 398 c 128,-1,40
 286 368 286 368 270.5 356 c 128,-1,41
 255 344 255 344 223 344 c 2,42,-1
 205 344 l 1,43,-1
 205 107 l 1,44,-1
 223 107 l 2,45,46
 255 107 255 107 270 95.5 c 128,-1,47
 285 84 285 84 285 54 c 128,-1,48
 285 24 285 24 270 12 c 128,-1,49
 255 0 255 0 223 0 c 2,50,-1
 84 0 l 2,51,52
 52 0 52 0 37 12 c 128,-1,53
 22 24 22 24 22 54 c 0,54,55
 22 107 22 107 76 107 c 2,56,-1
 84 107 l 1,57,-1
 84 344 l 1,0,1
EndSplineSet
EndChar
